<?xml version="1.0" encoding="UTF-8"?>
<!DOCTYPE svg PUBLIC "-//W3C//DTD SVG 1.1//EN" "http://www.w3.org/Graphics/SVG/1.1/DTD/svg11.dtd">
<svg xmlns="http://www.w3.org/2000/svg" version="1.1" width="8333px" height="8333px" style="shape-rendering:geometricPrecision; text-rendering:geometricPrecision; image-rendering:optimizeQuality; fill-rule:evenodd; clip-rule:evenodd" xmlns:xlink="http://www.w3.org/1999/xlink">
<g><path style="opacity:0.258" fill="#ccedfe" d="M -0.5,-0.5 C 2777.17,-0.5 5554.83,-0.5 8332.5,-0.5C 8332.5,2777.17 8332.5,5554.83 8332.5,8332.5C 5554.83,8332.5 2777.17,8332.5 -0.5,8332.5C -0.5,5554.83 -0.5,2777.17 -0.5,-0.5 Z"/></g>
<g><path style="opacity:1" fill="#371a46" d="M 6705.5,6682.5 C 6652.09,6749.09 6594.09,6811.93 6531.5,6871C 6515.46,6885.37 6499.13,6899.37 6482.5,6913C 6440.97,6921.15 6411.14,6905.99 6393,6867.5C 6384.01,6841.9 6381.01,6815.56 6384,6788.5C 6390.23,6741.52 6396.06,6694.52 6401.5,6647.5C 6410.71,6579.46 6416.55,6511.13 6419,6442.5C 6419.76,6411.82 6419.43,6381.15 6418,6350.5C 6416.86,6323.81 6410.53,6298.47 6399,6274.5C 6385.7,6254.86 6368.86,6239.03 6348.5,6227C 6312.35,6207.12 6274.02,6193.28 6233.5,6185.5C 6212.61,6282.54 6157.61,6352.7 6068.5,6396C 6055.13,6401.79 6041.46,6406.79 6027.5,6411C 5964.3,6428.07 5900.3,6441.24 5835.5,6450.5C 5825.02,6500.28 5811.68,6549.28 5795.5,6597.5C 5762.79,6692.24 5720.96,6782.57 5670,6868.5C 5662.25,6881 5654.25,6893.34 5646,6905.5C 5635,6916.46 5622.17,6919.29 5607.5,6914C 5603.04,6912.02 5599.21,6909.19 5596,6905.5C 5529.38,6802.91 5477.21,6693.24 5439.5,6576.5C 5427.01,6535.7 5416.01,6494.53 5406.5,6453C 5322.79,6442.1 5240.46,6424.76 5159.5,6401C 5071.02,6370.85 5009.52,6312.35 4975,6225.5C 4971.44,6216 4968.61,6206.33 4966.5,6196.5C 4930.9,6205.97 4898.56,6221.8 4869.5,6244C 4844.41,6265.34 4830.24,6292.51 4827,6325.5C 4824.81,6339.75 4823.47,6354.09 4823,6368.5C 4821.51,6434.03 4824.34,6499.36 4831.5,6564.5C 4839.59,6640.24 4848.43,6715.91 4858,6791.5C 4861.85,6822.4 4856.85,6851.74 4843,6879.5C 4822.74,6909.7 4794.9,6920.86 4759.5,6913C 4638.14,6810.19 4534.81,6692.36 4449.5,6559.5C 4449.57,6557.97 4448.91,6556.97 4447.5,6556.5C 4418.51,6508.52 4392.68,6458.86 4370,6407.5C 4335.21,6326.34 4314.88,6241.67 4309,6153.5C 4301.64,5946.73 4381.81,5783.89 4549.5,5665C 4570.83,5650.33 4592.83,5636.66 4615.5,5624C 4640.74,5611.21 4666.08,5598.71 4691.5,5586.5C 4613.59,5412.58 4552.09,5232.91 4507,5047.5C 4432.36,4736.02 4395.53,4420.02 4396.5,4099.5C 4396.26,3826.52 4420.76,3555.85 4470,3287.5C 4517.85,3030.41 4592.52,2781.41 4694,2540.5C 4802.39,2285.93 4942.05,2050.93 5113,1835.5C 5232.65,1686.52 5367.48,1553.02 5517.5,1435C 5581.02,1389.1 5650.02,1378.76 5724.5,1404C 5740.22,1410.36 5755.22,1418.03 5769.5,1427C 5844.88,1486.69 5916.38,1551.19 5984,1620.5C 6153.15,1797.63 6296.82,1993.29 6415,2207.5C 6558.15,2470.51 6664.48,2747.84 6734,3039.5C 6804.89,3340.93 6841.89,3646.6 6845,3956.5C 6850.99,4272.3 6821.33,4584.63 6756,4893.5C 6709.81,5109.94 6642.81,5319.61 6555,5522.5C 6546.69,5541.1 6538.19,5559.6 6529.5,5578C 6572.86,5596.35 6614.86,5617.35 6655.5,5641C 6846.1,5757.31 6938.6,5927.81 6933,6152.5C 6929.39,6217.85 6917.05,6281.52 6896,6343.5C 6861.58,6441.02 6814.58,6531.68 6755,6615.5C 6738.67,6637.99 6722.17,6660.33 6705.5,6682.5 Z"/></g>
<g><path style="opacity:1" fill="#f63939" d="M 5789.5,1527.5 C 5799.85,1565.88 5810.68,1604.21 5822,1642.5C 5828.27,1672.43 5835.27,1702.1 5843,1731.5C 5847.25,1755.67 5851.91,1779.67 5857,1803.5C 5871.13,1889.5 5880.13,1976.17 5884,2063.5C 5886.62,2153.52 5882.29,2243.19 5871,2332.5C 5867.27,2349.32 5864.61,2366.32 5863,2383.5C 5856.03,2422.3 5847.37,2460.63 5837,2498.5C 5835.87,2500.34 5835.04,2502.34 5834.5,2504.5C 5833.68,2505.39 5832.68,2505.72 5831.5,2505.5C 5468.74,2486.28 5108.9,2510.28 4752,2577.5C 4751.5,2577.17 4751,2576.83 4750.5,2576.5C 4873.14,2282.07 5038.97,2015.4 5248,1776.5C 5295.85,1723.74 5345.69,1672.57 5397.5,1623C 5450.31,1574.29 5504.98,1527.96 5561.5,1484C 5609.55,1452 5660.22,1447.33 5713.5,1470C 5721.16,1473.83 5728.5,1478.16 5735.5,1483C 5753.66,1497.67 5771.66,1512.5 5789.5,1527.5 Z"/></g>
<g><path style="opacity:1" fill="#d72345" d="M 5789.5,1527.5 C 5909.62,1631.63 6018.62,1746.63 6116.5,1872.5C 6287.12,2094 6423.46,2335.67 6525.5,2597.5C 6296.43,2549.62 6065.1,2518.95 5831.5,2505.5C 5832.68,2505.72 5833.68,2505.39 5834.5,2504.5C 5835.04,2502.34 5835.87,2500.34 5837,2498.5C 5847.37,2460.63 5856.03,2422.3 5863,2383.5C 5864.61,2366.32 5867.27,2349.32 5871,2332.5C 5882.29,2243.19 5886.62,2153.52 5884,2063.5C 5880.13,1976.17 5871.13,1889.5 5857,1803.5C 5851.91,1779.67 5847.25,1755.67 5843,1731.5C 5835.27,1702.1 5828.27,1672.43 5822,1642.5C 5810.68,1604.21 5799.85,1565.88 5789.5,1527.5 Z"/></g>
<g><path style="opacity:1" fill="#fdc3c2" d="M 5503.5,1638.5 C 5514.84,1636.69 5521.68,1641.36 5524,1652.5C 5524.67,1661.5 5524.67,1670.5 5524,1679.5C 5520.7,1698.41 5516.36,1717.08 5511,1735.5C 5496.34,1778.87 5479.67,1821.54 5461,1863.5C 5415.56,1963.74 5362.89,2059.74 5303,2151.5C 5282.55,2180.73 5260.88,2209.07 5238,2236.5C 5222.69,2253.81 5205.52,2268.98 5186.5,2282C 5176.32,2288.17 5165.32,2290.84 5153.5,2290C 5143.58,2287.08 5136.41,2280.91 5132,2271.5C 5121.1,2251.39 5116.27,2229.89 5117.5,2207C 5117.84,2181.64 5121.67,2156.8 5129,2132.5C 5143.71,2086.38 5162.71,2042.04 5186,1999.5C 5240.44,1901.72 5306.44,1812.38 5384,1731.5C 5415.61,1699.2 5450.11,1670.7 5487.5,1646C 5492.81,1643.17 5498.15,1640.67 5503.5,1638.5 Z"/></g>
<g><path style="opacity:1" fill="#371a46" d="M 1423.5,1752.5 C 1530.11,1748.9 1614.95,1789.57 1678,1874.5C 1721.51,1936.21 1737.84,2004.54 1727,2079.5C 1717.64,2127.55 1696.64,2169.55 1664,2205.5C 1656.2,2214.3 1648.03,2222.8 1639.5,2231C 1610.79,2256.04 1581.79,2280.71 1552.5,2305C 1542.56,2313.94 1533.72,2323.77 1526,2334.5C 1524.88,2342.68 1526.88,2350.01 1532,2356.5C 1542.63,2369.47 1554.3,2381.47 1567,2392.5C 1586.47,2418.74 1587.47,2445.74 1570,2473.5C 1559.67,2486.5 1549.33,2499.5 1539,2512.5C 1533.12,2518.19 1526.62,2523.02 1519.5,2527C 1566.72,2550.55 1595.22,2588.39 1605,2640.5C 1613.22,2696.51 1597.39,2744.34 1557.5,2784C 1513.98,2819.46 1464.98,2829.79 1410.5,2815C 1360.6,2798.76 1327.76,2765.6 1312,2715.5C 1295.13,2654.55 1307.96,2601.05 1350.5,2555C 1374.3,2533.1 1402.3,2519.77 1434.5,2515C 1390.63,2491.47 1353.79,2459.64 1324,2419.5C 1272.78,2344.1 1272.78,2268.76 1324,2193.5C 1349.13,2162.04 1377.3,2133.54 1408.5,2108C 1442.06,2083.45 1473.56,2056.28 1503,2026.5C 1510.46,2017.92 1516.13,2008.25 1520,1997.5C 1524.2,1974.54 1514.7,1962.87 1491.5,1962.5C 1471.81,1963.78 1453.81,1969.95 1437.5,1981C 1417.96,1995.54 1399.29,2011.2 1381.5,2028C 1354.18,2050.11 1324.18,2054.44 1291.5,2041C 1253.49,2023.99 1226.65,1996.15 1211,1957.5C 1197.04,1912.89 1204.71,1872.55 1234,1836.5C 1263.53,1804.81 1299.03,1782.31 1340.5,1769C 1367.68,1760.33 1395.35,1754.83 1423.5,1752.5 Z"/></g>
<g><path style="opacity:1" fill="#fefefe" d="M 1423.5,1817.5 C 1518.24,1813.94 1589.74,1852.61 1638,1933.5C 1668.45,1989.57 1672.78,2047.57 1651,2107.5C 1641.06,2128.39 1628.4,2147.39 1613,2164.5C 1604.17,2173.33 1595.33,2182.17 1586.5,2191C 1561.83,2211.67 1537.17,2232.33 1512.5,2253C 1496.51,2266.32 1482.68,2281.49 1471,2298.5C 1460.99,2315.22 1457.66,2333.22 1461,2352.5C 1464.74,2371.3 1472.74,2387.97 1485,2402.5C 1495.14,2413.64 1505.64,2424.47 1516.5,2435C 1508.32,2446.66 1499.32,2457.5 1489.5,2467.5C 1438.29,2447.12 1397.79,2413.79 1368,2367.5C 1349.02,2333.38 1346.35,2298.05 1360,2261.5C 1370.81,2239.55 1384.81,2219.88 1402,2202.5C 1415.53,2189.3 1429.37,2176.47 1443.5,2164C 1468.68,2143.91 1493.68,2123.57 1518.5,2103C 1534.4,2089.1 1548.9,2073.93 1562,2057.5C 1580.09,2033.9 1588.09,2007.23 1586,1977.5C 1577.9,1930.35 1550.07,1903.85 1502.5,1898C 1468.65,1896.1 1437.32,1904.1 1408.5,1922C 1385.09,1937.4 1363.43,1955.06 1343.5,1975C 1338.75,1979.29 1333.25,1982.12 1327,1983.5C 1297.8,1975.3 1278.8,1956.64 1270,1927.5C 1266.95,1908.34 1271.95,1891.67 1285,1877.5C 1305.87,1856.66 1330.37,1841.49 1358.5,1832C 1379.88,1825.22 1401.54,1820.39 1423.5,1817.5 Z"/></g>
<g><path style="opacity:1" fill="#371a46" d="M 3375.5,6571.5 C 3374,6576.67 3373.67,6582.01 3374.5,6587.5C 3404.94,6600.63 3431.44,6619.3 3454,6643.5C 3498.83,6697.82 3506.16,6756.82 3476,6820.5C 3457.49,6855.34 3429.15,6878 3391,6888.5C 3357.18,6898.29 3322.68,6904.46 3287.5,6907C 3262.36,6908.7 3237.2,6909.53 3212,6909.5C 3095.84,6908.74 2979.67,6908.24 2863.5,6908C 2795.11,6893.28 2748.61,6853.12 2724,6787.5C 2717.78,6767.97 2713.78,6747.97 2712,6727.5C 2708.67,6688.9 2706.5,6650.23 2705.5,6611.5C 2704.86,6482.5 2704.36,6353.5 2704,6224.5C 2703.81,6148.79 2702.31,6073.13 2699.5,5997.5C 2695.8,5997.45 2692.14,5997.11 2688.5,5996.5C 2679.95,6200.23 2669.62,6403.9 2657.5,6607.5C 2654.2,6660.82 2649.36,6714.15 2643,6767.5C 2625.96,6837.87 2582.79,6883.71 2513.5,6905C 2507.55,6906.55 2501.55,6907.88 2495.5,6909C 2376.17,6909.67 2256.83,6909.67 2137.5,6909C 2093.53,6906.76 2052.53,6894.76 2014.5,6873C 1971.91,6843.68 1947.41,6803.18 1941,6751.5C 1939.34,6730.24 1940.84,6709.24 1945.5,6688.5C 1951.4,6666.03 1960.57,6645.03 1973,6625.5C 1970.6,6388.17 1967.77,6150.83 1964.5,5913.5C 1893.62,5899.45 1824.95,5878.28 1758.5,5850C 1722.07,5833.97 1688.41,5813.63 1657.5,5789C 1625.09,5760.56 1601.26,5726.06 1586,5685.5C 1567.84,5639.35 1553.51,5592.01 1543,5543.5C 1533.56,5490.99 1523.23,5438.66 1512,5386.5C 1500.16,5309.9 1495.99,5232.9 1499.5,5155.5C 1496.55,5052.38 1498.72,4949.38 1506,4846.5C 1509.1,4807.39 1513.26,4768.39 1518.5,4729.5C 1518.17,4728.5 1517.83,4727.5 1517.5,4726.5C 1374.33,4632.25 1278.83,4502.58 1231,4337.5C 1196.05,4210.79 1186.72,4082.12 1203,3951.5C 1210.71,3874.02 1225.71,3798.02 1248,3723.5C 1268.58,3658.07 1295.91,3595.74 1330,3536.5C 1361.12,3489.71 1399.96,3450.54 1446.5,3419C 1458.03,3411.3 1469.7,3403.8 1481.5,3396.5C 1481.83,3394.33 1482.17,3392.17 1482.5,3390C 1476.44,3324.48 1478.94,3259.31 1490,3194.5C 1495.73,3164.06 1506.73,3135.72 1523,3109.5C 1533.2,3094.3 1546.7,3083.14 1563.5,3076C 1580.72,3070.06 1597.72,3063.56 1614.5,3056.5C 1654.63,2745.37 1789.3,2484.2 2018.5,2273C 2239.76,2076.05 2499.42,1969.05 2797.5,1952C 3104.55,1940.81 3379.55,2027.81 3622.5,2213C 3812.1,2361.98 3948.6,2549.81 4032,2776.5C 4061.83,2786.83 4090.33,2800 4117.5,2816C 4146.65,2833.42 4165.81,2858.58 4175,2891.5C 4188.87,2938.92 4198.2,2987.26 4203,3036.5C 4214.9,3151.59 4214.23,3266.59 4201,3381.5C 4194.31,3432.26 4181.98,3481.59 4164,3529.5C 4151.11,3563.48 4131.61,3592.98 4105.5,3618C 4095.05,3625.56 4083.72,3631.56 4071.5,3636C 4055,3641.73 4038.33,3646.9 4021.5,3651.5C 3946.4,3842.45 3831.9,4005.45 3678,4140.5C 3677.33,4141.17 3677.33,4141.83 3678,4142.5C 3712.23,4176.98 3730.07,4218.65 3731.5,4267.5C 3801.83,4267.33 3872.17,4267.5 3942.5,4268C 3956.59,4270.09 3965.76,4277.92 3970,4291.5C 3970.83,4298.23 3970.5,4304.9 3969,4311.5C 3932.61,4421.9 3896.44,4532.4 3860.5,4643C 3863.81,4649.33 3868.31,4654.83 3874,4659.5C 3903.73,4698.33 3920.06,4742.33 3923,4791.5C 3924.01,4812.89 3923.34,4834.22 3921,4855.5C 3916.16,4887.9 3910.99,4920.23 3905.5,4952.5C 3913.04,4989.15 3918.21,5026.15 3921,5063.5C 3923.55,5113.17 3917.88,5161.84 3904,5209.5C 3885.65,5266.81 3853.49,5314.64 3807.5,5353C 3767.04,5381.04 3722.04,5395.71 3672.5,5397C 3653.63,5397.76 3634.79,5397.26 3616,5395.5C 3614.89,5395.59 3613.89,5395.92 3613,5396.5C 3608.64,5405.86 3601.47,5412.02 3591.5,5415C 3574.49,5415.17 3557.49,5415.67 3540.5,5416.5C 3535.65,5425.85 3529.81,5434.52 3523,5442.5C 3515.15,5495.55 3501.82,5547.22 3483,5597.5C 3452.44,5922.87 3416.61,6247.53 3375.5,6571.5 Z"/></g>
<g><path style="opacity:1" fill="#fefdfe" d="M 2819.5,2016.5 C 2947.44,2013.42 3072.77,2029.92 3195.5,2066C 2994.11,2034.85 2795.44,2047.19 2599.5,2103C 2346.62,2178.28 2136.46,2317.11 1969,2519.5C 1852.46,2662.93 1774.63,2825.6 1735.5,3007.5C 1719.52,3014.94 1703.19,3021.61 1686.5,3027.5C 1705.57,2892.13 1747.4,2764.13 1812,2643.5C 1948.88,2393.63 2148.71,2213.46 2411.5,2103C 2542.49,2050.23 2678.49,2021.39 2819.5,2016.5 Z"/></g>
<g><path style="opacity:1" fill="#fefefe" d="M 3800.5,2487.5 C 3798.24,2501.45 3795.24,2515.11 3791.5,2528.5C 3609.47,2346.65 3390.14,2237.82 3133.5,2202C 2883.69,2170.63 2647.35,2212.96 2424.5,2329C 2244.24,2425.93 2101.74,2562.43 1997,2738.5C 1945.06,2828.05 1907.9,2923.38 1885.5,3024.5C 1880.68,3044.62 1877.01,3064.95 1874.5,3085.5C 1873.12,3086.71 1871.95,3086.37 1871,3084.5C 1856.41,3060.24 1837.91,3039.41 1815.5,3022C 1811.08,3019.04 1806.58,3016.21 1802,3013.5C 1825.29,2902.58 1865.63,2798.25 1923,2700.5C 2038.11,2509.05 2194.28,2361.21 2391.5,2257C 2623.14,2138.61 2868.47,2093.95 3127.5,2123C 3294.29,2142.93 3450.63,2194.27 3596.5,2277C 3673.6,2338.6 3741.6,2408.76 3800.5,2487.5 Z"/></g>
<g><path style="opacity:1" fill="#9b8ca1" d="M 3074.5,2366.5 C 3131.08,2365.46 3187.41,2368.62 3243.5,2376C 3331.79,2391.34 3412.79,2424.01 3486.5,2474C 3552.82,2519.97 3611.99,2574.14 3664,2636.5C 3725.86,2711.51 3778.19,2792.84 3821,2880.5C 3846.01,2939.2 3862.68,3000.2 3871,3063.5C 3880.1,3152.39 3869.1,3238.72 3838,3322.5C 3825.2,3355.76 3810.54,3388.09 3794,3419.5C 3792,3368.53 3785.34,3318.2 3774,3268.5C 3749.34,3160.48 3713.34,3056.48 3666,2956.5C 3636.69,2899.18 3602.35,2845.18 3563,2794.5C 3501.85,2723.83 3427.35,2672.33 3339.5,2640C 3231.85,2599.59 3120.52,2576.92 3005.5,2572C 2821.74,2563.89 2641.24,2584.06 2464,2632.5C 2463.23,2632.36 2462.56,2632.02 2462,2631.5C 2461.33,2629.5 2461.33,2627.5 2462,2625.5C 2465.5,2619.16 2469.5,2613.16 2474,2607.5C 2510.1,2571.05 2549.93,2539.55 2593.5,2513C 2741.27,2423.47 2901.6,2374.63 3074.5,2366.5 Z"/></g>
<g><path style="opacity:1" fill="#d7d6d7" d="M 3800.5,2487.5 C 3854.52,2558.16 3899.35,2634.5 3935,2716.5C 3894.19,2648.59 3846.36,2585.92 3791.5,2528.5C 3795.24,2515.11 3798.24,2501.45 3800.5,2487.5 Z"/></g>
<g><path style="opacity:1" fill="#fefefe" d="M 4964.5,4311.5 C 4966.08,4424.79 4978.58,4536.79 5002,4647.5C 5028.79,4767.04 5073.79,4879.04 5137,4983.5C 5158.83,5017.16 5180.17,5051.16 5201,5085.5C 5213.91,5108.49 5221.25,5133.16 5223,5159.5C 5227.96,5200.78 5219.96,5239.12 5199,5274.5C 5177.04,5304.59 5147.87,5324.42 5111.5,5334C 5074.25,5342.26 5036.92,5342.59 4999.5,5335C 4944.99,5322.4 4894.33,5301.07 4847.5,5271C 4811.12,5246.95 4776.78,5220.28 4744.5,5191C 4684.01,5131.96 4631.18,5066.46 4586,4994.5C 4572.81,4972.1 4559.64,4949.77 4546.5,4927.5C 4479.12,4604.67 4451.62,4278.33 4464,3948.5C 4470.85,3741.93 4492.19,3536.93 4528,3333.5C 4569.19,3100.94 4632.52,2874.61 4718,2654.5C 4719.87,2650.64 4723.04,2648.8 4727.5,2649C 5033.9,2589.02 5343.23,2561.18 5655.5,2565.5C 5655.5,2855.17 5655.5,3144.83 5655.5,3434.5C 5442.73,3431.01 5263.9,3506.35 5119,3660.5C 4973.18,3827.34 4916.51,4021 4949,4241.5C 4953.42,4265.04 4958.59,4288.37 4964.5,4311.5 Z"/></g>
<g><path style="opacity:1" fill="#fefefe" d="M 5770.5,2568.5 C 5781.33,2569.49 5792.33,2570.16 5803.5,2570.5C 6057.01,2582.8 6307.51,2616.8 6555,2672.5C 6627.05,2871.37 6681.38,3075.04 6718,3283.5C 6769.45,3586.72 6789.12,3892.05 6777,4199.5C 6767.63,4443.16 6736.13,4683.82 6682.5,4921.5C 6659.11,4963.28 6633.95,5003.94 6607,5043.5C 6580.49,5080.81 6551.83,5116.48 6521,5150.5C 6472.97,5201.91 6419.13,5245.74 6359.5,5282C 6313.84,5309 6264.84,5327.33 6212.5,5337C 6170.4,5344.74 6129.4,5341.07 6089.5,5326C 6043.1,5305.08 6014.94,5269.58 6005,5219.5C 5998.51,5181.36 6001.51,5144.02 6014,5107.5C 6018.28,5097.99 6022.95,5088.66 6028,5079.5C 6046.85,5048.46 6066.18,5017.8 6086,4987.5C 6157.86,4869.96 6206.52,4743.29 6232,4607.5C 6243.45,4545.26 6251.61,4482.59 6256.5,4419.5C 6327.87,4262.24 6340.7,4100.24 6295,3933.5C 6238.45,3748.96 6125.95,3609.79 5957.5,3516C 5883.17,3476.28 5804.17,3451.11 5720.5,3440.5C 5720.5,3149.5 5720.5,2858.5 5720.5,2567.5C 5737.17,2567.88 5753.83,2568.22 5770.5,2568.5 Z"/></g>
<g><path style="opacity:1" fill="#55415f" d="M 5770.5,2568.5 C 5779.84,2568.33 5789.17,2568.5 5798.5,2569C 5800.38,2569.2 5802.05,2569.7 5803.5,2570.5C 5792.33,2570.16 5781.33,2569.49 5770.5,2568.5 Z"/></g>
<g><path style="opacity:1" fill="#fefefe" d="M 1440.5,2579.5 C 1484.26,2575.12 1515.76,2592.45 1535,2631.5C 1547.34,2666.13 1542.67,2698.13 1521,2727.5C 1493.75,2755.02 1461.58,2762.85 1424.5,2751C 1388.01,2734.89 1370.01,2706.72 1370.5,2666.5C 1371.02,2626.93 1389.35,2599.43 1425.5,2584C 1430.6,2582.42 1435.6,2580.92 1440.5,2579.5 Z"/></g>
<g><path style="opacity:1" fill="#371b46" d="M 5802.5,2638.5 C 5827.78,2637.45 5839.28,2649.45 5837,2674.5C 5831.64,2690.51 5820.47,2697.67 5803.5,2696C 5791.78,2693.28 5784.28,2686.11 5781,2674.5C 5778.19,2656.43 5785.36,2644.43 5802.5,2638.5 Z"/></g>
<g><path style="opacity:1" fill="#fdfdfd" d="M 4142.5,3311.5 C 4130.46,3321.77 4116.63,3328.44 4101,3331.5C 4100.52,3330.55 4100.35,3329.55 4100.5,3328.5C 4114.85,3168.66 4100.85,3011.66 4058.5,2857.5C 4071.83,2863.49 4084.17,2870.99 4095.5,2880C 4105.35,2891.53 4112.18,2904.69 4116,2919.5C 4128.1,2964.77 4136.1,3010.77 4140,3057.5C 4147.64,3142.25 4148.48,3226.92 4142.5,3311.5 Z"/></g>
<g><path style="opacity:1" fill="#371b46" d="M 5803.5,3005.5 C 5827.7,3005.53 5838.87,3017.53 5837,3041.5C 5831.41,3058.72 5819.58,3065.89 5801.5,3063C 5781.43,3054.34 5775.59,3039.84 5784,3019.5C 5789.01,3012.64 5795.51,3007.97 5803.5,3005.5 Z"/></g>
<g><path style="opacity:1" fill="#23102e" d="M 1885.5,3024.5 C 1892.33,3069.02 1901.33,3113.19 1912.5,3157C 1912.33,3157.83 1912.17,3158.67 1912,3159.5C 1911.15,3156.44 1909.65,3153.77 1907.5,3151.5C 1902.77,3140.8 1898.1,3130.13 1893.5,3119.5C 1892.5,3119.5 1891.5,3119.5 1890.5,3119.5C 1889.37,3114.23 1887.37,3109.23 1884.5,3104.5C 1883.68,3103.61 1882.68,3103.28 1881.5,3103.5C 1880.61,3098.57 1878.44,3094.24 1875,3090.5C 1874.51,3088.87 1874.34,3087.2 1874.5,3085.5C 1877.01,3064.95 1880.68,3044.62 1885.5,3024.5 Z"/></g>
<g><path style="opacity:1" fill="#9b8ca1" d="M 2242.5,3060.5 C 2304.49,3058.91 2353.32,3083.24 2389,3133.5C 2433.45,3203.35 2438.45,3276.02 2404,3351.5C 2379.54,3398.97 2341.38,3428.8 2289.5,3441C 2235.13,3448.71 2188.63,3433.21 2150,3394.5C 2115.74,3357.29 2096.74,3313.29 2093,3262.5C 2089.14,3196.36 2111.31,3140.86 2159.5,3096C 2183.91,3076.46 2211.58,3064.62 2242.5,3060.5 Z"/></g>
<g><path style="opacity:1" fill="#fefefe" d="M 1925.5,3447.5 C 1919.31,3466.55 1908.97,3483.05 1894.5,3497C 1883.79,3505.87 1871.79,3507.87 1858.5,3503C 1857.24,3502.58 1856.58,3501.75 1856.5,3500.5C 1875.92,3467.64 1878.75,3433.3 1865,3397.5C 1851.03,3368.19 1829.19,3347.03 1799.5,3334C 1789.86,3330.73 1780.2,3327.57 1770.5,3324.5C 1753.76,3265.1 1729.93,3208.76 1699,3155.5C 1688.79,3139.09 1677.12,3123.76 1664,3109.5C 1663.38,3108.55 1663.55,3107.72 1664.5,3107C 1696.99,3093.67 1729.66,3080.84 1762.5,3068.5C 1769.97,3070.47 1776.63,3073.97 1782.5,3079C 1800.73,3096.56 1815.9,3116.39 1828,3138.5C 1855.49,3189.81 1877.15,3243.48 1893,3299.5C 1906.83,3348.17 1917.67,3397.5 1925.5,3447.5 Z"/></g>
<g><path style="opacity:1" fill="#fefdfe" d="M 1586.5,3136.5 C 1595.4,3137.28 1603.06,3140.78 1609.5,3147C 1629.23,3167.29 1645.4,3190.12 1658,3215.5C 1675.52,3249.87 1689.69,3285.53 1700.5,3322.5C 1646.67,3326.79 1595.34,3340.46 1546.5,3363.5C 1545.19,3330.16 1545.35,3296.83 1547,3263.5C 1549.1,3228 1556.43,3193.67 1569,3160.5C 1572.8,3150.89 1578.63,3142.89 1586.5,3136.5 Z"/></g>
<g><path style="opacity:1" fill="#c4bcc9" d="M 4142.5,3311.5 C 4139.44,3371.52 4128.94,3430.19 4111,3487.5C 4101.42,3518.18 4085.59,3545.01 4063.5,3568C 4059.28,3571.28 4054.61,3573.78 4049.5,3575.5C 4049.17,3575 4048.83,3574.5 4048.5,3574C 4073.21,3493.6 4090.55,3411.76 4100.5,3328.5C 4100.35,3329.55 4100.52,3330.55 4101,3331.5C 4116.63,3328.44 4130.46,3321.77 4142.5,3311.5 Z"/></g>
<g><path style="opacity:1" fill="#220f2d" d="M 2220.5,3666.5 C 2229.09,3699.27 2250.09,3717.94 2283.5,3722.5C 2283.5,3723.5 2283.5,3724.5 2283.5,3725.5C 2287.58,3726 2290.58,3728 2292.5,3731.5C 2297.39,3735.43 2302.39,3739.27 2307.5,3743C 2308.79,3743.49 2310.13,3743.66 2311.5,3743.5C 2311.5,3744.5 2311.5,3745.5 2311.5,3746.5C 2314,3746.98 2316.34,3747.98 2318.5,3749.5C 2324.39,3754.78 2330.39,3759.95 2336.5,3765C 2345.64,3770.28 2354.31,3776.28 2362.5,3783C 2364.13,3783.49 2365.8,3783.66 2367.5,3783.5C 2367.28,3784.68 2367.61,3785.68 2368.5,3786.5C 2372.05,3788.77 2375.38,3791.27 2378.5,3794C 2383.15,3795.66 2387.48,3797.82 2391.5,3800.5C 2396.04,3804.98 2401.38,3807.98 2407.5,3809.5C 2407.33,3810.82 2407.66,3811.99 2408.5,3813C 2413.27,3815.26 2417.94,3817.76 2422.5,3820.5C 2423.39,3821.32 2423.72,3822.32 2423.5,3823.5C 2426.7,3824.83 2430.04,3826 2433.5,3827C 2437.6,3830.55 2442.27,3832.72 2447.5,3833.5C 2447.28,3834.68 2447.61,3835.68 2448.5,3836.5C 2489.49,3858.33 2531.16,3878.83 2573.5,3898C 2598.32,3907.38 2622.99,3916.88 2647.5,3926.5C 2650.09,3927.48 2652.75,3927.81 2655.5,3927.5C 2655.5,3928.5 2655.5,3929.5 2655.5,3930.5C 2658.19,3930.34 2660.85,3930.5 2663.5,3931C 2696.12,3943.15 2729.45,3952.65 2763.5,3959.5C 2780.35,3965.31 2797.68,3968.98 2815.5,3970.5C 2815.35,3971.55 2815.52,3972.55 2816,3973.5C 2816.33,3973.17 2816.67,3972.83 2817,3972.5C 3052.67,4016.42 3282.51,3997.92 3506.5,3917C 3514.38,3912.85 3522.71,3909.85 3531.5,3908C 3549.05,3899.3 3567.05,3891.63 3585.5,3885C 3587,3883.89 3588.67,3883.05 3590.5,3882.5C 3591.39,3881.68 3591.72,3880.68 3591.5,3879.5C 3596.65,3879.75 3600.98,3878.08 3604.5,3874.5C 3607.9,3872.43 3611.57,3871.1 3615.5,3870.5C 3617.48,3869.78 3619.15,3868.62 3620.5,3867C 3621.78,3866.32 3622.95,3866.48 3624,3867.5C 3628.08,3864.54 3632.25,3861.71 3636.5,3859C 3652.91,3851.77 3668.91,3843.77 3684.5,3835C 3693.34,3827.13 3703.34,3821.46 3714.5,3818C 3716,3814.64 3718.67,3812.81 3722.5,3812.5C 3725.93,3808.47 3730.26,3806.14 3735.5,3805.5C 3735.28,3804.32 3735.61,3803.32 3736.5,3802.5C 3752.15,3793.34 3767.15,3783.17 3781.5,3772C 3784.78,3770.19 3788.11,3768.69 3791.5,3767.5C 3791.28,3766.32 3791.61,3765.32 3792.5,3764.5C 3808.3,3753.62 3823.63,3742.29 3838.5,3730.5C 3839.39,3729.68 3839.72,3728.68 3839.5,3727.5C 3840.87,3727.66 3842.21,3727.49 3843.5,3727C 3849.52,3722.31 3855.19,3717.31 3860.5,3712C 3864.58,3710.28 3868.25,3708.11 3871.5,3705.5C 3871.5,3704.5 3871.5,3703.5 3871.5,3702.5C 3872.55,3702.65 3873.55,3702.48 3874.5,3702C 3878.31,3697.64 3882.48,3693.81 3887,3690.5C 3887.48,3689.55 3887.65,3688.55 3887.5,3687.5C 3892.84,3684.36 3897.84,3680.53 3902.5,3676C 3903.5,3675.67 3904.5,3675.33 3905.5,3675C 3917.5,3663.67 3929.17,3652 3940.5,3640C 3941.45,3639.52 3942.45,3639.35 3943.5,3639.5C 3948.68,3630.82 3955.51,3623.48 3964,3617.5C 3964.33,3616.17 3964.67,3614.83 3965,3613.5C 3971.7,3606.83 3978.7,3600.49 3986,3594.5C 3987.7,3590.67 3989.54,3587 3991.5,3583.5C 3992.68,3583.72 3993.68,3583.39 3994.5,3582.5C 3998.92,3577.76 4002.92,3572.76 4006.5,3567.5C 4006.83,3568.17 4007.17,3568.83 4007.5,3569.5C 4000.1,3589.64 3991.6,3609.3 3982,3628.5C 3981.31,3633.54 3979.31,3637.88 3976,3641.5C 3975.5,3643.47 3975.34,3645.47 3975.5,3647.5C 3974.18,3647.33 3973.01,3647.66 3972,3648.5C 3969.73,3653.25 3968.23,3658.25 3967.5,3663.5C 3966.18,3663.33 3965.01,3663.66 3964,3664.5C 3953.84,3687.04 3941.84,3708.71 3928,3729.5C 3927.5,3731.47 3927.34,3733.47 3927.5,3735.5C 3925.09,3735.92 3923.26,3737.25 3922,3739.5C 3915.61,3749.87 3909.28,3760.2 3903,3770.5C 3902,3771.17 3901,3771.83 3900,3772.5C 3898.09,3776.12 3896.59,3779.79 3895.5,3783.5C 3891.55,3785.65 3888.71,3788.99 3887,3793.5C 3883.9,3797.36 3880.57,3801.02 3877,3804.5C 3870.09,3816.5 3861.76,3827.5 3852,3837.5C 3849.34,3841.34 3846.84,3845.34 3844.5,3849.5C 3764.16,3946.21 3670.49,4026.88 3563.5,4091.5C 3537.9,4090.85 3512.74,4093.85 3488,4100.5C 3487.67,4100.17 3487.33,4099.83 3487,4099.5C 3485.42,4101.04 3483.59,4102.21 3481.5,4103C 3474.99,4104.29 3468.99,4106.79 3463.5,4110.5C 3457.24,4112.2 3451.24,4114.36 3445.5,4117C 3426.05,4128.75 3407.38,4141.75 3389.5,4156C 3380.98,4165.52 3372.14,4174.69 3363,4183.5C 3362.63,4185.45 3361.8,4187.12 3360.5,4188.5C 3149.69,4262.95 2934.69,4277.79 2715.5,4233C 2479.03,4181.53 2279.53,4067.36 2117,3890.5C 2074.18,3841.85 2036.02,3789.85 2002.5,3734.5C 2004.03,3711.03 2005.53,3687.36 2007,3663.5C 2008.76,3597.42 2004.93,3532.09 1995.5,3467.5C 1987.44,3409.59 1975.44,3352.59 1959.5,3296.5C 1959.85,3295.3 1960.35,3295.3 1961,3296.5C 1964.05,3304.27 1967.38,3311.94 1971,3319.5C 1973.92,3327.67 1977.09,3335.67 1980.5,3343.5C 1981.5,3343.5 1982.5,3343.5 1983.5,3343.5C 1983.17,3349.17 1984.84,3354.17 1988.5,3358.5C 1989.32,3359.39 1990.32,3359.72 1991.5,3359.5C 1991.17,3365.17 1992.84,3370.17 1996.5,3374.5C 1997.32,3375.39 1998.32,3375.72 1999.5,3375.5C 2008.59,3397.45 2020.09,3418.11 2034,3437.5C 2035.12,3443.09 2037.45,3447.42 2041,3450.5C 2042.71,3455.25 2044.88,3459.59 2047.5,3463.5C 2048.82,3463.33 2049.99,3463.66 2051,3464.5C 2054.29,3470.08 2057.29,3475.75 2060,3481.5C 2062.46,3482.76 2063.63,3484.76 2063.5,3487.5C 2064.5,3487.5 2065.5,3487.5 2066.5,3487.5C 2066.35,3488.55 2066.52,3489.55 2067,3490.5C 2079.13,3506.12 2090.63,3522.12 2101.5,3538.5C 2105.87,3540.01 2107.54,3542.84 2106.5,3547C 2107.5,3547.33 2108.5,3547.67 2109.5,3548C 2114.63,3553.8 2119.8,3559.63 2125,3565.5C 2129.53,3572.56 2134.53,3579.23 2140,3585.5C 2141.83,3587.08 2143.83,3588.41 2146,3589.5C 2147.31,3593.26 2149.15,3596.6 2151.5,3599.5C 2152.83,3599.5 2154.17,3599.5 2155.5,3599.5C 2155.34,3600.87 2155.51,3602.21 2156,3603.5C 2158.14,3605.43 2160.47,3607.1 2163,3608.5C 2163.33,3609.5 2163.67,3610.5 2164,3611.5C 2171.67,3620.34 2179.84,3628.67 2188.5,3636.5C 2189.39,3637.32 2189.72,3638.32 2189.5,3639.5C 2194.89,3643.38 2199.89,3647.88 2204.5,3653C 2205.45,3653.48 2206.45,3653.65 2207.5,3653.5C 2207.5,3654.83 2207.5,3656.17 2207.5,3657.5C 2208.55,3657.35 2209.55,3657.52 2210.5,3658C 2212.59,3660.11 2214.59,3662.28 2216.5,3664.5C 2217.77,3665.36 2219.1,3666.03 2220.5,3666.5 Z"/></g>
<g><path style="opacity:1" fill="#371b46" d="M 5802.5,3373.5 C 5819.08,3371.54 5830.58,3378.2 5837,3393.5C 5839.67,3419.16 5828.17,3431.66 5802.5,3431C 5787.1,3425.61 5779.6,3414.77 5780,3398.5C 5782.83,3385.84 5790.33,3377.51 5802.5,3373.5 Z"/></g>
<g><path style="opacity:1" fill="#fefefe" d="M 1658.5,4645.5 C 1522.27,4583.14 1410.77,4490.48 1324,4367.5C 1314.97,4352.76 1305.47,4338.42 1295.5,4324.5C 1269.23,4234.42 1258.4,4142.42 1263,4048.5C 1264.9,3968.19 1274.56,3888.85 1292,3810.5C 1311.71,3725.78 1343.04,3645.78 1386,3570.5C 1406.96,3539.2 1432.46,3512.04 1462.5,3489C 1521.94,3441.78 1588.94,3409.78 1663.5,3393C 1695.02,3386.99 1726.69,3385.99 1758.5,3390C 1784.33,3393.98 1800.83,3408.48 1808,3433.5C 1809.82,3448.89 1805.49,3462.22 1795,3473.5C 1779.63,3488.44 1762.13,3500.27 1742.5,3509C 1727.17,3521.65 1722.34,3537.49 1728,3556.5C 1757.31,3605.77 1777.98,3658.43 1790,3714.5C 1799.48,3764.12 1799.81,3813.79 1791,3863.5C 1782.28,3908.79 1759.12,3944.62 1721.5,3971C 1705.28,3981.95 1688.28,3991.61 1670.5,4000C 1664.73,4008.84 1665.39,4017.17 1672.5,4025C 1676.72,4028.11 1681.39,4029.11 1686.5,4028C 1715.88,4020.81 1743.22,4008.97 1768.5,3992.5C 1787.49,4055.98 1806.99,4119.32 1827,4182.5C 1829.02,4277.03 1815.02,4369.03 1785,4458.5C 1762.95,4522.81 1728.11,4578.98 1680.5,4627C 1673.59,4633.75 1666.25,4639.92 1658.5,4645.5 Z"/></g>
<g><path style="opacity:1" fill="#c4bcc9" d="M 1925.5,3447.5 C 1941.78,3536.81 1945.94,3626.81 1938,3717.5C 1934.91,3748.43 1927.91,3778.43 1917,3807.5C 1912.87,3816.94 1907.37,3825.44 1900.5,3833C 1898.83,3834 1897.17,3835 1895.5,3836C 1883.15,3836.83 1870.82,3836.67 1858.5,3835.5C 1867.63,3774.82 1863.13,3715.16 1845,3656.5C 1837.05,3631.61 1827.72,3607.28 1817,3583.5C 1815.82,3570.15 1814.82,3556.82 1814,3543.5C 1830.4,3531.27 1844.57,3516.93 1856.5,3500.5C 1856.58,3501.75 1857.24,3502.58 1858.5,3503C 1871.79,3507.87 1883.79,3505.87 1894.5,3497C 1908.97,3483.05 1919.31,3466.55 1925.5,3447.5 Z"/></g>
<g><path style="opacity:1" fill="#ededed" d="M 6174.5,3816.5 C 6174.61,3818.38 6174.11,3818.71 6173,3817.5C 6086.91,3703.94 5975.74,3624.44 5839.5,3579C 5663.01,3525.44 5491.67,3538.44 5325.5,3618C 5230.46,3667.28 5150.46,3734.11 5085.5,3818.5C 5163.91,3682.6 5276.91,3587.77 5424.5,3534C 5576.38,3483.52 5726.38,3488.52 5874.5,3549C 6003.87,3605.2 6103.87,3694.37 6174.5,3816.5 Z"/></g>
<g><path style="opacity:1" fill="#c5c5c5" d="M 6174.5,3816.5 C 6244.19,3940.82 6269.35,4073.82 6250,4215.5C 6243.23,4259.25 6232.4,4301.92 6217.5,4343.5C 6194.63,4355.71 6170.3,4360.54 6144.5,4358C 6127.66,4354.67 6114.16,4346.17 6104,4332.5C 6094.58,4319.42 6087.75,4305.09 6083.5,4289.5C 6132.98,4146.92 6122.15,4009.25 6051,3876.5C 5972.17,3743.27 5856.34,3662.11 5703.5,3633C 5549.77,3610.93 5414.1,3649.93 5296.5,3750C 5174.3,3863.32 5120.14,4003.49 5134,4170.5C 5138.25,4209.17 5146.75,4246.84 5159.5,4283.5C 5155.18,4303.15 5146.85,4320.81 5134.5,4336.5C 5115.66,4355.4 5093,4362.57 5066.5,4358C 5060.06,4356.91 5053.72,4355.41 5047.5,4353.5C 5024.05,4293.69 5010.38,4231.69 5006.5,4167.5C 5006.05,4143.84 5005.71,4120.17 5005.5,4096.5C 5009.82,3997.19 5036.49,3904.52 5085.5,3818.5C 5150.46,3734.11 5230.46,3667.28 5325.5,3618C 5491.67,3538.44 5663.01,3525.44 5839.5,3579C 5975.74,3624.44 6086.91,3703.94 6173,3817.5C 6174.11,3818.71 6174.61,3818.38 6174.5,3816.5 Z"/></g>
<g><path style="opacity:1" fill="#9b8ca1" d="M 2283.5,3722.5 C 2250.09,3717.94 2229.09,3699.27 2220.5,3666.5C 2212.14,3632.44 2220.47,3603.27 2245.5,3579C 2272.24,3558.73 2299.24,3558.4 2326.5,3578C 2356.95,3608.18 2363.45,3643.01 2346,3682.5C 2332.84,3707.83 2312,3721.16 2283.5,3722.5 Z"/></g>
<g><path style="opacity:1" fill="#371a45" d="M 6083.5,4289.5 C 6029.58,4425.92 5934.58,4521.75 5798.5,4577C 5652.24,4629.61 5511.24,4618.28 5375.5,4543C 5273.25,4481.67 5201.25,4395.17 5159.5,4283.5C 5146.75,4246.84 5138.25,4209.17 5134,4170.5C 5120.14,4003.49 5174.3,3863.32 5296.5,3750C 5414.1,3649.93 5549.77,3610.93 5703.5,3633C 5856.34,3662.11 5972.17,3743.27 6051,3876.5C 6122.15,4009.25 6132.98,4146.92 6083.5,4289.5 Z"/></g>
<g><path style="opacity:1" fill="#888888" d="M 5590.5,3692.5 C 5743.68,3686.46 5867.84,3742.8 5963,3861.5C 6041.24,3970.19 6065.57,4090.19 6036,4221.5C 6006.26,4331.89 5943.42,4418.06 5847.5,4480C 5731.7,4548.29 5609.7,4561.62 5481.5,4520C 5372.41,4479.58 5291.58,4407.42 5239,4303.5C 5184.52,4184.69 5182.52,4065.02 5233,3944.5C 5282.62,3838.88 5361.46,3764.04 5469.5,3720C 5508.72,3705.76 5549.05,3696.59 5590.5,3692.5 Z"/></g>
<g><path style="opacity:1" fill="#d7d7d7" d="M 2002.5,3734.5 C 2036.02,3789.85 2074.18,3841.85 2117,3890.5C 2279.53,4067.36 2479.03,4181.53 2715.5,4233C 2934.69,4277.79 3149.69,4262.95 3360.5,4188.5C 3342.21,4212.16 3328.54,4238.33 3319.5,4267C 3216.83,4267.33 3114.17,4267.67 3011.5,4268C 3000.65,4270.85 2992.81,4277.35 2988,4287.5C 2982.73,4303.14 2977.56,4318.81 2972.5,4334.5C 2716.4,4337.29 2481.73,4268.45 2268.5,4128C 2152.65,4049.65 2053.98,3953.48 1972.5,3839.5C 1981.61,3820.34 1988.44,3800.34 1993,3779.5C 1995.76,3764.25 1998.92,3749.25 2002.5,3734.5 Z"/></g>
<g><path style="opacity:1" fill="#371a46" d="M 5605.5,3745.5 C 5732.47,3743.76 5835.97,3791.42 5916,3888.5C 5985.68,3981.31 6009.01,4084.98 5986,4199.5C 5960.8,4302.65 5903.3,4382.15 5813.5,4438C 5723.24,4489.57 5627.58,4502.91 5526.5,4478C 5414.33,4445.48 5333.16,4376.64 5283,4271.5C 5243.72,4179.58 5240.06,4086.25 5272,3991.5C 5313.89,3883.28 5389.06,3808.44 5497.5,3767C 5532.66,3754.87 5568.66,3747.7 5605.5,3745.5 Z"/></g>
<g><path style="opacity:1" fill="#23a6f0" d="M 5607.5,3811.5 C 5721.28,3809.64 5811.12,3854.64 5877,3946.5C 5928.77,4027.53 5941.77,4114.53 5916,4207.5C 5887.84,4292.31 5834.01,4354.81 5754.5,4395C 5664.01,4435.18 5574.01,4434.18 5484.5,4392C 5385.77,4338.45 5329.94,4255.62 5317,4143.5C 5311.29,4033.11 5351.13,3943.28 5436.5,3874C 5487.23,3836.26 5544.23,3815.42 5607.5,3811.5 Z"/></g>
<g><path style="opacity:1" fill="#bbe4fa" d="M 5591.5,3848.5 C 5607.5,3848.33 5623.5,3848.5 5639.5,3849C 5655.24,3850.27 5669.57,3855.27 5682.5,3864C 5690.2,3878.57 5687.53,3891.24 5674.5,3902C 5670.83,3904.33 5667.17,3906.67 5663.5,3909C 5635.97,3920.1 5608.63,3931.76 5581.5,3944C 5544.03,3963.47 5510.53,3988.31 5481,4018.5C 5461.12,4040.61 5441.95,4063.28 5423.5,4086.5C 5415.71,4094.79 5407.71,4102.96 5399.5,4111C 5378.01,4127.5 5365.51,4122.34 5362,4095.5C 5361.77,4069.16 5366.77,4043.83 5377,4019.5C 5402.53,3956.97 5444.7,3909.14 5503.5,3876C 5531.39,3862.09 5560.72,3852.93 5591.5,3848.5 Z"/></g>
<g><path style="opacity:1" fill="#d6d5d6" d="M 1928.5,3891.5 C 2078.77,4091.87 2271.77,4235.37 2507.5,4322C 2556.24,4339.81 2605.9,4354.48 2656.5,4366C 2471.07,4333.69 2303.07,4262.02 2152.5,4151C 2057.5,4080 1974.5,3997 1903.5,3902C 1910.19,3899.88 1916.85,3897.55 1923.5,3895C 1925.35,3893.97 1927.01,3892.8 1928.5,3891.5 Z"/></g>
<g><path style="opacity:1" fill="#ccecfe" d="M 1833.5,3918.5 C 1868.02,3965.79 1905.18,4011.12 1945,4054.5C 1985.76,4097.28 2028.93,4137.11 2074.5,4174C 2004.57,4152.47 1936.07,4126.97 1869,4097.5C 1852.96,4045.06 1837.13,3992.56 1821.5,3940C 1825.27,3932.73 1829.27,3925.56 1833.5,3918.5 Z"/></g>
<g><path style="opacity:1" fill="#d6d6d7" d="M 3844.5,3849.5 C 3782.05,3945.48 3706.55,4030.48 3618,4104.5C 3600.13,4098.36 3581.96,4094.03 3563.5,4091.5C 3670.49,4026.88 3764.16,3946.21 3844.5,3849.5 Z"/></g>
<g><path style="opacity:1" fill="#a9a0ad" d="M 5005.5,4096.5 C 5005.71,4120.17 5006.05,4143.84 5006.5,4167.5C 5005,4153.53 5004.33,4139.36 5004.5,4125C 5004.5,4115.33 5004.83,4105.83 5005.5,4096.5 Z"/></g>
<g><path style="opacity:1" fill="#bbe4fa" d="M 5383.5,4150.5 C 5398.89,4149.69 5412.56,4154.19 5424.5,4164C 5431.64,4170.13 5438.47,4176.63 5445,4183.5C 5455.99,4196.82 5467.32,4209.82 5479,4222.5C 5485.88,4231.31 5489.72,4241.31 5490.5,4252.5C 5488.34,4271.83 5477.67,4283.33 5458.5,4287C 5435.55,4288.85 5415.55,4282.18 5398.5,4267C 5377.74,4248.99 5364.57,4226.49 5359,4199.5C 5358.33,4191.5 5358.33,4183.5 5359,4175.5C 5362.42,4162.4 5370.58,4154.07 5383.5,4150.5 Z"/></g>
<g><path style="opacity:1" fill="#f3f1f3" d="M 3660.5,4236.5 C 3660.85,4238.87 3661.02,4241.2 3661,4243.5C 3637.25,4208.68 3604.41,4187.51 3562.5,4180C 3518.95,4173.65 3478.11,4181.15 3440,4202.5C 3439.54,4201.91 3439.37,4201.24 3439.5,4200.5C 3480.97,4163.96 3528.97,4151.13 3583.5,4162C 3622.81,4172.81 3648.48,4197.64 3660.5,4236.5 Z"/></g>
<g><path style="opacity:1" fill="#fefefe" d="M 2098.5,4251.5 C 2129.81,4293.98 2165.48,4332.48 2205.5,4367C 2334.97,4476.71 2484.31,4543.71 2653.5,4568C 2733.68,4579.31 2814.02,4580.48 2894.5,4571.5C 2842.17,4733 2789.33,4894.33 2736,5055.5C 2735.51,5057.13 2735.34,5058.8 2735.5,5060.5C 2713.83,5060.69 2692.16,5061.19 2670.5,5062C 2618.56,5069.04 2578.06,5094.21 2549,5137.5C 2534.94,5159.85 2526.77,5184.19 2524.5,5210.5C 2523.5,5223.32 2523.17,5236.32 2523.5,5249.5C 2521.9,5249.23 2520.57,5249.57 2519.5,5250.5C 2415.82,5255.46 2312.49,5251.63 2209.5,5239C 2156.72,5232.14 2104.72,5221.47 2053.5,5207C 2052.85,5203.58 2052.52,5200.08 2052.5,5196.5C 2053.21,5181.47 2054.21,5166.47 2055.5,5151.5C 2056.82,5142.34 2057.82,5133.01 2058.5,5123.5C 2063.69,5066.02 2070.19,5008.68 2078,4951.5C 2088.13,4881.7 2098.96,4812.03 2110.5,4742.5C 2109.51,4732.67 2104.01,4727.34 2094,4726.5C 2085.61,4727.72 2080.11,4732.39 2077.5,4740.5C 1950.61,4737.36 1827.94,4713.36 1709.5,4668.5C 1759.49,4620.9 1797.32,4564.9 1823,4500.5C 1842.29,4451.34 1856.29,4400.67 1865,4348.5C 1865.31,4347.69 1865.81,4347.03 1866.5,4346.5C 1873.31,4351.62 1880.31,4351.78 1887.5,4347C 1890.14,4345.04 1891.97,4342.54 1893,4339.5C 1895.41,4285.37 1892.24,4231.53 1883.5,4178C 1883.83,4177.17 1884.17,4176.33 1884.5,4175.5C 1954.73,4203.89 2026.06,4229.23 2098.5,4251.5 Z"/></g>
<g><path style="opacity:1" fill="#dcdadb" d="M 3660.5,4236.5 C 3664.42,4246.34 3666.08,4256.68 3665.5,4267.5C 3651.83,4267.5 3638.17,4267.5 3624.5,4267.5C 3621.69,4229.72 3601.69,4207.22 3564.5,4200C 3541.84,4196.73 3520.17,4200.06 3499.5,4210C 3472.85,4222.98 3451.52,4241.98 3435.5,4267C 3420.17,4267.5 3404.84,4267.67 3389.5,4267.5C 3400.09,4240.67 3416.75,4218.34 3439.5,4200.5C 3439.37,4201.24 3439.54,4201.91 3440,4202.5C 3478.11,4181.15 3518.95,4173.65 3562.5,4180C 3604.41,4187.51 3637.25,4208.68 3661,4243.5C 3661.02,4241.2 3660.85,4238.87 3660.5,4236.5 Z"/></g>
<g><path style="opacity:1" fill="#c4bcc9" d="M 2098.5,4251.5 C 2150.14,4267.24 2202.14,4281.74 2254.5,4295C 2466.83,4410.02 2693.83,4460.52 2935.5,4446.5C 2922.41,4488.45 2908.74,4530.12 2894.5,4571.5C 2814.02,4580.48 2733.68,4579.31 2653.5,4568C 2484.31,4543.71 2334.97,4476.71 2205.5,4367C 2165.48,4332.48 2129.81,4293.98 2098.5,4251.5 Z"/></g>
<g><path style="opacity:1" fill="#cae9fb" d="M 3539.5,4264.5 C 3545.18,4264.33 3550.84,4264.5 3556.5,4265C 3557.31,4265.31 3557.97,4265.81 3558.5,4266.5C 3549.85,4267.67 3541.19,4267.83 3532.5,4267C 3535,4266.3 3537.34,4265.47 3539.5,4264.5 Z"/></g>
<g><path style="opacity:1" fill="#888888" d="M 5159.5,4283.5 C 5201.25,4395.17 5273.25,4481.67 5375.5,4543C 5511.24,4618.28 5652.24,4629.61 5798.5,4577C 5934.58,4521.75 6029.58,4425.92 6083.5,4289.5C 6087.75,4305.09 6094.58,4319.42 6104,4332.5C 6114.16,4346.17 6127.66,4354.67 6144.5,4358C 6170.3,4360.54 6194.63,4355.71 6217.5,4343.5C 6156.71,4498.46 6052.04,4613.63 5903.5,4689C 5771.58,4750.51 5634.25,4766.18 5491.5,4736C 5328.08,4696.18 5199.58,4606.68 5106,4467.5C 5082.52,4431.54 5063.02,4393.54 5047.5,4353.5C 5053.72,4355.41 5060.06,4356.91 5066.5,4358C 5093,4362.57 5115.66,4355.4 5134.5,4336.5C 5146.85,4320.81 5155.18,4303.15 5159.5,4283.5 Z"/></g>
<g><path style="opacity:1" fill="#351d40" d="M 3745.5,4332.5 C 3586,4332.17 3426.67,4332.5 3267.5,4333.5C 3266.65,4335.89 3265.65,4338.22 3264.5,4340.5C 3264.74,4337.09 3265.4,4333.75 3266.5,4330.5C 3426.29,4331.17 3585.96,4331.83 3745.5,4332.5 Z"/></g>
<g><path style="opacity:1" fill="#897a8f" d="M 3267.5,4333.5 C 3426.67,4332.5 3586,4332.17 3745.5,4332.5C 3746.83,4333.17 3746.83,4333.83 3745.5,4334.5C 3595,4333.5 3444.33,4333.17 3293.5,4333.5C 3284.83,4333.5 3276.17,4333.5 3267.5,4333.5 Z"/></g>
<g><path style="opacity:1" fill="#92623f" d="M 3814.5,4333.5 C 3840.66,4332.5 3866.99,4332.17 3893.5,4332.5C 3893.74,4333.79 3893.4,4334.79 3892.5,4335.5C 3866.85,4333.51 3840.85,4332.84 3814.5,4333.5 Z"/></g>
<g><path style="opacity:1" fill="#ecac3e" d="M 3814.5,4333.5 C 3840.85,4332.84 3866.85,4333.51 3892.5,4335.5C 3848.1,4469.69 3804.1,4604.03 3760.5,4738.5C 3745.82,4737.17 3731.16,4735.67 3716.5,4734C 3664.71,4729.38 3614.38,4735.72 3565.5,4753C 3504.57,4777.93 3460.74,4820.43 3434,4880.5C 3421.54,4907.06 3412.37,4934.73 3406.5,4963.5C 3404.35,4966.4 3402.85,4969.74 3402,4973.5C 3392.08,5005.41 3386.42,5038.08 3385,5071.5C 3369.31,5165.48 3318.14,5231.65 3231.5,5270C 3183.02,5288.1 3133.36,5292.1 3082.5,5282C 3002.37,5268.02 2930.37,5236.35 2866.5,5187C 2838.16,5163.87 2813.33,5137.37 2792,5107.5C 2790.8,5105.32 2790.3,5102.99 2790.5,5100.5C 2874.18,4844.46 2957.85,4588.46 3041.5,4332.5C 3093.83,4332.5 3146.17,4332.5 3198.5,4332.5C 3188,4367.16 3177.5,4401.83 3167,4436.5C 3164.52,4457.39 3173.35,4470.56 3193.5,4476C 3379.5,4476.67 3565.5,4476.67 3751.5,4476C 3762.19,4473.92 3770.02,4468.08 3775,4458.5C 3788.68,4416.96 3801.85,4375.3 3814.5,4333.5 Z"/></g>
<g><path style="opacity:1" fill="#dddbdc" d="M 3293.5,4333.5 C 3444.33,4333.17 3595,4333.5 3745.5,4334.5C 3740.2,4352.72 3734.54,4370.72 3728.5,4388.5C 3728.66,4386.8 3728.49,4385.13 3728,4383.5C 3593.57,4384.67 3459.07,4384.83 3324.5,4384C 3305.33,4379.48 3294.49,4367.32 3292,4347.5C 3291.22,4342.68 3291.72,4338.02 3293.5,4333.5 Z"/></g>
<g><path style="opacity:1" fill="#f2f0f1" d="M 3267.5,4333.5 C 3276.17,4333.5 3284.83,4333.5 3293.5,4333.5C 3291.72,4338.02 3291.22,4342.68 3292,4347.5C 3294.49,4367.32 3305.33,4379.48 3324.5,4384C 3459.07,4384.83 3593.57,4384.67 3728,4383.5C 3728.49,4385.13 3728.66,4386.8 3728.5,4388.5C 3726.34,4396.13 3724.34,4403.8 3722.5,4411.5C 3562.83,4411.5 3403.17,4411.5 3243.5,4411.5C 3250.3,4387.78 3257.3,4364.11 3264.5,4340.5C 3265.65,4338.22 3266.65,4335.89 3267.5,4333.5 Z"/></g>
<g><path style="opacity:1" fill="#c4bcc9" d="M 4964.5,4311.5 C 5021.25,4501.84 5136.92,4644.34 5311.5,4739C 5470.61,4819.11 5636.61,4837.11 5809.5,4793C 5994.2,4740.46 6135.03,4631.63 6232,4466.5C 6240.54,4450.86 6248.7,4435.19 6256.5,4419.5C 6251.61,4482.59 6243.45,4545.26 6232,4607.5C 6206.52,4743.29 6157.86,4869.96 6086,4987.5C 6066.18,5017.8 6046.85,5048.46 6028,5079.5C 6022.95,5088.66 6018.28,5097.99 6014,5107.5C 6001.51,5144.02 5998.51,5181.36 6005,5219.5C 6014.94,5269.58 6043.1,5305.08 6089.5,5326C 6129.4,5341.07 6170.4,5344.74 6212.5,5337C 6264.84,5327.33 6313.84,5309 6359.5,5282C 6419.13,5245.74 6472.97,5201.91 6521,5150.5C 6551.83,5116.48 6580.49,5080.81 6607,5043.5C 6633.95,5003.94 6659.11,4963.28 6682.5,4921.5C 6631.32,5150.81 6555.49,5371.48 6455,5583.5C 6396.87,5704.83 6328.87,5819.83 6251,5928.5C 6243.5,5938 6236,5947.5 6228.5,5957C 6104.71,6000.53 5977.71,6030.36 5847.5,6046.5C 5816.5,5859.61 5749.66,5686.94 5647,5528.5C 5637.68,5518.26 5626.18,5514.43 5612.5,5517C 5605.6,5519.23 5599.77,5523.06 5595,5528.5C 5499.71,5676.48 5434.71,5837.14 5400,6010.5C 5397.95,6022.82 5396.11,6035.15 5394.5,6047.5C 5250.01,6029.79 5109.68,5995.29 4973.5,5944C 4971.04,5942.54 4968.87,5940.71 4967,5938.5C 4905.62,5853.8 4851.29,5764.46 4804,5670.5C 4707.18,5477.49 4632.18,5276.16 4579,5066.5C 4567.52,5020.31 4556.69,4973.98 4546.5,4927.5C 4559.64,4949.77 4572.81,4972.1 4586,4994.5C 4631.18,5066.46 4684.01,5131.96 4744.5,5191C 4776.78,5220.28 4811.12,5246.95 4847.5,5271C 4894.33,5301.07 4944.99,5322.4 4999.5,5335C 5036.92,5342.59 5074.25,5342.26 5111.5,5334C 5147.87,5324.42 5177.04,5304.59 5199,5274.5C 5219.96,5239.12 5227.96,5200.78 5223,5159.5C 5221.25,5133.16 5213.91,5108.49 5201,5085.5C 5180.17,5051.16 5158.83,5017.16 5137,4983.5C 5073.79,4879.04 5028.79,4767.04 5002,4647.5C 4978.58,4536.79 4966.08,4424.79 4964.5,4311.5 Z"/></g>
<g><path style="opacity:1" fill="#c4bcc9" d="M 1295.5,4324.5 C 1305.47,4338.42 1314.97,4352.76 1324,4367.5C 1410.77,4490.48 1522.27,4583.14 1658.5,4645.5C 1636.12,4663.98 1611.29,4678.65 1584,4689.5C 1439.39,4606.36 1343.22,4484.7 1295.5,4324.5 Z"/></g>
<g><path style="opacity:1" fill="#c4bcc9" d="M 1709.5,4668.5 C 1827.94,4713.36 1950.61,4737.36 2077.5,4740.5C 2069.21,4767.68 2061.54,4795.01 2054.5,4822.5C 1933.72,4815.22 1816.72,4790.39 1703.5,4748C 1681.26,4739.48 1659.6,4729.82 1638.5,4719C 1663.71,4704.28 1687.38,4687.44 1709.5,4668.5 Z"/></g>
<g><path style="opacity:1" fill="#fefefe" d="M 3783.5,5144.5 C 3743.04,5168.86 3699.37,5177.36 3652.5,5170C 3615.76,5165.53 3581.76,5153.53 3550.5,5134C 3518.41,5109.54 3495.91,5078.04 3483,5039.5C 3476.85,5019.25 3472.68,4998.58 3470.5,4977.5C 3478.57,4935.71 3495.07,4897.71 3520,4863.5C 3554.19,4825.99 3596.69,4804.82 3647.5,4800C 3684.08,4796.75 3720.41,4798.42 3756.5,4805C 3764.96,4807.07 3773.46,4808.91 3782,4810.5C 3795.9,4809.56 3805.9,4802.89 3812,4790.5C 3819.73,4766.71 3827.73,4743.04 3836,4719.5C 3851.94,4749.12 3859.11,4780.78 3857.5,4814.5C 3857.56,4826.53 3857.06,4838.53 3856,4850.5C 3844.54,4931.11 3827.21,5010.44 3804,5088.5C 3797.85,5107.46 3791.01,5126.13 3783.5,5144.5 Z"/></g>
<g><path style="opacity:1" fill="#fefefe" d="M 1913.5,4872.5 C 1908.4,4912.39 1904.24,4952.39 1901,4992.5C 1898.7,5035.13 1896.86,5077.47 1895.5,5119.5C 1795.86,5114.1 1696.19,5109.1 1596.5,5104.5C 1591.36,5103.51 1586.03,5103.18 1580.5,5103.5C 1574.68,5055.61 1570.01,5007.61 1566.5,4959.5C 1568.14,4919.47 1570.31,4879.47 1573,4839.5C 1575.15,4814.39 1577.98,4789.39 1581.5,4764.5C 1657.34,4804.5 1737,4834.33 1820.5,4854C 1851.23,4861.46 1882.23,4867.62 1913.5,4872.5 Z"/></g>
<g><path style="opacity:1" fill="#c4bcc9" d="M 1913.5,4872.5 C 1954.25,4879.18 1995.25,4884.18 2036.5,4887.5C 2007.63,5000.14 1988.79,5114.48 1980,5230.5C 1978.41,5231.38 1976.91,5232.38 1975.5,5233.5C 1974.81,5232.97 1974.31,5232.31 1974,5231.5C 1970.98,5214.77 1967.65,5198.1 1964,5181.5C 1952.02,5148.67 1929.18,5128.01 1895.5,5119.5C 1896.86,5077.47 1898.7,5035.13 1901,4992.5C 1904.24,4952.39 1908.4,4912.39 1913.5,4872.5 Z"/></g>
<g><path style="opacity:1" fill="#c4bcc9" d="M 3470.5,4977.5 C 3472.68,4998.58 3476.85,5019.25 3483,5039.5C 3495.91,5078.04 3518.41,5109.54 3550.5,5134C 3581.76,5153.53 3615.76,5165.53 3652.5,5170C 3699.37,5177.36 3743.04,5168.86 3783.5,5144.5C 3773.99,5167.19 3762.16,5188.53 3748,5208.5C 3737.6,5222.43 3724.44,5232.59 3708.5,5239C 3666.59,5243.72 3625.59,5239.39 3585.5,5226C 3520.14,5203.46 3480.64,5158.29 3467,5090.5C 3460.4,5052.45 3461.57,5014.78 3470.5,4977.5 Z"/></g>
<g><path style="opacity:1" fill="#c3bac7" d="M 1566.5,4959.5 C 1570.01,5007.61 1574.68,5055.61 1580.5,5103.5C 1586.03,5103.18 1591.36,5103.51 1596.5,5104.5C 1585.73,5104.02 1575.06,5104.69 1564.5,5106.5C 1564.33,5068.17 1564.5,5029.83 1565,4991.5C 1565.17,4980.66 1565.67,4969.99 1566.5,4959.5 Z"/></g>
<g><path style="opacity:1" fill="#d08b28" d="M 3406.5,4963.5 C 3394.04,5017.61 3394.54,5071.61 3408,5125.5C 3435.07,5211.4 3491.9,5266.73 3578.5,5291.5C 3572.76,5310.99 3566.42,5330.33 3559.5,5349.5C 3275.83,5350.83 2992.17,5350.83 2708.5,5349.5C 2735.86,5266.42 2763.19,5183.42 2790.5,5100.5C 2790.3,5102.99 2790.8,5105.32 2792,5107.5C 2813.33,5137.37 2838.16,5163.87 2866.5,5187C 2930.37,5236.35 3002.37,5268.02 3082.5,5282C 3133.36,5292.1 3183.02,5288.1 3231.5,5270C 3318.14,5231.65 3369.31,5165.48 3385,5071.5C 3386.42,5038.08 3392.08,5005.41 3402,4973.5C 3402.85,4969.74 3404.35,4966.4 3406.5,4963.5 Z"/></g>
<g><path style="opacity:1" fill="#fefdfe" d="M 2647.5,5327.5 C 2646.62,5327.63 2645.96,5327.3 2645.5,5326.5C 2639,5310.67 2629,5297.51 2615.5,5287C 2611.78,5285.14 2608.11,5283.31 2604.5,5281.5C 2599.22,5276.96 2594.39,5271.96 2590,5266.5C 2589.33,5247.5 2589.33,5228.5 2590,5209.5C 2599.76,5165.41 2626.59,5138.24 2670.5,5128C 2683.14,5126.54 2695.8,5126.21 2708.5,5127C 2687.54,5158.22 2677.71,5192.72 2679,5230.5C 2668.34,5262.83 2657.84,5295.16 2647.5,5327.5 Z"/></g>
<g><path style="opacity:1" fill="#554260" d="M 2058.5,5123.5 C 2057.82,5133.01 2056.82,5142.34 2055.5,5151.5C 2055.57,5143.48 2056.07,5135.48 2057,5127.5C 2057.21,5125.94 2057.71,5124.61 2058.5,5123.5 Z"/></g>
<g><path style="opacity:1" fill="#fefefe" d="M 1919.5,5453.5 C 1903.01,5474.05 1887.34,5473.39 1872.5,5451.5C 1874.52,5409.07 1873.36,5366.74 1869,5324.5C 1865.87,5301.33 1860.54,5278.66 1853,5256.5C 1847.36,5250.99 1842.03,5251.32 1837,5257.5C 1836.83,5258.5 1836.67,5259.5 1836.5,5260.5C 1842.39,5287.17 1845.06,5314.17 1844.5,5341.5C 1844.63,5366.23 1843.46,5390.89 1841,5415.5C 1839.1,5429 1836.6,5442.33 1833.5,5455.5C 1811.02,5480.26 1783.68,5497.76 1751.5,5508C 1714.71,5516.53 1680.04,5511.2 1647.5,5492C 1636.65,5485.74 1626.31,5478.74 1616.5,5471C 1608.88,5463.53 1600.88,5456.7 1592.5,5450.5C 1575.91,5384.57 1566.41,5317.57 1564,5249.5C 1563.12,5228.84 1562.78,5208.17 1563,5187.5C 1567.4,5174.93 1576.23,5168.93 1589.5,5169.5C 1687.18,5173.97 1784.85,5178.8 1882.5,5184C 1892.57,5186.4 1899.07,5192.57 1902,5202.5C 1909.34,5237.7 1914.84,5273.2 1918.5,5309C 1913.32,5333.28 1912.15,5357.78 1915,5382.5C 1916.39,5392.07 1918.73,5401.4 1922,5410.5C 1922.78,5424.95 1921.94,5439.28 1919.5,5453.5 Z"/></g>
<g><path style="opacity:1" fill="#897790" d="M 2524.5,5210.5 C 2524.5,5223.83 2524.5,5237.17 2524.5,5250.5C 2522.83,5250.5 2521.17,5250.5 2519.5,5250.5C 2520.57,5249.57 2521.9,5249.23 2523.5,5249.5C 2523.17,5236.32 2523.5,5223.32 2524.5,5210.5 Z"/></g>
<g><path style="opacity:1" fill="#fefefe" d="M 2581.5,5378.5 C 2581.65,5379.55 2581.48,5380.55 2581,5381.5C 2569.63,5390.6 2557.13,5397.77 2543.5,5403C 2506.01,5414.36 2467.68,5421.36 2428.5,5424C 2356.2,5427.84 2284.2,5424.84 2212.5,5415C 2158.01,5407.54 2104.01,5397.54 2050.5,5385C 2021.91,5376.46 1999.08,5359.96 1982,5335.5C 1981.51,5334.21 1981.34,5332.87 1981.5,5331.5C 1984.37,5319.76 1989.87,5309.42 1998,5300.5C 2010.19,5287.64 2024.52,5277.98 2041,5271.5C 2165.69,5304.1 2292.52,5319.43 2421.5,5317.5C 2462.87,5317.72 2504.21,5316.88 2545.5,5315C 2564.38,5332.26 2576.38,5353.43 2581.5,5378.5 Z"/></g>
<g><path style="opacity:1" fill="#d6d5d6" d="M 3848.5,5156.5 C 3839.27,5212.45 3813.6,5259.62 3771.5,5298C 3744.17,5317.89 3713.5,5328.89 3679.5,5331C 3664.49,5331.83 3649.49,5331.67 3634.5,5330.5C 3637.42,5321.98 3640.42,5313.48 3643.5,5305C 3664.1,5306.49 3684.77,5306.82 3705.5,5306C 3730,5303.62 3751.67,5294.62 3770.5,5279C 3786.9,5264.35 3801.06,5247.85 3813,5229.5C 3827.22,5206.36 3839.05,5182.03 3848.5,5156.5 Z"/></g>
<g><path style="opacity:1" fill="#c4bcc9" d="M 2604.5,5281.5 C 2608.11,5283.31 2611.78,5285.14 2615.5,5287C 2629,5297.51 2639,5310.67 2645.5,5326.5C 2645.96,5327.3 2646.62,5327.63 2647.5,5327.5C 2645.48,5333.23 2643.32,5338.9 2641,5344.5C 2632.41,5321.31 2620.25,5300.31 2604.5,5281.5 Z"/></g>
<g><path style="opacity:1" fill="#c4bcc9" d="M 1981.5,5331.5 C 1981.34,5332.87 1981.51,5334.21 1982,5335.5C 1999.08,5359.96 2021.91,5376.46 2050.5,5385C 2104.01,5397.54 2158.01,5407.54 2212.5,5415C 2284.2,5424.84 2356.2,5427.84 2428.5,5424C 2467.68,5421.36 2506.01,5414.36 2543.5,5403C 2557.13,5397.77 2569.63,5390.6 2581,5381.5C 2581.48,5380.55 2581.65,5379.55 2581.5,5378.5C 2582.59,5413.49 2569.59,5442.33 2542.5,5465C 2494.39,5482.42 2444.72,5491.75 2393.5,5493C 2270.87,5494.25 2150.21,5479.59 2031.5,5449C 1989.37,5420.59 1972.71,5381.42 1981.5,5331.5 Z"/></g>
<g><path style="opacity:1" fill="#c4bcc9" d="M 2645.5,5411.5 C 2648.92,5412.37 2652.25,5413.54 2655.5,5415C 2664.83,5415.5 2674.16,5415.67 2683.5,5415.5C 2684.41,5463.5 2685.57,5511.5 2687,5559.5C 2690.29,5592.4 2702.12,5621.73 2722.5,5647.5C 2684.77,5654.53 2651.93,5645.2 2624,5619.5C 2608.22,5602.61 2598.89,5582.61 2596,5559.5C 2595.38,5541.83 2595.04,5524.16 2595,5506.5C 2621.28,5479.95 2638.11,5448.29 2645.5,5411.5 Z"/></g>
<g><path style="opacity:1" fill="#c9c5cd" d="M 3125.5,5417.5 C 3098.93,5416.17 3072.26,5416.17 3045.5,5417.5C 3058.65,5416.17 3072.15,5415.5 3086,5415.5C 3099.5,5415.83 3113,5416.17 3126.5,5416.5C 3126.38,5417.11 3126.04,5417.44 3125.5,5417.5 Z"/></g>
<g><path style="opacity:1" fill="#fdfdfd" d="M 3125.5,5417.5 C 3101.41,5447.11 3090.75,5481.11 3093.5,5519.5C 3058.84,5518.04 3024.51,5513.88 2990.5,5507C 2988.35,5506.9 2986.68,5506.07 2985.5,5504.5C 3017.59,5484.04 3037.59,5455.04 3045.5,5417.5C 3072.26,5416.17 3098.93,5416.17 3125.5,5417.5 Z"/></g>
<g><path style="opacity:1" fill="#fefefe" d="M 3401.5,5476.5 C 3401.76,5478.79 3401.42,5480.96 3400.5,5483C 3348.55,5501.86 3294.88,5513.19 3239.5,5517C 3207.23,5519.92 3174.9,5521.09 3142.5,5520.5C 3142.5,5514.5 3142.5,5508.5 3142.5,5502.5C 3144.27,5476.01 3155.27,5454.18 3175.5,5437C 3185.07,5430.76 3194.07,5423.76 3202.5,5416C 3268.5,5415.5 3334.5,5415.33 3400.5,5415.5C 3400.63,5435.84 3400.96,5456.17 3401.5,5476.5 Z"/></g>
<g><path style="opacity:1" fill="#1c79e9" d="M 2909.5,5415.5 C 2913.09,5418.88 2917.42,5421.05 2922.5,5422C 2941.34,5426.98 2959,5424.82 2975.5,5415.5C 2982.2,5415.17 2988.87,5415.5 2995.5,5416.5C 2990.4,5431.2 2982.4,5444.03 2971.5,5455C 2946.98,5473.18 2923.98,5471.34 2902.5,5449.5C 2894.37,5439.58 2888.04,5428.58 2883.5,5416.5C 2892.14,5415.5 2900.81,5415.17 2909.5,5415.5 Z"/></g>
<g><path style="opacity:1" fill="#23a0ea" d="M 2909.5,5415.5 C 2931.5,5415.5 2953.5,5415.5 2975.5,5415.5C 2959,5424.82 2941.34,5426.98 2922.5,5422C 2917.42,5421.05 2913.09,5418.88 2909.5,5415.5 Z"/></g>
<g><path style="opacity:1" fill="#c4bcc9" d="M 2985.5,5504.5 C 2986.68,5506.07 2988.35,5506.9 2990.5,5507C 3024.51,5513.88 3058.84,5518.04 3093.5,5519.5C 3093.5,5559.5 3093.5,5599.5 3093.5,5639.5C 3008.84,5640.9 2924.17,5642.07 2839.5,5643C 2790.34,5633.84 2761.18,5604.68 2752,5555.5C 2750.96,5508.84 2750.12,5462.17 2749.5,5415.5C 2754.5,5415.5 2759.5,5415.5 2764.5,5415.5C 2771.72,5451.53 2790.06,5480.36 2819.5,5502C 2832.02,5510.09 2845.69,5515.09 2860.5,5517C 2889.17,5517.39 2917.84,5517.06 2946.5,5516C 2960.34,5514.89 2973.34,5511.05 2985.5,5504.5 Z"/></g>
<g><path style="opacity:1" fill="#1e77e5" d="M 2815.5,5415.5 C 2821.5,5415.5 2827.5,5415.5 2833.5,5415.5C 2836.36,5432.73 2842.7,5448.56 2852.5,5463C 2845.4,5460.51 2839.24,5456.34 2834,5450.5C 2825.01,5440.34 2818.84,5428.67 2815.5,5415.5 Z"/></g>
<g><path style="opacity:1" fill="#c4bbc9" d="M 1872.5,5451.5 C 1887.34,5473.39 1903.01,5474.05 1919.5,5453.5C 1916.98,5483.88 1908.15,5512.21 1893,5538.5C 1882.67,5552.58 1869.83,5563.74 1854.5,5572C 1847.85,5575.55 1841.02,5578.72 1834,5581.5C 1854.95,5540.79 1867.78,5497.46 1872.5,5451.5 Z"/></g>
<g><path style="opacity:1" fill="#c4bcc9" d="M 1592.5,5450.5 C 1600.88,5456.7 1608.88,5463.53 1616.5,5471C 1626.31,5478.74 1636.65,5485.74 1647.5,5492C 1680.04,5511.2 1714.71,5516.53 1751.5,5508C 1783.68,5497.76 1811.02,5480.26 1833.5,5455.5C 1825.93,5497.63 1808.43,5534.96 1781,5567.5C 1772.39,5577.11 1762.89,5585.61 1752.5,5593C 1711.98,5591.5 1675.98,5578.16 1644.5,5553C 1626.32,5533.82 1612.82,5511.65 1604,5486.5C 1599.86,5474.57 1596.02,5462.57 1592.5,5450.5 Z"/></g>
<g><path style="opacity:1" fill="#c4bcc9" d="M 3401.5,5476.5 C 3406.47,5510.9 3400.97,5543.56 3385,5574.5C 3363.4,5609.39 3332.24,5629.89 3291.5,5636C 3244.17,5637.32 3196.84,5638.15 3149.5,5638.5C 3147.17,5638.5 3144.83,5638.5 3142.5,5638.5C 3142.5,5599.17 3142.5,5559.83 3142.5,5520.5C 3174.9,5521.09 3207.23,5519.92 3239.5,5517C 3294.88,5513.19 3348.55,5501.86 3400.5,5483C 3401.42,5480.96 3401.76,5478.79 3401.5,5476.5 Z"/></g>
<g><path style="opacity:1" fill="#c4bcc9" d="M 3390.5,5871.5 C 3390.72,5870.32 3390.39,5869.32 3389.5,5868.5C 3358.88,5880.95 3328.54,5894.11 3298.5,5908C 3202,5961.74 3099.67,6000.08 2991.5,6023C 2917.27,6038.13 2842.27,6046.63 2766.5,6048.5C 2766.25,6032.83 2765.91,6017.16 2765.5,6001.5C 2849.01,6003.19 2929.67,5989.03 3007.5,5959C 3020.42,5953.25 3023.58,5944.09 3017,5931.5C 3014.56,5929.03 3011.73,5927.2 3008.5,5926C 2937.52,5929.53 2866.52,5932.86 2795.5,5936C 2750.5,5936.67 2705.5,5936.67 2660.5,5936C 2624.5,5934.85 2588.5,5934.18 2552.5,5934C 2541.18,5941.47 2539.52,5950.8 2547.5,5962C 2572.26,5972.44 2597.93,5979.94 2624.5,5984.5C 2623.31,6005.16 2622.31,6025.82 2621.5,6046.5C 2552.33,6047.09 2484.33,6038.59 2417.5,6021C 2359.5,6005.66 2302.83,5986.33 2247.5,5963C 2175.19,5931.26 2103.02,5899.42 2031,5867.5C 2030.5,5878.49 2030.33,5889.49 2030.5,5900.5C 2029.45,5818 2028.78,5735.33 2028.5,5652.5C 2028.17,5634.66 2028.5,5616.99 2029.5,5599.5C 2035.38,5611.6 2041.55,5623.6 2048,5635.5C 2050.65,5640.63 2054.15,5645.13 2058.5,5649C 2069.85,5652.63 2078.02,5649.13 2083,5638.5C 2083.67,5635.83 2083.67,5633.17 2083,5630.5C 2068.52,5595.85 2059.02,5559.85 2054.5,5522.5C 2142.81,5541.87 2232.14,5553.71 2322.5,5558C 2392.84,5561.48 2462.18,5554.98 2530.5,5538.5C 2528.98,5605.97 2556.64,5657.47 2613.5,5693C 2632.16,5703.66 2652.16,5710.33 2673.5,5713C 2701.17,5713.67 2728.83,5713.67 2756.5,5713C 2936.19,5709.62 3115.85,5705.62 3295.5,5701C 3329.19,5697.73 3359.69,5686.23 3387,5666.5C 3383.19,5676.45 3378.53,5686.12 3373,5695.5C 3364.5,5710.5 3355.5,5725.17 3346,5739.5C 3342.31,5755.81 3348.81,5763.64 3365.5,5763C 3370.38,5760.78 3374.72,5757.78 3378.5,5754C 3387,5745.5 3395.5,5737 3404,5728.5C 3400.15,5776.35 3395.65,5824.02 3390.5,5871.5 Z"/></g>
<g><path style="opacity:1" fill="#c4bcc9" d="M 1961.5,5547.5 C 1962.37,5636.17 1963.37,5725 1964.5,5814C 1964.17,5825.17 1963.83,5836.33 1963.5,5847.5C 1913.84,5836.67 1865.18,5822.5 1817.5,5805C 1774.51,5789.18 1735.18,5767.18 1699.5,5739C 1678.24,5719.96 1661.74,5697.46 1650,5671.5C 1642.88,5656.42 1636.72,5640.92 1631.5,5625C 1631.67,5624.5 1631.83,5624 1632,5623.5C 1681.22,5652.43 1734.39,5663.93 1791.5,5658C 1842.98,5653.08 1887.98,5633.74 1926.5,5600C 1941.54,5584.77 1953.2,5567.27 1961.5,5547.5 Z"/></g>
<g><path style="opacity:1" fill="#73617b" d="M 3142.5,5502.5 C 3142.5,5508.5 3142.5,5514.5 3142.5,5520.5C 3142.5,5559.83 3142.5,5599.17 3142.5,5638.5C 3144.83,5638.5 3147.17,5638.5 3149.5,5638.5C 3147.05,5639.47 3144.39,5639.81 3141.5,5639.5C 3141.17,5593.66 3141.5,5548 3142.5,5502.5 Z"/></g>
<g><path style="opacity:1" fill="#fcc2c1" d="M 5703.5,5779.5 C 5688.79,5751.07 5672.29,5723.73 5654,5697.5C 5650.37,5692.87 5646.37,5688.53 5642,5684.5C 5636.39,5864.56 5629.39,6044.56 5621,6224.5C 5612.61,6044.55 5605.61,5864.55 5600,5684.5C 5590.19,5694.64 5581.52,5705.64 5574,5717.5C 5562.15,5737.86 5550.32,5758.2 5538.5,5778.5C 5562,5720.49 5589.5,5664.49 5621,5610.5C 5652.78,5664.72 5680.28,5721.05 5703.5,5779.5 Z"/></g>
<g><path style="opacity:1" fill="#887690" d="M 2029.5,5599.5 C 2028.5,5616.99 2028.17,5634.66 2028.5,5652.5C 2027.34,5634 2027.17,5615.34 2028,5596.5C 2029.04,5597.24 2029.54,5598.24 2029.5,5599.5 Z"/></g>
<g><path style="opacity:1" fill="#d72345" d="M 6561.5,5666.5 C 6559.56,5667.08 6559.22,5668.08 6560.5,5669.5C 6553.93,5690.36 6546.43,5711.02 6538,5731.5C 6535.12,5740.13 6532.62,5748.97 6530.5,5758C 6527.62,5765.28 6524.45,5772.45 6521,5779.5C 6517.35,5792.1 6513.52,5804.6 6509.5,5817C 6508.99,5818.17 6508.16,5819 6507,5819.5C 6501.18,5836.78 6495.68,5854.11 6490.5,5871.5C 6476.13,5923.81 6469.96,5977.14 6472,6031.5C 6474.03,6058.44 6477.37,6085.11 6482,6111.5C 6491.26,6150.93 6503.26,6189.59 6518,6227.5C 6522.98,6249.99 6526.98,6272.66 6530,6295.5C 6533.33,6327.44 6536,6359.44 6538,6391.5C 6540.13,6407.85 6543.46,6423.85 6548,6439.5C 6550.87,6442.54 6552.21,6446.21 6552,6450.5C 6556.61,6456.17 6561.11,6461.84 6565.5,6467.5C 6570.53,6470.03 6575.2,6473.19 6579.5,6477C 6587.48,6479.32 6595.48,6481.65 6603.5,6484C 6612.81,6485.17 6622.15,6485.5 6631.5,6485C 6643.35,6483.59 6655.02,6481.59 6666.5,6479C 6680.03,6473.32 6693.7,6467.99 6707.5,6463C 6726.09,6452.03 6744.76,6441.03 6763.5,6430C 6776.74,6419.8 6789.74,6409.64 6802.5,6399.5C 6794.5,6418.5 6785.67,6437.16 6776,6455.5C 6725.37,6547.78 6665.03,6633.12 6595,6711.5C 6553.08,6758.42 6508.92,6802.92 6462.5,6845C 6460.79,6846.75 6458.79,6847.42 6456.5,6847C 6453.57,6842.21 6451.4,6837.04 6450,6831.5C 6448.52,6819.2 6448.19,6806.87 6449,6794.5C 6462.18,6700.44 6472.84,6606.11 6481,6511.5C 6484.33,6468.89 6485.66,6426.22 6485,6383.5C 6484.69,6350.04 6480.69,6317.04 6473,6284.5C 6464.75,6254.99 6450.09,6229.32 6429,6207.5C 6404.07,6183.63 6375.57,6164.8 6343.5,6151C 6313.15,6138.08 6281.82,6128.25 6249.5,6121.5C 6258.52,6080.7 6268.19,6040.03 6278.5,5999.5C 6318.92,5947.91 6356.42,5894.24 6391,5838.5C 6430.26,5773.99 6466.43,5707.66 6499.5,5639.5C 6520.86,5646.95 6541.53,5655.95 6561.5,5666.5 Z"/></g>
<g><path style="opacity:1" fill="#d72345" d="M 4439.5,6401.5 C 4443.99,6403.31 4447.99,6405.98 4451.5,6409.5C 4452.74,6410.25 4454.07,6410.58 4455.5,6410.5C 4455.5,6411.5 4455.5,6412.5 4455.5,6413.5C 4458.47,6413.63 4460.47,6415.13 4461.5,6418C 4467.07,6420.57 4471.73,6424.24 4475.5,6429C 4478.1,6430.14 4480.77,6430.97 4483.5,6431.5C 4483.5,6432.5 4483.5,6433.5 4483.5,6434.5C 4488.83,6435.3 4493.33,6437.63 4497,6441.5C 4502.38,6442.77 4506.88,6445.44 4510.5,6449.5C 4529.99,6460.58 4550.32,6470.08 4571.5,6478C 4580.93,6479.39 4590.26,6481.22 4599.5,6483.5C 4620.11,6486.4 4640.11,6484.24 4659.5,6477C 4666.19,6473.82 4672.53,6469.98 4678.5,6465.5C 4682.17,6460.5 4685.83,6455.5 4689.5,6450.5C 4693.27,6440.49 4697.1,6430.49 4701,6420.5C 4704.79,6384.24 4707.79,6347.9 4710,6311.5C 4712.34,6291.45 4715.01,6271.45 4718,6251.5C 4721.81,6241.19 4724.47,6230.52 4726,6219.5C 4728.16,6215.01 4730.33,6210.51 4732.5,6206C 4735.77,6194.84 4739.44,6183.84 4743.5,6173C 4772.41,6083.17 4777.58,5991.67 4759,5898.5C 4757.44,5891.29 4755.11,5884.29 4752,5877.5C 4752.61,5870.24 4750.61,5863.9 4746,5858.5C 4744.7,5853.57 4743.7,5848.57 4743,5843.5C 4728.76,5805.7 4715.1,5767.7 4702,5729.5C 4698.76,5718.04 4695.26,5706.71 4691.5,5695.5C 4690.5,5695.5 4689.5,5695.5 4688.5,5695.5C 4687.72,5688.06 4685.56,5681.06 4682,5674.5C 4681.5,5672.19 4681.34,5669.86 4681.5,5667.5C 4680.17,5667.5 4678.83,5667.5 4677.5,5667.5C 4690.89,5660.52 4704.72,5654.19 4719,5648.5C 4747.32,5704.81 4776.99,5760.47 4808,5815.5C 4835.59,5862.36 4864.92,5908.02 4896,5952.5C 4903.62,5963.12 4911.62,5973.45 4920,5983.5C 4930.93,6033.09 4941.43,6082.76 4951.5,6132.5C 4905.64,6144.27 4864.3,6164.77 4827.5,6194C 4788.89,6226.68 4767.05,6268.52 4762,6319.5C 4757.45,6356.7 4755.78,6394.03 4757,6431.5C 4758.34,6476.95 4761.34,6522.28 4766,6567.5C 4774.51,6644.88 4783.51,6722.22 4793,6799.5C 4794.22,6813.01 4793.22,6826.35 4790,6839.5C 4788.88,6842.25 4787.38,6844.75 4785.5,6847C 4783.71,6847.52 4782.04,6847.19 4780.5,6846C 4684.57,6760.12 4600.41,6664.62 4528,6559.5C 4494.5,6509.14 4465,6456.48 4439.5,6401.5 Z"/></g>
<g><path style="opacity:1" fill="#f63939" d="M 4677.5,5667.5 C 4678.83,5667.5 4680.17,5667.5 4681.5,5667.5C 4681.34,5669.86 4681.5,5672.19 4682,5674.5C 4685.56,5681.06 4687.72,5688.06 4688.5,5695.5C 4689.5,5695.5 4690.5,5695.5 4691.5,5695.5C 4695.26,5706.71 4698.76,5718.04 4702,5729.5C 4715.1,5767.7 4728.76,5805.7 4743,5843.5C 4743.7,5848.57 4744.7,5853.57 4746,5858.5C 4750.61,5863.9 4752.61,5870.24 4752,5877.5C 4755.11,5884.29 4757.44,5891.29 4759,5898.5C 4777.58,5991.67 4772.41,6083.17 4743.5,6173C 4739.44,6183.84 4735.77,6194.84 4732.5,6206C 4730.33,6210.51 4728.16,6215.01 4726,6219.5C 4724.47,6230.52 4721.81,6241.19 4718,6251.5C 4715.01,6271.45 4712.34,6291.45 4710,6311.5C 4707.79,6347.9 4704.79,6384.24 4701,6420.5C 4697.1,6430.49 4693.27,6440.49 4689.5,6450.5C 4685.83,6455.5 4682.17,6460.5 4678.5,6465.5C 4672.53,6469.98 4666.19,6473.82 4659.5,6477C 4640.11,6484.24 4620.11,6486.4 4599.5,6483.5C 4590.26,6481.22 4580.93,6479.39 4571.5,6478C 4550.32,6470.08 4529.99,6460.58 4510.5,6449.5C 4506.88,6445.44 4502.38,6442.77 4497,6441.5C 4493.33,6437.63 4488.83,6435.3 4483.5,6434.5C 4483.5,6433.5 4483.5,6432.5 4483.5,6431.5C 4480.77,6430.97 4478.1,6430.14 4475.5,6429C 4471.73,6424.24 4467.07,6420.57 4461.5,6418C 4460.47,6415.13 4458.47,6413.63 4455.5,6413.5C 4455.5,6412.5 4455.5,6411.5 4455.5,6410.5C 4454.07,6410.58 4452.74,6410.25 4451.5,6409.5C 4447.99,6405.98 4443.99,6403.31 4439.5,6401.5C 4404.34,6327.44 4382.84,6249.44 4375,6167.5C 4365.1,6051.08 4392.1,5944.41 4456,5847.5C 4489.83,5801.67 4529.67,5761.83 4575.5,5728C 4607.57,5704.79 4641.57,5684.62 4677.5,5667.5 Z"/></g>
<g><path style="opacity:1" fill="#f63939" d="M 6561.5,5666.5 C 6626.3,5696.48 6684.13,5736.48 6735,5786.5C 6817.77,5872.43 6862.1,5975.43 6868,6095.5C 6870.31,6164.32 6861.65,6231.66 6842,6297.5C 6831.27,6332.55 6818.1,6366.55 6802.5,6399.5C 6789.74,6409.64 6776.74,6419.8 6763.5,6430C 6744.76,6441.03 6726.09,6452.03 6707.5,6463C 6693.7,6467.99 6680.03,6473.32 6666.5,6479C 6655.02,6481.59 6643.35,6483.59 6631.5,6485C 6622.15,6485.5 6612.81,6485.17 6603.5,6484C 6595.48,6481.65 6587.48,6479.32 6579.5,6477C 6575.2,6473.19 6570.53,6470.03 6565.5,6467.5C 6561.11,6461.84 6556.61,6456.17 6552,6450.5C 6552.21,6446.21 6550.87,6442.54 6548,6439.5C 6543.46,6423.85 6540.13,6407.85 6538,6391.5C 6536,6359.44 6533.33,6327.44 6530,6295.5C 6526.98,6272.66 6522.98,6249.99 6518,6227.5C 6503.26,6189.59 6491.26,6150.93 6482,6111.5C 6477.37,6085.11 6474.03,6058.44 6472,6031.5C 6469.96,5977.14 6476.13,5923.81 6490.5,5871.5C 6495.68,5854.11 6501.18,5836.78 6507,5819.5C 6508.16,5819 6508.99,5818.17 6509.5,5817C 6513.52,5804.6 6517.35,5792.1 6521,5779.5C 6524.45,5772.45 6527.62,5765.28 6530.5,5758C 6532.62,5748.97 6535.12,5740.13 6538,5731.5C 6546.43,5711.02 6553.93,5690.36 6560.5,5669.5C 6559.22,5668.08 6559.56,5667.08 6561.5,5666.5 Z"/></g>
<g><path style="opacity:1" fill="#f63939" d="M 5703.5,5779.5 C 5751.92,5893.25 5781.59,6011.92 5792.5,6135.5C 5792.93,6146.28 5792.09,6156.94 5790,6167.5C 5781.81,6203.1 5774.81,6239.1 5769,6275.5C 5759.48,6312.55 5750.65,6349.89 5742.5,6387.5C 5736.65,6409.23 5730.48,6430.9 5724,6452.5C 5722.82,6454.94 5721.48,6457.27 5720,6459.5C 5717.25,6469.97 5714.25,6480.3 5711,6490.5C 5707.05,6498.53 5704.05,6506.87 5702,6515.5C 5694.04,6531.08 5686.38,6546.75 5679,6562.5C 5672.87,6572.47 5666.03,6581.8 5658.5,6590.5C 5650.89,6596.61 5642.89,6602.11 5634.5,6607C 5623.63,6609.35 5612.97,6608.68 5602.5,6605C 5599.51,6601.72 5595.84,6599.89 5591.5,6599.5C 5590.5,6595.17 5587.83,6592.5 5583.5,6591.5C 5582.96,6589.42 5582.12,6587.42 5581,6585.5C 5577.98,6583.15 5575.32,6580.48 5573,6577.5C 5563.31,6563.43 5555.31,6548.43 5549,6532.5C 5548,6531.83 5547,6531.17 5546,6530.5C 5544.68,6522.54 5541.85,6515.21 5537.5,6508.5C 5534.28,6500.34 5531.78,6492 5530,6483.5C 5529.02,6482.02 5527.85,6480.69 5526.5,6479.5C 5523.53,6469.94 5521.03,6460.27 5519,6450.5C 5517.33,6446.83 5515.67,6443.17 5514,6439.5C 5510.13,6422.25 5505.3,6405.42 5499.5,6389C 5498.07,6380.44 5496.4,6371.94 5494.5,6363.5C 5488.52,6342.22 5483.02,6320.89 5478,6299.5C 5475.07,6283.53 5472.41,6267.53 5470,6251.5C 5467.9,6244.24 5465.9,6236.91 5464,6229.5C 5460.22,6204.83 5455.55,6180.5 5450,6156.5C 5449.5,6149.51 5449.33,6142.51 5449.5,6135.5C 5460.93,6011.9 5490.59,5892.9 5538.5,5778.5C 5550.32,5758.2 5562.15,5737.86 5574,5717.5C 5581.52,5705.64 5590.19,5694.64 5600,5684.5C 5605.61,5864.55 5612.61,6044.55 5621,6224.5C 5629.39,6044.56 5636.39,5864.56 5642,5684.5C 5646.37,5688.53 5650.37,5692.87 5654,5697.5C 5672.29,5723.73 5688.79,5751.07 5703.5,5779.5 Z"/></g>
<g><path style="opacity:1" fill="#fdc3c2" d="M 6676.5,5790.5 C 6701.15,5813.65 6722.32,5839.65 6740,5868.5C 6795.44,5959.71 6816.11,6058.38 6802,6164.5C 6745.37,6062.64 6705.71,5954.31 6683,5839.5C 6680.32,5823.22 6678.15,5806.89 6676.5,5790.5 Z"/></g>
<g><path style="opacity:1" fill="#fdc3c2" d="M 4564.5,5790.5 C 4565.64,5793.3 4565.8,5796.3 4565,5799.5C 4545.26,5928.84 4503.59,6050.51 4440,6164.5C 4423.96,6037.95 4454.96,5924.62 4533,5824.5C 4543.08,5812.59 4553.58,5801.26 4564.5,5790.5 Z"/></g>
<g><path style="opacity:1" fill="#fefefe" d="M 2621.5,6046.5 C 2618.8,6093.47 2616.8,6140.47 2615.5,6187.5C 2465.1,6215.55 2314.1,6219.05 2162.5,6198C 2119.69,6191.25 2077.36,6182.25 2035.5,6171C 2033.73,6164.78 2032.89,6158.28 2033,6151.5C 2032.28,6067.83 2031.44,5984.16 2030.5,5900.5C 2030.33,5889.49 2030.5,5878.49 2031,5867.5C 2103.02,5899.42 2175.19,5931.26 2247.5,5963C 2302.83,5986.33 2359.5,6005.66 2417.5,6021C 2484.33,6038.59 2552.33,6047.09 2621.5,6046.5 Z"/></g>
<g><path style="opacity:1" fill="#fefefe" d="M 3390.5,5871.5 C 3378.9,5983.94 3366.57,6096.27 3353.5,6208.5C 3314.74,6224.36 3274.74,6236.19 3233.5,6244C 3188.49,6252.17 3143.16,6257.67 3097.5,6260.5C 3086,6260.89 3074.66,6261.56 3063.5,6262.5C 2964.86,6264.82 2866.86,6258.15 2769.5,6242.5C 2769.14,6177.82 2768.14,6113.15 2766.5,6048.5C 2842.27,6046.63 2917.27,6038.13 2991.5,6023C 3099.67,6000.08 3202,5961.74 3298.5,5908C 3328.54,5894.11 3358.88,5880.95 3389.5,5868.5C 3390.39,5869.32 3390.72,5870.32 3390.5,5871.5 Z"/></g>
<g><path style="opacity:1" fill="#cbecfd" d="M 2705.5,6611.5 C 2689.47,6612.1 2673.47,6613.1 2657.5,6614.5C 2657.5,6612.17 2657.5,6609.83 2657.5,6607.5C 2669.62,6403.9 2679.95,6200.23 2688.5,5996.5C 2692.14,5997.11 2695.8,5997.45 2699.5,5997.5C 2702.31,6073.13 2703.81,6148.79 2704,6224.5C 2704.36,6353.5 2704.86,6482.5 2705.5,6611.5 Z"/></g>
<g><path style="opacity:1" fill="#2684ee" d="M 4995.5,6021.5 C 5122.16,6065.37 5252.16,6095.37 5385.5,6111.5C 5377.2,6202.82 5379.86,6293.82 5393.5,6384.5C 5321.34,6374.7 5250.34,6359.53 5180.5,6339C 5107.43,6313.59 5057.93,6264.43 5032,6191.5C 5019.08,6134.98 5006.91,6078.32 4995.5,6021.5 Z"/></g>
<g><path style="opacity:1" fill="#65c1f4" d="M 5983.5,6354.5 C 6040.76,6318.13 6079.26,6267.13 6099,6201.5C 6110.84,6152.85 6122.34,6104.18 6133.5,6055.5C 6156.49,6049.04 6179.32,6042.04 6202,6034.5C 6189.49,6089.53 6176.49,6144.53 6163,6199.5C 6134.85,6278.31 6080.35,6328.81 5999.5,6351C 5994.23,6352.48 5988.89,6353.65 5983.5,6354.5 Z"/></g>
<g><path style="opacity:1" fill="#23a6f0" d="M 6133.5,6055.5 C 6122.34,6104.18 6110.84,6152.85 6099,6201.5C 6079.26,6267.13 6040.76,6318.13 5983.5,6354.5C 5939.05,6365.86 5894.05,6375.19 5848.5,6382.5C 5862.2,6292.5 5864.86,6202.17 5856.5,6111.5C 5950.28,6099.6 6042.61,6080.93 6133.5,6055.5 Z"/></g>
<g><path style="opacity:1" fill="#d72345" d="M 5449.5,6135.5 C 5449.33,6142.51 5449.5,6149.51 5450,6156.5C 5455.55,6180.5 5460.22,6204.83 5464,6229.5C 5465.9,6236.91 5467.9,6244.24 5470,6251.5C 5472.41,6267.53 5475.07,6283.53 5478,6299.5C 5483.02,6320.89 5488.52,6342.22 5494.5,6363.5C 5496.4,6371.94 5498.07,6380.44 5499.5,6389C 5505.3,6405.42 5510.13,6422.25 5514,6439.5C 5515.67,6443.17 5517.33,6446.83 5519,6450.5C 5521.03,6460.27 5523.53,6469.94 5526.5,6479.5C 5527.85,6480.69 5529.02,6482.02 5530,6483.5C 5531.78,6492 5534.28,6500.34 5537.5,6508.5C 5541.85,6515.21 5544.68,6522.54 5546,6530.5C 5547,6531.17 5548,6531.83 5549,6532.5C 5555.31,6548.43 5563.31,6563.43 5573,6577.5C 5575.32,6580.48 5577.98,6583.15 5581,6585.5C 5582.12,6587.42 5582.96,6589.42 5583.5,6591.5C 5587.83,6592.5 5590.5,6595.17 5591.5,6599.5C 5595.84,6599.89 5599.51,6601.72 5602.5,6605C 5612.97,6608.68 5623.63,6609.35 5634.5,6607C 5642.89,6602.11 5650.89,6596.61 5658.5,6590.5C 5666.03,6581.8 5672.87,6572.47 5679,6562.5C 5686.38,6546.75 5694.04,6531.08 5702,6515.5C 5704.05,6506.87 5707.05,6498.53 5711,6490.5C 5714.25,6480.3 5717.25,6469.97 5720,6459.5C 5721.48,6457.27 5722.82,6454.94 5724,6452.5C 5730.48,6430.9 5736.65,6409.23 5742.5,6387.5C 5750.65,6349.89 5759.48,6312.55 5769,6275.5C 5774.81,6239.1 5781.81,6203.1 5790,6167.5C 5792.09,6156.94 5792.93,6146.28 5792.5,6135.5C 5799.1,6218.47 5795.6,6301.14 5782,6383.5C 5754.18,6539.33 5700.51,6685.33 5621,6821.5C 5541.57,6685.24 5487.9,6539.24 5460,6383.5C 5448.03,6311.97 5443.7,6239.97 5447,6167.5C 5447.51,6156.65 5448.34,6145.99 5449.5,6135.5 Z"/></g>
<g><path style="opacity:1" fill="#ccedfe" d="M 6401.5,6647.5 C 6201.19,6627.55 6000.52,6611.71 5799.5,6600C 5797.56,6599.88 5796.23,6599.05 5795.5,6597.5C 5811.68,6549.28 5825.02,6500.28 5835.5,6450.5C 5900.3,6441.24 5964.3,6428.07 6027.5,6411C 6041.46,6406.79 6055.13,6401.79 6068.5,6396C 6157.61,6352.7 6212.61,6282.54 6233.5,6185.5C 6274.02,6193.28 6312.35,6207.12 6348.5,6227C 6368.86,6239.03 6385.7,6254.86 6399,6274.5C 6410.53,6298.47 6416.86,6323.81 6418,6350.5C 6419.43,6381.15 6419.76,6411.82 6419,6442.5C 6416.55,6511.13 6410.71,6579.46 6401.5,6647.5 Z"/></g>
<g><path style="opacity:1" fill="#ccedfe" d="M 5439.5,6576.5 C 5439.5,6578.17 5439.5,6579.83 5439.5,6581.5C 5236.91,6573.17 5034.24,6567.5 4831.5,6564.5C 4824.34,6499.36 4821.51,6434.03 4823,6368.5C 4823.47,6354.09 4824.81,6339.75 4827,6325.5C 4830.24,6292.51 4844.41,6265.34 4869.5,6244C 4898.56,6221.8 4930.9,6205.97 4966.5,6196.5C 4968.61,6206.33 4971.44,6216 4975,6225.5C 5009.52,6312.35 5071.02,6370.85 5159.5,6401C 5240.46,6424.76 5322.79,6442.1 5406.5,6453C 5416.01,6494.53 5427.01,6535.7 5439.5,6576.5 Z"/></g>
<g><path style="opacity:1" fill="#fefefe" d="M 2583.5,6716.5 C 2562.05,6734.72 2537.38,6746.89 2509.5,6753C 2378.5,6753.67 2247.5,6753.67 2116.5,6753C 2077.22,6749.96 2040.55,6738.79 2006.5,6719.5C 2009.57,6697.03 2017.4,6676.36 2030,6657.5C 2047.89,6644.48 2067.72,6635.64 2089.5,6631C 2126.73,6622.79 2164.4,6617.79 2202.5,6616C 2286.96,6614.22 2371.3,6616.72 2455.5,6623.5C 2464.88,6623.95 2470.72,6619.62 2473,6610.5C 2474.63,6601.81 2471.47,6595.65 2463.5,6592C 2397.11,6581.87 2330.44,6573.87 2263.5,6568C 2203,6562.53 2142.66,6563.86 2082.5,6572C 2067.66,6574.88 2053,6578.38 2038.5,6582.5C 2036.83,6468.17 2035.49,6353.84 2034.5,6239.5C 2197.74,6278.73 2362.74,6287.9 2529.5,6267C 2556.89,6263.16 2584.22,6258.99 2611.5,6254.5C 2606.7,6350.18 2601.53,6445.85 2596,6541.5C 2592.47,6599.89 2588.31,6658.22 2583.5,6716.5 Z"/></g>
<g><path style="opacity:1" fill="#5b4866" d="M 3097.5,6260.5 C 3086.39,6262.25 3075.05,6262.92 3063.5,6262.5C 3074.66,6261.56 3086,6260.89 3097.5,6260.5 Z"/></g>
<g><path style="opacity:1" fill="#fefefe" d="M 3423.5,6719.5 C 3418.84,6722.5 3413.84,6725 3408.5,6727C 3377.56,6737.32 3345.89,6744.32 3313.5,6748C 3287.88,6750.29 3262.21,6751.96 3236.5,6753C 3096.17,6752.81 2955.84,6752.48 2815.5,6752C 2803.22,6749.43 2791.22,6745.93 2779.5,6741.5C 2776.29,6716.94 2774.12,6692.27 2773,6667.5C 2771.32,6627.18 2770.48,6586.85 2770.5,6546.5C 2770.5,6467.5 2770.5,6388.5 2770.5,6309.5C 2772.17,6309.5 2773.83,6309.5 2775.5,6309.5C 2904.32,6330.04 3033.65,6333.87 3163.5,6321C 3225.09,6313.98 3285.43,6301.15 3344.5,6282.5C 3333.57,6378.92 3321.91,6475.25 3309.5,6571.5C 3239.8,6567.09 3170.8,6571.93 3102.5,6586C 3094.57,6593.49 3093.41,6601.99 3099,6611.5C 3101.08,6613.12 3103.25,6614.62 3105.5,6616C 3161.17,6614.12 3216.5,6617.45 3271.5,6626C 3306.01,6631.12 3338.68,6641.79 3369.5,6658C 3395.17,6671.83 3413.17,6692.33 3423.5,6719.5 Z"/></g>
<g><path style="opacity:1" fill="#918298" d="M 2775.5,6309.5 C 2773.83,6309.5 2772.17,6309.5 2770.5,6309.5C 2770.5,6388.5 2770.5,6467.5 2770.5,6546.5C 2769.5,6467.34 2769.17,6388 2769.5,6308.5C 2771.74,6308.21 2773.74,6308.54 2775.5,6309.5 Z"/></g>
<g><path style="opacity:1" fill="#bfd8ee" d="M 4447.5,6556.5 C 4448.91,6556.97 4449.57,6557.97 4449.5,6559.5C 4359,6560.5 4268.33,6560.83 4177.5,6560.5C 4267.67,6559.67 4358,6559.17 4448.5,6559C 4447.75,6558.33 4447.41,6557.5 4447.5,6556.5 Z"/></g>
<g><path style="opacity:1" fill="#adc3da" d="M 4449.5,6559.5 C 4534.81,6692.36 4638.14,6810.19 4759.5,6913C 4794.9,6920.86 4822.74,6909.7 4843,6879.5C 4856.85,6851.74 4861.85,6822.4 4858,6791.5C 4848.43,6715.91 4839.59,6640.24 4831.5,6564.5C 5034.24,6567.5 5236.91,6573.17 5439.5,6581.5C 5439.5,6579.83 5439.5,6578.17 5439.5,6576.5C 5477.21,6693.24 5529.38,6802.91 5596,6905.5C 5599.21,6909.19 5603.04,6912.02 5607.5,6914C 5622.17,6919.29 5635,6916.46 5646,6905.5C 5654.25,6893.34 5662.25,6881 5670,6868.5C 5720.96,6782.57 5762.79,6692.24 5795.5,6597.5C 5796.23,6599.05 5797.56,6599.88 5799.5,6600C 6000.52,6611.71 6201.19,6627.55 6401.5,6647.5C 6396.06,6694.52 6390.23,6741.52 6384,6788.5C 6381.01,6815.56 6384.01,6841.9 6393,6867.5C 6411.14,6905.99 6440.97,6921.15 6482.5,6913C 6499.13,6899.37 6515.46,6885.37 6531.5,6871C 6594.09,6811.93 6652.09,6749.09 6705.5,6682.5C 6706.33,6683.75 6707.67,6684.41 6709.5,6684.5C 6806.8,6698.19 6903.47,6715.35 6999.5,6736C 7059.65,6749.16 7118.31,6767.16 7175.5,6790C 7197.79,6799.71 7217.96,6812.55 7236,6828.5C 7241.71,6834.88 7245.71,6842.21 7248,6850.5C 7249.12,6861.25 7246.45,6870.91 7240,6879.5C 7228.53,6892.64 7215.03,6903.14 7199.5,6911C 7171.08,6925.21 7141.74,6937.21 7111.5,6947C 7032.66,6970.4 6952.66,6989.07 6871.5,7003C 6749.32,7023.77 6626.65,7041.11 6503.5,7055C 6298.61,7077.64 6093.28,7095.31 5887.5,7108C 5379.49,7138.74 4870.99,7153.91 4362,7153.5C 3864.76,7154.47 3367.92,7140.97 2871.5,7113C 2613.17,7098.21 2355.5,7075.87 2098.5,7046C 1992.39,7032.98 1886.72,7016.98 1781.5,6998C 1704.31,6984.16 1628.31,6965.5 1553.5,6942C 1530.36,6933.76 1507.69,6924.43 1485.5,6914C 1476.83,6908.67 1468.17,6903.33 1459.5,6898C 1447.99,6889.44 1439.49,6878.61 1434,6865.5C 1431.15,6855.57 1432.48,6846.23 1438,6837.5C 1443.49,6829.68 1449.99,6822.85 1457.5,6817C 1484.74,6798.68 1514.08,6784.35 1545.5,6774C 1606.42,6753.81 1668.42,6737.47 1731.5,6725C 1802.47,6710.78 1873.8,6698.62 1945.5,6688.5C 1940.84,6709.24 1939.34,6730.24 1941,6751.5C 1947.41,6803.18 1971.91,6843.68 2014.5,6873C 2052.53,6894.76 2093.53,6906.76 2137.5,6909C 2256.83,6909.67 2376.17,6909.67 2495.5,6909C 2501.55,6907.88 2507.55,6906.55 2513.5,6905C 2582.79,6883.71 2625.96,6837.87 2643,6767.5C 2649.36,6714.15 2654.2,6660.82 2657.5,6607.5C 2657.5,6609.83 2657.5,6612.17 2657.5,6614.5C 2673.47,6613.1 2689.47,6612.1 2705.5,6611.5C 2706.5,6650.23 2708.67,6688.9 2712,6727.5C 2713.78,6747.97 2717.78,6767.97 2724,6787.5C 2748.61,6853.12 2795.11,6893.28 2863.5,6908C 2979.67,6908.24 3095.84,6908.74 3212,6909.5C 3237.2,6909.53 3262.36,6908.7 3287.5,6907C 3322.68,6904.46 3357.18,6898.29 3391,6888.5C 3429.15,6878 3457.49,6855.34 3476,6820.5C 3506.16,6756.82 3498.83,6697.82 3454,6643.5C 3431.44,6619.3 3404.94,6600.63 3374.5,6587.5C 3373.67,6582.01 3374,6576.67 3375.5,6571.5C 3375.5,6573.17 3375.5,6574.83 3375.5,6576.5C 3642.75,6567.31 3910.08,6561.98 4177.5,6560.5C 4268.33,6560.83 4359,6560.5 4449.5,6559.5 Z"/></g>
<g><path style="opacity:1" fill="#c4bcc9" d="M 3423.5,6719.5 C 3435.53,6756.86 3426.87,6788.7 3397.5,6815C 3380.59,6824.3 3362.59,6830.64 3343.5,6834C 3309.06,6839.57 3274.4,6842.91 3239.5,6844C 3116.84,6843.81 2994.17,6843.48 2871.5,6843C 2819.99,6828 2789.33,6794.16 2779.5,6741.5C 2791.22,6745.93 2803.22,6749.43 2815.5,6752C 2955.84,6752.48 3096.17,6752.81 3236.5,6753C 3262.21,6751.96 3287.88,6750.29 3313.5,6748C 3345.89,6744.32 3377.56,6737.32 3408.5,6727C 3413.84,6725 3418.84,6722.5 3423.5,6719.5 Z"/></g>
<g><path style="opacity:1" fill="#c4bcc9" d="M 2583.5,6716.5 C 2584.77,6763.63 2566.43,6800.8 2528.5,6828C 2516.4,6835.48 2503.4,6840.81 2489.5,6844C 2373.5,6844.67 2257.5,6844.67 2141.5,6844C 2109.81,6841.6 2079.81,6833.26 2051.5,6819C 2017.33,6794.5 2002.33,6761.33 2006.5,6719.5C 2040.55,6738.79 2077.22,6749.96 2116.5,6753C 2247.5,6753.67 2378.5,6753.67 2509.5,6753C 2537.38,6746.89 2562.05,6734.72 2583.5,6716.5 Z"/></g>
</svg>
