<?xml version="1.0" encoding="utf-8"?>
<!-- Generator: Adobe Illustrator 27.5.0, SVG Export Plug-In . SVG Version: 6.00 Build 0)  -->
<svg version="1.1" id="Layer_1" xmlns="http://www.w3.org/2000/svg" xmlns:xlink="http://www.w3.org/1999/xlink" x="0px" y="0px"
	 viewBox="890 0 2000 4000" style="enable-background:new 890 0 2000 4000;" xml:space="preserve">
<g>
	<rect style="fill:#22A7F0;" width="4000" height="4000"/>
	<g>
		<g>
			<path style="fill:#371A45;" d="M1448.85,1694.483L1130.3,2948.829c-0.878,3.455-4.39,5.544-7.844,4.666
				c-3.423-0.869-5.504-4.331-4.689-7.754l300.648-1258.757C1423.612,1667.264,1453.344,1673.69,1448.85,1694.483L1448.85,1694.483z
				"/>
		</g>
		<g>
			<path style="fill:#371A45;" d="M1588.687,2462.142l-81.403,355.995c-0.894,3.91-4.789,6.356-8.7,5.461
				c-3.795-0.868-6.207-4.58-5.529-8.372l64.923-359.366C1562.392,2435.23,1592.706,2441.25,1588.687,2462.142L1588.687,2462.142z"
				/>
		</g>
		<g>
			<path style="fill:#371A45;" d="M1354.641,835.665c-101.583,358.676-212.942,769.499-319.216,1125.75
				c-0.944,2.961-4.108,4.599-7.07,3.658c-2.811-0.893-4.424-3.809-3.778-6.633c90.282-360.314,204.277-771.07,299.833-1131.068
				C1330.161,807.838,1359.623,815.046,1354.641,835.665L1354.641,835.665z"/>
		</g>
		<g>
			<path style="fill:#371A45;" d="M2602.257,2578.868l-61.936,322.331c-0.61,3.175-3.679,5.254-6.854,4.644
				c-3.053-0.586-5.09-3.465-4.7-6.508l42.545-325.459C2574.765,2552.908,2605.546,2557.71,2602.257,2578.868L2602.257,2578.868z"/>
		</g>
		<g>
			<path style="fill:#371A45;" d="M2513.453,2542.266l-45.062,228.51c-1.819,8.716-14.93,6.747-13.97-2.223
				c0,0,28.076-231.212,28.076-231.212C2485.816,2516.174,2516.847,2520.999,2513.453,2542.266L2513.453,2542.266z"/>
		</g>
		<g>
			<g>
				
					<linearGradient id="SVGID_1_" gradientUnits="userSpaceOnUse" x1="16076.8926" y1="7064.8545" x2="16070.7656" y2="6499.04" gradientTransform="matrix(0.9748 0.2232 -0.2232 0.9748 -12109.0947 -6830.9111)">
					<stop  offset="0" style="stop-color:#EB201A"/>
					<stop  offset="0.9972" style="stop-color:#EF7D30"/>
				</linearGradient>
				<path style="fill:url(#SVGID_1_);" d="M2204.616,2998.074c200.224,289.26-161.098,363.641-228.862,650.171
					c67.764-286.53-224.227-505.312,86.127-681.72"/>
				<g>
					<path style="fill:#371A45;" d="M1975.767,3663.923c-1.194,0-2.407-0.137-3.618-0.425c-8.425-1.992-13.638-10.435-11.646-18.857
						l0,0c25.547-108.027-1.57-204.878-27.793-298.54c-40.271-143.823-78.306-279.67,121.426-393.201
						c7.515-4.282,17.087-1.646,21.37,5.881c4.277,7.524,1.643,17.092-5.881,21.37c-178.43,101.421-146.79,214.426-106.731,357.498
						c17.268,61.675,36.064,128.806,38.752,200.857c34.81-63.899,81.99-116.548,125.325-164.91
						c100.4-112.041,179.705-200.54,64.758-366.599c-4.927-7.119-3.152-16.88,3.965-21.807c7.119-4.932,16.88-3.149,21.807,3.965
						c129.023,186.399,33.718,292.756-67.185,405.359c-65.754,73.379-133.748,149.258-159.309,257.339c-0.002,0.007,0.002-0.005,0,0
						C1989.302,3659.064,1982.869,3663.923,1975.767,3663.923z"/>
				</g>
				<g>
					<path style="fill:#FFCF02;" d="M2159.916,2983.339c46.585,36.347,52.723,78.148,46.944,123.441
						c-14.118,110.643-111.829,143.485-157.539,230.395c-2.102-97.478-75.344-168.105-38.325-273.686
						c15.154-43.221,39.472-78.291,97.766-91.456"/>
				</g>
				
					<linearGradient id="SVGID_00000020368016294247073370000011952279252704348342_" gradientUnits="userSpaceOnUse" x1="15741.4844" y1="7169.9707" x2="15734.8965" y2="6561.6802" gradientTransform="matrix(0.9745 0.2244 -0.2244 0.9745 -12095.8506 -6850.4961)">
					<stop  offset="0" style="stop-color:#EB201A"/>
					<stop  offset="0.9972" style="stop-color:#EF7D30"/>
				</linearGradient>
				<path style="fill:url(#SVGID_00000020368016294247073370000011952279252704348342_);" d="M1871.406,2974.642
					c214.844,311.246-173.695,390.703-246.944,698.639c73.249-307.936-240.346-543.543,93.543-732.754"/>
				<g>
					<path style="fill:#371A45;" d="M1624.473,3688.957c-1.201,0-2.419-0.139-3.64-0.43c-7.202-1.714-12.051-8.145-12.048-15.239
						c0-1.199,0.139-2.417,0.43-3.635c27.686-116.392-1.372-220.696-29.473-321.567c-42.961-154.216-83.54-299.878,130.535-421.194
						c7.537-4.265,17.095-1.621,21.362,5.908c4.268,7.532,1.621,17.095-5.908,21.362
						c-192.759,109.236-158.794,231.155-115.793,385.513c18.804,67.495,39.304,141.074,41.472,220.071
						c37.642-70.273,89.404-127.891,136.875-180.725c108.44-120.696,194.092-216.028,70.225-395.474
						c-4.917-7.124-3.127-16.885,3.994-21.802c7.127-4.915,16.885-3.12,21.802,3.994c137.917,199.802,35.61,313.672-72.703,434.229
						c-70.891,78.904-144.194,160.491-171.895,276.941C1637.996,3684.108,1631.566,3688.957,1624.473,3688.957z"/>
				</g>
				<g>
					<path style="fill:#FFCF02;" d="M1823.373,2958.738c50.03,39.139,56.57,84.086,50.294,132.77
						c-15.332,118.926-120.421,154.095-169.682,247.463c-2.124-104.795-80.762-180.824-40.818-294.276
						c16.352-46.443,42.543-84.11,105.231-98.182"/>
				</g>
			</g>
			<g>
				<g>
					<g>
						<path style="fill:#FFFFFF;" d="M1442.201,2284.964c19.384,17.631,46.93,30.58,78.041,40.024
							c109.064,33.123,262.049,23.44,262.049,23.44l110.048-718.352L1907.8,1529.1c-11.078,3.431-276.423,11.795-418.922,86.989
							C1370.036,1678.812,1347.921,2199.203,1442.201,2284.964z"/>
					</g>
					<g style="opacity:0.25;">
						<path style="fill:#371A45;" d="M1442.201,2284.964c19.384,17.631,46.93,30.58,78.041,40.024
							c1.404,0.422,2.807,0.845,4.21,1.236c1.978,0.591,3.955,1.15,5.962,1.677c2.264,0.644,4.558,1.255,6.883,1.833
							c1.433,0.358,2.867,0.716,4.301,1.106c5.953,1.425,11.998,2.783,18.134,4.044c2.639,0.536,5.309,1.07,7.978,1.573
							c0.762,0.13,1.525,0.292,2.287,0.422c1.811,0.344,3.623,0.689,5.464,1.001c0.603,0.104,1.239,0.208,1.873,0.311
							c3.017,0.522,6.032,1.012,9.08,1.501c6.062,0.948,12.12,1.801,18.208,2.59c1.522,0.197,3.044,0.395,4.534,0.593
							c3.043,0.363,6.085,0.726,9.095,1.059c1.49,0.167,3.01,0.332,4.531,0.498c1.49,0.167,3.009,0.301,4.498,0.468
							c3.611,0.374,7.188,0.686,10.734,0.999c1.741,0.158,3.451,0.317,5.192,0.443c6.552,0.551,13.006,1.011,19.363,1.38
							c1.456,0.105,2.879,0.18,4.301,0.254c0.696,0.038,1.391,0.076,2.087,0.114c1.139,0.085,2.277,0.138,3.415,0.192
							c2.498,0.13,4.964,0.261,7.397,0.363c2.496,0.099,4.962,0.199,7.395,0.3c6.889,0.255,13.555,0.455,19.965,0.569
							c2.496,0.067,4.958,0.104,7.357,0.112c2.495,0.067,4.925,0.074,7.292,0.083c1.832,0.028,3.63,0.026,5.366,0.026
							c2.652,0.03,5.239,0,7.763,0.002c1.041-0.006,2.114-0.014,3.123-0.019c27.037-0.192,44.259-1.29,44.259-1.29l110.048-718.352
							c-9.727,0.668-18.821,1.377-27.128,2.057c-31.904,2.609-52.394,4.962-52.394,4.962s-161.658-24.115-186.113,35.973
							c-39.321,96.539-53.417,162.942-88.091,309.3c-3.526,14.907-6.811,29.736-9.809,44.418
							c-7.243,35.476-50.34,50.431-77.261,26.218c-0.171-0.154-0.342-0.308-0.512-0.463
							c-31.982-29.103-50.569-108.269-56.517-202.63C1370.726,2022.318,1385.189,2233.101,1442.201,2284.964z"/>
					</g>
					<g style="opacity:0.25;">
						<path style="fill:#371A45;" d="M1880.597,1531.696l-15.386,100.437c8.306-0.68,17.401-1.389,27.128-2.057L1907.8,1529.1
							C1905.865,1529.707,1896.109,1530.439,1880.597,1531.696z"/>
					</g>
					<g>
						<path style="fill:#371A45;" d="M1728.67,2365.502c-81.221,0-230.83-8.733-297.007-68.943
							c-61.582-56.03-75.913-266.389-54.192-437.388c10.273-80.867,37.456-221.775,104.084-256.931
							c121.697-64.214,323.989-80.3,400.146-86.357c10.151-0.806,19.758-1.57,22.271-1.975c8.032-2.004,16.321,2.581,18.789,10.581
							c2.551,8.271-2.082,17.043-10.354,19.597c-3.235,0.999-7.229,1.375-28.223,3.045c-67.278,5.349-272.014,21.631-388,82.832
							c-38.345,20.232-71.919,109.573-87.617,233.159c-22.842,179.805-2.605,367.678,44.189,410.254
							c81.511,74.16,326.074,59.565,328.535,59.409c8.708-0.532,16.086,6.013,16.631,14.648c0.549,8.638-6.008,16.084-14.648,16.633
							C1780.367,2364.25,1759.417,2365.502,1728.67,2365.502z M1903.765,1513.962c-0.242,0.061-0.439,0.125-0.6,0.173
							C1903.365,1514.074,1903.565,1514.015,1903.765,1513.962z"/>
					</g>
					<g>
						<path style="fill:#371A45;" d="M1471.946,1615.359c54.45,5.234,106.527,23.959,154.446,49.524
							c-25.079-8.626-50.797-15.216-76.906-19.313c-25.333-3.823-51.769-6.063-77.132-4.082
							C1453.639,1642.564,1453.15,1614.886,1471.946,1615.359L1471.946,1615.359z"/>
					</g>
					<g>
						<path style="fill:#FFFFFF;" d="M1386.904,1990.697l130.154,17.305c11.62,1.545,20.743,10.713,22.166,22.348
							c5.212,42.607,12.143,141.638-30.735,171.752c-35.589,24.995-90.686,18.664-121.507-10.607
							c-34.476-32.743-32.49-129.367-29.168-177.067C1358.847,1999.598,1372.168,1988.738,1386.904,1990.697z"/>
					</g>
					<g style="opacity:0.25;">
						<path style="fill:#371A45;" d="M1539.214,2030.364c5.235,42.593,12.147,141.628-30.736,171.728
							c-35.596,25.007-90.678,18.674-121.516-10.606c-21.186-20.151-28.597-64.457-30.385-106.667
							c4.687,21.307,12.956,38.865,23.815,50.696c62.215,67.788,115.722-4.866,115.722-4.866s7.486,18.816,14.229,20.243
							c28.196,5.97,27.416-83.413,25.94-129.654C1537.798,2023.986,1538.823,2027.059,1539.214,2030.364z"/>
					</g>
					<g>
						<path style="fill:#371A45;" d="M1455.948,2233.307c-29.082,0.002-58.65-10.403-79.758-30.447
							c-36.594-34.756-38.694-122.246-34.011-189.521c0.791-11.362,6.304-22.009,15.125-29.209
							c8.828-7.202,20.344-10.479,31.67-8.967l130.149,17.305c18.708,2.488,33.372,17.283,35.659,35.976
							c6.743,55.129,10.869,152.664-37.285,186.482C1499.891,2227.292,1478.057,2233.305,1455.948,2233.307z M1383.47,2006.142
							c-2.312,0-4.524,0.786-6.348,2.273c-2.173,1.775-3.479,4.297-3.674,7.102c-5.786,83.115,3.308,144.653,24.329,164.614
							c26.438,25.107,73.013,29.299,101.707,9.146c29.463-20.693,31.811-94.683,24.185-157.026
							c-0.554-4.524-4.121-8.105-8.677-8.713l-130.151-17.305c0,0,0,0-0.002,0
							C1384.381,2006.171,1383.924,2006.142,1383.47,2006.142z"/>
					</g>
					<g>
						<path style="fill:#371A45;" d="M1438.257,2206.665c39.249-18.778,53.747-65.026,58.146-105.799
							c1.592-14.771,3-29.812,0.658-44.585c4.16,14.5,4.609,29.868,4.829,44.892c1.14,46.481-11.971,101.216-55.578,126.008
							C1431.779,2233.872,1423.02,2211.669,1438.257,2206.665L1438.257,2206.665z"/>
					</g>
				</g>
				<g>
					<g>
						<g>
							<path style="fill:#FFFFFF;" d="M2794.548,2507.936c-2.037,14.106-12.903,26.017-28.315,28.42
								c-40.957,6.269-87.086,1.045-127.207-7c0,26.121-20.896,57.465-52.241,47.017c-48.271-13.792-100.825-42.316-147.633-77.422
								c-42.159-31.605-67.809-80.555-70.735-133.11c-28.628-218.629-77.16-482.655-87.817-660.327
								c-6.739-112.423,1.619-190.21,39.755-200.084c14.157,9.925,28.158,20.792,41.95,32.598
								c60.599,51.875,102.601,122.14,122.191,199.456l149.306,588.131c67.339,56.525,140.372,113.624,159.074,165.5
								C2794.914,2496.757,2795.436,2502.504,2794.548,2507.936z"/>
						</g>
						<g>
							<path style="fill:#371A45;" d="M2598.883,2594.091c-5.498,0-11.108-0.906-16.711-2.737
								c-47.939-13.752-102.065-42.104-152.444-79.861c-45.52-34.116-73.533-86.646-76.919-144.199
								c-9.834-75.044-22.224-156.855-34.207-235.979c-57.976-382.81-89.099-618.572-2.173-641.059
								c4.456-1.14,9.167-0.296,12.925,2.341c14.795,10.376,29.316,21.65,43.164,33.513
								c62.283,53.342,106.26,125.103,127.18,207.525l148.049,583.22c5.093,4.265,10.21,8.53,15.327,12.798
								c64.875,54.092,126.157,105.183,144.568,156.147c5.12,14.177,3.694,29.646-3.909,42.446
								c-7.561,12.727-20.374,21.323-35.154,23.586c-32.715,5.015-71.797,3.643-116.353-4.063
								c-4.031,14.966-12.761,28.45-24.443,36.873C2619.1,2590.903,2609.193,2594.091,2598.883,2594.091z M2318.538,1523.388
								c-14.106,10.291-30.735,50.071-21.929,187.193c7.388,114.983,30.566,268.032,52.983,416.04
								c12.036,79.478,24.482,161.66,34.368,237.17c0.051,0.383,0.088,0.771,0.107,1.16c2.712,48.523,26.206,92.793,64.458,121.46
								c47.502,35.601,98.132,62.2,142.566,74.895c0.217,0.061,0.435,0.129,0.649,0.2c6.692,2.234,12.483,1.479,17.712-2.29
								c8.054-5.806,13.901-18.364,13.901-29.861c0-4.7,2.107-9.15,5.742-12.126s8.418-4.172,13.02-3.237
								c47.759,9.607,88.711,11.914,121.716,6.86c5.557-0.852,10.156-3.911,12.952-8.616c2.839-4.778,3.328-10.383,1.375-15.786
								c-15.525-42.976-76.343-93.684-135.159-142.722c-6.443-5.371-12.886-10.745-19.277-16.111
								c-2.515-2.112-4.304-4.961-5.112-8.147l-149.294-588.125c-19.321-76.121-59.844-142.314-117.19-191.428
								C2341.295,1540.634,2330.025,1531.735,2318.538,1523.388z"/>
						</g>
						<g>
							<path style="fill:#371A45;" d="M2650.625,2360.087c-25.38-24.781-68.944-29.977-104.107-23.661
								c-6.956,1.307-9.72-8.77-3.049-11.172c40.71-14.138,90.174-15.04,127.251,10.776
								C2688.981,2349.727,2667.384,2375.643,2650.625,2360.087L2650.625,2360.087z"/>
						</g>
						<g>
							<path style="fill:#371A45;" d="M2649.205,2547.181c-18.595-6.61-33.881-18.542-47.349-31.83
								c-12.793-12.689-23.772-26.128-34.824-39.338c-2.064-2.468-1.737-6.142,0.73-8.207c2.179-1.822,5.309-1.77,7.43-0.039
								c24.491,19.479,51.568,44.295,82.029,49.112C2680.169,2521.305,2671.402,2554.65,2649.205,2547.181L2649.205,2547.181z"/>
						</g>
						<g style="opacity:0.25;">
							<g>
								<path style="fill:#371A45;" d="M2794.548,2507.936c-2.037,14.106-12.903,26.017-28.315,28.42
									c-40.957,6.269-87.086,1.045-127.207-7c0,26.121-20.896,57.465-52.241,47.017c-48.271-13.792-100.825-42.316-147.633-77.422
									c-42.159-31.605-67.809-80.555-70.735-133.11c-28.628-218.629-77.16-482.655-87.817-660.327
									c29.569-2.299,59.973-1.62,88.705-8.724l27.531-17.867c78.048,171.873,97.743,365.218,90.168,553.808
									c-0.888,21.732-1.306,45.92,13.216,62.115c30.823,34.531,98.475,3.082,129.141,37.77
									c-27.218-15.15-63.525,8.777-70.212,39.181c-6.635,30.404,8.359,61.593,28.054,85.676
									c31.135,38.084,76.637,65.824,125.744,69.376C2741.158,2528.885,2770.204,2522.146,2794.548,2507.936z"/>
							</g>
						</g>
					</g>
					<g>
						<g>
							<path style="fill:#FFFFFF;" d="M2309.907,2848.027c46.286,49.629,72.406,102.602,41.322,165.239
								c-0.574,1.149-1.201,2.351-1.828,3.553c-11.859,22.411-35.524,36.255-60.862,36.464
								c-126.319,0.835-239.995-42.629-323.424-116.446l-88.81-130.603l114.93-470.17l294.901-93.512l133.476-42.315
								C2419.352,2413.433,2391.978,2628.666,2309.907,2848.027z"/>
						</g>
						<g>
							<path style="fill:#371A45;" d="M2285.02,3068.947c-125.337,0.005-242.5-42.673-330.293-120.376
								c-0.974-0.864-1.838-1.846-2.571-2.922l-88.809-130.601c-2.495-3.669-3.318-8.225-2.266-12.534l114.929-470.171
								c1.299-5.315,5.274-9.565,10.488-11.218l428.376-135.828c4.763-1.509,9.963-0.659,14.001,2.297
								c4.033,2.957,6.414,7.661,6.406,12.661c-0.291,237.622-35.422,448.501-107.361,644.265
								c36.899,41.411,75.83,103,35.317,179.617c-14.502,27.427-43.083,44.592-74.587,44.797
								C2287.447,3068.942,2286.226,3068.947,2285.02,3068.947z M1976.961,2926.384c82.686,72.505,193.174,112.102,311.487,111.208
								c19.944-0.132,37.986-10.901,47.083-28.108c26.26-49.661,15.168-94.749-37.083-150.767
								c-4.055-4.348-5.303-10.615-3.218-16.182c70.659-188.86,106.235-392.146,108.586-620.85l-399.448,126.655l-111.182,454.844
								L1976.961,2926.384z"/>
						</g>
						<g>
							<path style="fill:#371A45;" d="M2316.917,2862.044c-49.484,19.911-103.657,12.242-149.91-9.377
								c-5.501-2.631-2.121-11.184,3.699-9.279c42.71,13.112,93.995,13.365,132.192-9.379
								C2322.57,2823.106,2337.493,2852.789,2316.917,2862.044L2316.917,2862.044z"/>
						</g>
						<g>
							<path style="fill:#371A45;" d="M2240.081,2711.977c-113.313,0-236.658-44.49-318.855-122.151
								c-6.292-5.945-6.572-15.864-0.628-22.156c5.943-6.289,15.864-6.57,22.156-0.627
								c119.983,113.362,305.54,136.279,415.618,92.939c8.059-3.171,17.156,0.786,20.325,8.84c3.171,8.054-0.786,17.153-8.84,20.325
								C2330.562,2704.618,2286.138,2711.977,2240.081,2711.977z"/>
						</g>
						<g style="opacity:0.25;">
							<g>
								<path style="fill:#371A45;" d="M2351.229,3013.265c-0.574,1.149-1.201,2.351-1.828,3.553
									c-11.859,22.411-35.524,36.255-60.862,36.464c-126.319,0.835-239.995-42.629-323.424-116.446l-88.81-130.603l114.93-470.17
									l294.901-93.512c6.635,6.896,11.65,15.098,14.366,24.762c3.97,14.158,2.247,29.202-0.626,43.621
									c-7.523,37.457-23.039,73.294-45.189,104.482l8.568-5.381c-32.808,25.285-63.317,55.01-82.124,91.945
									c-16.926,33.33-23.456,70.839-29.777,107.721c-5.694,32.964-11.337,65.928-16.979,98.893
									c-5.486,32.023-10.918,65.562-0.888,96.437c9.769,30.143,39.39,56.316,70.369,51.771
									c-23.143,4.336-49.368,12.068-57.256,34.009c-5.224,14.575-0.105,30.822,7.001,44.614
									c25.284,49.054,77.16,83.272,132.117,87.19C2307.922,3024.183,2330.333,3020.84,2351.229,3013.265z"/>
							</g>
						</g>
					</g>
					<g>
						<g>
							<path style="fill:#FFFFFF;" d="M2439.988,2150.346c-13.583,68.854-38.449,128.566-75.646,176.001
								c-65.458,83.742-169.052,129.244-315.64,119.423c-15.202,154.059-33.957,301.535-83.586,391.808
								c46.129,21.001,73.19,73.921,64.883,133.267c-0.783,5.694-1.88,11.388-3.343,17.188
								c-4.441,17.657-18.494,31.292-36.047,35.941c-161.947,42.525-431.564-57.099-406.854-170.724
								c49.524-167.433,60.391-363.86,52.241-574.652l32.807-141.73l129.14-558.301l501.515-88.81l99.258,182.844
								C2450.227,1850.848,2466.16,2017.602,2439.988,2150.346z"/>
						</g>
						<g>
							<path style="fill:#371A45;" d="M2405.693,1670.584c85.533,250.665,124.068,678.374-193.234,775.534
								c-53.412,15.258-110.031,18.936-164.807,15.289c0,0.005,16.653-14.111,16.646-14.091
								c-6.688,66.947-13.914,134.07-25.461,200.982c-12.141,67.602-27.243,135.141-59.986,196.83c0,0-7.249-21.816-7.249-21.816
								c47.373,21.185,75.224,72.889,75.44,123.47c0.293,17.07-1.809,33.044-6.553,49.715c-6.282,18.98-21.599,34.196-40.055,40.765
								c-45.446,13.409-94.201,14.313-140.797,10.074c-61.721-6.067-122.074-22.016-178.167-48.863
								c-55.177-27.094-126.67-76.93-113.03-148.551c54.438-185.757,57.679-382.353,52.287-574.857
								c0.001,0,161.949-700.03,161.949-700.03c1.458-6.304,6.544-10.831,12.537-11.9l501.514-88.81
								c8.523-1.509,16.656,4.176,18.165,12.699s-4.176,16.656-12.699,18.165L1800.677,1594l12.535-11.899l-161.947,700.03
								c5.2,74.708,3.338,196.528-3.123,287.214c-6.938,95.206-22.786,199.183-49.073,287.236
								c-9.271,53.74,53.956,92.302,96.132,113.717c78.106,36.707,167.866,54.692,253.905,45.412
								c12.389-1.299,24.588-3.826,36.664-6.716c20.789-5.111,26.885-22.207,28.767-41.524
								c6.944-44.861-13.32-96.712-55.906-115.623c-7.878-3.578-11.364-12.864-7.787-20.743
								c30.762-57.666,45.605-123.661,57.113-188.187c51.727-294.338-29.915-184.471,165.713-219.827
								c234.066-45.26,280.724-293.27,261.371-497.164c-7.167-84.493-23.847-168.119-43.301-251.308
								c-0.942-3.916,1.488-7.863,5.414-8.777C2400.82,1664.984,2404.497,1667.098,2405.693,1670.584L2405.693,1670.584z"/>
						</g>
						<g>
							<path style="fill:#371A45;" d="M1972.125,2851.596c-46.491,20.359-99.526,16.296-145.114-1.887
								c-3.743-1.477-5.579-5.708-4.1-9.45c1.372-3.478,5.13-5.312,8.655-4.362c41.996,11.16,89.222,9.791,126.541-12.335
								C1977.621,2813.064,1992.278,2842.223,1972.125,2851.596L1972.125,2851.596z"/>
						</g>
						<g>
							<path style="fill:#371A45;" d="M2119.045,2461.809c-71.669,3.654-148.218-11.644-204.859-57.713
								c-2.843-2.279-3.3-6.433-1.02-9.276c2.196-2.756,5.984-3.142,8.845-1.41c29.575,15.651,61.475,27.318,94.573,32.311
								c33.45,5.956,67.922,5.443,101.835,4.865C2138.532,2431.081,2139.169,2460.469,2119.045,2461.809L2119.045,2461.809z"/>
						</g>
						<g>
							<path style="fill:#371A45;" d="M1891.146,2700.363c-103.711,0-214.216-31.946-272.251-99.846
								c-5.622-6.58-4.849-16.472,1.731-22.097c6.582-5.63,16.47-4.849,22.097,1.731c74.551,87.224,257.932,109.104,372.09,70.393
								c8.201-2.773,17.095,1.611,19.875,9.807c2.781,8.198-1.611,17.097-9.807,19.875
								C1985.687,2693.517,1939.136,2700.363,1891.146,2700.363z"/>
						</g>
						<g style="opacity:0.25;">
							<g>
								<path style="fill:#371A45;" d="M1861.005,1800.24c-2.602,22.136-5.204,44.273-7.806,66.409
									c-2.136,18.171-4.266,36.643-1.176,54.677c3.09,18.034,12.184,35.895,27.867,45.319
									c23.499,14.121,53.495,5.909,79.536-2.663c3.223,27.386,6.446,54.772,9.669,82.158c1.186,10.075,2.187,21.043-3.173,29.656
									c-5.271,8.468-15.334,12.446-24.789,15.624c-50.55,16.992-103.58,26.582-156.879,28.371
									c-17.467,0.586-37.972-1.218-47.395-15.937c-7.029-10.98-5.117-25.208-2.949-38.063
									c8.133-48.242,16.366-96.858,33.877-142.539c17.511-45.681,45.158-88.789,85.323-116.721"/>
							</g>
						</g>
						<g style="opacity:0.25;">
							<g>
								<path style="fill:#371A45;" d="M1856.036,2847.765c6.06,1.201,12.067,2.717,17.867,4.284
									C1867.895,2850.848,1861.94,2849.385,1856.036,2847.765z"/>
							</g>
						</g>
						<g style="opacity:0.25;">
							<g>
								<path style="fill:#371A45;" d="M2057.426,2438.091c11.441,1.149,22.987,1.724,34.532,1.776
									C2080.465,2440.232,2068.763,2439.971,2057.426,2438.091z"/>
							</g>
						</g>
						<g style="opacity:0.25;">
							<g>
								<path style="fill:#371A45;" d="M2439.988,2150.346c-13.583,68.854-38.449,128.566-75.646,176.001l-15.881-15.725
									c-86.772-4.388-173.858-1.515-260.16,8.515c-19.747,2.246-39.913,5.067-57.465,14.418
									c-17.554,9.351-32.181,26.591-32.912,46.442c-0.784,20.949,14.157,40.069,32.808,49.577
									c8.41,4.284,17.396,6.948,26.694,8.516c-23.404-2.403-46.546-7.21-68.958-14.314c-29.62-9.351-60.13-22.935-90.534-16.456
									c-37.039,7.836-61.853,43.464-74.235,79.25c-32.441,93.982-4.858,199.926-33.277,295.215
									c-3.344,11.179-7.315,23.926-1.254,33.852c3.5,5.746,9.56,9.195,15.516,12.224c16.351,8.306,33.538,14.993,51.248,19.851
									c-18.911-3.866-38.397-4.806-54.226,5.329c-22.986,14.732-27.479,48.741-15.359,73.242
									c12.172,24.448,36.726,40.435,62.062,50.621c57.884,23.195,125.118,20.061,181.59-6.06
									c-0.783,5.694-1.88,11.388-3.343,17.188c-4.441,17.657-18.494,31.292-36.047,35.941
									c-161.947,42.525-431.564-57.099-406.854-170.724c49.524-167.433,60.391-363.86,52.241-574.652l32.807-141.73
									c111.796-24.031,224.428-44.457,338.418-51.667c134.886-8.568,272.332,1.777,400.271,45.397
									c9.456,3.187,19.121,6.739,26.591,13.374C2436.331,2145.958,2438.264,2148.1,2439.988,2150.346z"/>
							</g>
						</g>
					</g>
					<g>
						<g>
							<g>
								<path style="fill:#FFFFFF;" d="M2381.902,2267.868l-374.149,0.991c-44.283,0.131-80.647-36.015-80.775-80.354
									l-0.517-199.103c-0.104-38.817,27.608-71.492,64.261-79.098c5.189-1.113,10.571-1.652,16.093-1.677l374.093-0.995
									c44.34-0.129,80.704,36.018,80.775,80.354l0.447,157.695l0.126,41.41
									C2462.385,2231.432,2426.185,2267.736,2381.902,2267.868z"/>
							</g>
							<g style="opacity:0.25;">
								<path style="fill:#371A45;" d="M2381.902,2267.868l-374.149,0.991c-44.283,0.131-80.647-36.015-80.775-80.354
									l-0.517-199.103c-0.104-38.817,27.608-71.492,64.261-79.098c21.283,14.053,34.798,23.045,34.798,23.045
									c18.641,159.771,11.931,278.271,259.861,261.172c85.475-5.895,142.679-31.172,176.749-48.839l0.126,41.41
									C2462.385,2231.432,2426.185,2267.736,2381.902,2267.868z"/>
							</g>
							<g>
								<path style="fill:#371A45;" d="M2007.552,2281.94c-51.506,0-93.479-41.833-93.618-93.376l-0.532-199.131
									c-0.137-51.623,41.75-93.735,93.374-93.875l374.121-1.001c0.081-0.002,0.168-0.002,0.251-0.002
									c51.511,0,93.484,41.833,93.623,93.376l0.532,199.133c0.066,24.917-9.634,48.43-27.314,66.206s-41.14,27.6-66.06,27.666
									l-374.121,1.001C2007.725,2281.94,2007.637,2281.94,2007.552,2281.94z M2381.146,1920.676c-0.061,0-0.12,0-0.181,0
									l-374.121,1.001c-37.219,0.103-67.422,30.466-67.324,67.688l0.532,199.131c0.049,17.942,7.141,34.851,19.971,47.61
									c12.783,12.717,29.658,19.714,47.532,19.714c0.061,0,0.122,0,0.186,0l0,0l374.121-1.001
									c17.939-0.049,34.849-7.139,47.61-19.968c12.759-12.83,19.761-29.775,19.714-47.717L2448.653,1988
									C2448.551,1950.842,2418.284,1920.676,2381.146,1920.676z"/>
							</g>
							<g>
								<path style="fill:#FFFFFF;" d="M2396.915,2266.355c-4.846,1.02-9.832,1.525-15.013,1.512l-374.149,0.991
									c-32.451,0.072-60.643-19.274-73.424-47.152c-4.664-10.123-7.292-21.37-7.295-33.199l-0.269-88.454l-0.088-29.185
									l-0.216-81.467c-0.128-44.339,36.071-80.643,80.354-80.775l80.846-0.195c-37.245,7.123-65.535,40.045-65.453,79.257
									l0.255,107.55l0.259,91.608c0.132,44.283,36.492,80.485,80.776,80.354L2396.915,2266.355z"/>
							</g>
							<g style="opacity:0.25;">
								<path style="fill:#371A45;" d="M2396.915,2266.355c-4.846,1.02-9.832,1.525-15.013,1.512l-374.149,0.991
									c-44.283,0.131-80.647-36.015-80.719-80.351l-0.357-117.639c9.467,20.76,26.44,46.229,53.499,48.837
									c14.844,1.463,29.424-9.256,42.286-24.467l0.259,91.608c0.132,44.283,36.492,80.485,80.776,80.354L2396.915,2266.355z"/>
							</g>
							<g>
								<path style="fill:#371A45;" d="M2007.481,2281.935c-24.785,0-48.171-9.69-65.879-27.305
									c-17.781-17.69-27.6-41.155-27.651-66.072l-0.532-199.126c-0.081-24.912,9.617-48.428,27.302-66.206
									c17.678-17.771,41.14-27.603,66.064-27.681l80.82-0.2c0.01-0.002,0.022-0.002,0.032-0.002c6.726,0,12.354,5.11,13,11.809
									c0.647,6.709-3.918,12.808-10.537,14.08c-31.855,6.116-54.915,34.06-54.829,66.445l0.53,199.126
									c0.037,17.947,7.126,34.856,19.958,47.622c12.827,12.761,29.797,19.595,47.683,19.702l293.452-0.811
									c0.012,0,0.024,0,0.037,0c6.699,0,12.312,5.066,12.993,11.733c0.681,6.68-3.811,12.786-10.391,14.124
									c-5.798,1.179-11.748,1.841-17.668,1.75l-374.082,1.008C2007.684,2281.935,2007.581,2281.935,2007.481,2281.935z
									 M2036.351,1921.594l-29.492,0.071c-17.942,0.059-34.856,7.156-47.62,19.983c-12.761,12.829-19.758,29.773-19.702,47.71
									l0.532,199.133c0,0.002,0,0.005,0,0.007c0.037,17.939,7.124,34.849,19.956,47.615c12.776,12.71,29.626,19.702,47.463,19.702
									c0.073,0,0.146,0,0.22,0l32.546-0.088c-0.989-0.903-1.96-1.833-2.915-2.783c-17.786-17.69-27.608-41.157-27.656-66.079
									l-0.53-199.119C2009.085,1962.236,2019.364,1938.713,2036.351,1921.594z"/>
							</g>
							<g>
								<path style="fill:#22A7F0;" d="M2169.997,2088.493c-0.023,7.363-10.557,66.769-10.557,66.769s-18.829-0.058-41.95-0.129
									c-28.885-0.089-52.21-30.069-52.096-66.962c0.113-36.894,23.622-66.729,52.507-66.641c19.494,0.06,41.95,0.129,41.95,0.129
									S2170.033,2076.498,2169.997,2088.493z"/>
							</g>
							<g style="opacity:0.25;">
								<path style="fill:#371A45;" d="M2169.997,2088.493c-0.023,7.363-10.557,66.769-10.557,66.769s-18.829-0.058-41.95-0.129
									c-28.885-0.089-52.21-30.069-52.096-66.962c0.113-36.894,23.622-66.729,52.507-66.641c19.494,0.06,41.95,0.129,41.95,0.129
									S2170.033,2076.498,2169.997,2088.493z"/>
							</g>
							<g>
								<path style="fill:#371A45;" d="M2159.439,2165.712c-0.01,0-0.022,0-0.032,0l-41.951-0.129
									c-17.251-0.054-33.281-8.474-45.137-23.713c-11.267-14.482-17.437-33.564-17.375-53.73
									c0.129-42.529,28.301-77.058,62.83-77.058c0.054,0,0.105,0,0.159,0l41.948,0.129c5.022,0.017,9.324,3.604,10.242,8.542
									c1.06,5.711,10.359,56.165,10.322,68.772c-0.024,7.671-8.21,54.419-10.718,68.562
									C2168.841,2162.077,2164.505,2165.712,2159.439,2165.712z M2117.772,2031.979c-23.035,0-41.836,25.193-41.929,56.223
									c-0.049,15.52,4.558,30.022,12.971,40.837c7.822,10.056,18.018,15.613,28.706,15.645l33.152,0.103
									c4.521-25.923,8.789-52.268,8.875-56.34c0.017-7.039-4.658-35.425-8.416-56.365l-33.262-0.103
									C2117.838,2031.979,2117.803,2031.979,2117.772,2031.979z M2169.996,2088.493h0.049H2169.996z"/>
							</g>
							<g>
								
									<ellipse transform="matrix(0.0031 -1 1 0.0031 64.554 4241.6758)" style="fill:#22A7F0;" cx="2159.645" cy="2088.461" rx="66.802" ry="52.302"/>
							</g>
							<g style="opacity:0.25;">
								<path style="fill:#371A45;" d="M2107.345,2088.313c-0.127,36.871,23.2,66.871,52.079,66.963
									c28.92,0.094,52.425-29.756,52.514-66.672c0.031-4.979-0.403-9.86-1.225-14.553c-7.508,25.317-26.698,43.315-49.129,43.213
									c-24.945-0.078-45.776-22.443-50.857-52.369C2108.555,2072.182,2107.395,2080.069,2107.345,2088.313z"/>
							</g>
							<g>
								<path style="fill:#FFFFFF;" d="M2107.345,2088.313c-0.017,2.51,0.094,4.986,0.332,7.428
									c5.827-28.887,26.419-50.196,50.819-50.108c26.91,0.106,49.04,26.145,51.745,59.577c1.099-5.338,1.664-10.873,1.698-16.606
									c0.127-36.872-23.2-66.871-52.079-66.964C2130.979,2021.591,2107.475,2051.4,2107.345,2088.313z"/>
							</g>
							<g>
								<path style="fill:#371A45;" d="M2159.566,2165.712c-0.054,0-0.105,0-0.159,0c-17.251-0.054-33.281-8.474-45.137-23.713
									c-11.267-14.48-17.439-33.562-17.378-53.73c0.134-42.529,28.303-77.058,62.83-77.058c0.054,0,0.105,0,0.159,0
									c34.6,0.11,62.644,34.851,62.515,77.444l0,0C2222.261,2131.183,2194.093,2165.712,2159.566,2165.712z M2159.72,2032.109
									c-23.035,0-41.833,25.193-41.929,56.223c-0.049,15.52,4.558,30.022,12.971,40.837c7.825,10.056,18.02,15.613,28.708,15.645
									c0.032,0,0.066,0,0.095,0c23.037,0,41.836-25.193,41.931-56.223c0.095-31.072-18.604-56.411-41.68-56.482
									C2159.786,2032.109,2159.752,2032.109,2159.72,2032.109z M2211.947,2088.622h0.049H2211.947z"/>
							</g>
							<g>
								<path style="fill:#371A45;" d="M2265.594,2279.279c-0.088,0-0.178-0.002-0.269-0.005
									c-6.921-0.144-12.417-5.874-12.271-12.798l2.896-138.103c0.088-4.204,2.278-8.086,5.833-10.332l58.137-36.768l0.137-173.406
									c0.007-6.921,5.62-12.529,12.539-12.529c0.002,0,0.007,0,0.01,0c6.924,0.007,12.534,5.625,12.529,12.549l-0.144,180.305
									c-0.005,4.297-2.207,8.291-5.837,10.586l-58.274,36.855l-2.756,131.37
									C2277.982,2273.837,2272.396,2279.277,2265.594,2279.279z"/>
							</g>
						</g>
						<g>
							<g>
								<path style="fill:#FFFFFF;" d="M1745.963,2148.968h168.128c31.473,0,56.987-25.514,56.987-56.987v0
									c0-31.473-25.514-56.987-56.987-56.987h-168.128c-31.473,0-56.987,25.514-56.987,56.987v0
									C1688.975,2123.454,1714.49,2148.968,1745.963,2148.968z"/>
							</g>
							<g style="opacity:0.25;">
								<path style="fill:#371A45;" d="M1705.163,2052.239c3.58,28.03,27.469,49.712,56.472,49.712h168.128
									c16.006,0,30.448-6.62,40.8-17.245c0.305,2.388,0.515,4.805,0.515,7.275c0,31.473-25.514,56.987-56.987,56.987h-168.128
									c-31.473,0-56.987-25.514-56.987-56.987C1688.976,2076.513,1695.16,2062.506,1705.163,2052.239z"/>
							</g>
							<g>
								<path style="fill:#371A45;" d="M1914.09,2162.028h-168.127c-38.625,0-70.046-31.421-70.046-70.046
									s31.421-70.046,70.046-70.046h168.127c38.625,0,70.046,31.421,70.046,70.046S1952.715,2162.028,1914.09,2162.028z
									 M1745.963,2048.056c-24.221,0-43.928,19.705-43.928,43.926s19.707,43.926,43.928,43.926h168.127
									c24.221,0,43.928-19.705,43.928-43.926s-19.707-43.926-43.928-43.926H1745.963z"/>
							</g>
						</g>
					</g>
					<g>
						<g>
							<path style="fill:#FFFFFF;" d="M1886.754,1630.809l-26.121,167.172c-3.709,5.956-7.627,13.74-11.754,23.142
								c-35.89,81.444-88.496,284.662-156.567,465.73c-30.718,81.757-85.258,152.754-157.507,201.807
								c-5.329,3.657-10.448,6.948-15.359,9.874c-14.419,8.62-31.449,12.59-47.957,9.508c-9.038-1.724-16.926-5.067-23.143-10.239
								c-11.546-9.404-17.658-24.815-16.091-46.808c-8.776,1.515-17.449,2.874-26.068,3.97h-0.052
								c-48.218,6.478-93.563,6.164-132.744-8.411c-21.524-8.045-36.204-28.68-35.89-51.614v-0.784
								c0.261-11.441,4.493-22.203,11.389-31.031v-0.052c3.761-4.806,8.358-9.038,13.53-12.485
								c29.359-19.434,56.212-41.167,80.295-65.249c27.114-27.061,47.382-60.13,60.495-96.124
								c103.856-284.923,168.165-628.513,337.269-589.75L1886.754,1630.809z"/>
						</g>
						<g>
							<path style="fill:#371A45;" d="M1865.293,1800.878c-27.477,59.018-50.399,154.603-70.728,217.617
								c-22.304,73.605-44.782,147.322-69.931,220.345c-12.817,36.933-25.06,74.479-43.926,108.939
								c-35.111,65.86-87.186,123.245-150.824,162.628c-51.822,33.362-119.863,6.649-113.258-60.537
								c-0.001,0.001,18.316,16.565,18.316,16.565c-50.679,8.702-105.381,13.631-155.93-1.51
								c-26.229-6.432-48.953-26.061-55.197-53.031c-8.065-32.69,8.74-62.87,36.989-79.108c47.219-32.978,93.133-72,117.734-125.262
								c47.927-118.436,79.702-243.348,124.145-363.573c38.509-100.054,103.737-289.584,240.707-259.884
								c38.15,8.085,107.935,23.179,146.65,31.417c20.053,5.036,13.865,34.338-6.568,30.649
								c-28.288-6.177-98.613-21.049-125.843-26.967c-11.255-2.435-28.173-6.6-39.392-6.932
								c-79.757-2.104-126.449,100.839-154.998,163.577c-55.673,131.196-91.41,269.778-139.947,403.958
								c-14.034,42.719-36.275,83.5-68.342,115.506c-20.828,20.979-43.407,39.906-67.398,57.061l-9.037,6.31l-8.622,5.861
								c-8.348,5.876-14.54,15.047-16.206,25.018c-2.606,15.062,5.031,31.079,18.287,38.932c10.836,6,23.184,8.582,35.282,11.084
								c40.438,7.304,81.449,2.959,122.317-3.988c8.531-1.474,16.643,4.248,18.116,12.781c0.323,8.807-0.491,18.529,2.578,25.746
								c9.549,24.968,44.356,22.924,63.364,9.607c58.934-36.718,107.813-88.983,141.032-149.987
								c18.384-33.002,30.468-68.846,43.588-104.203c26.241-71.943,49.961-144.954,73.583-218.115
								c21.182-63.998,41.091-129.043,69.633-190.354c0.001,0,6.635-13.153,6.635-13.153l7.874-12.792
								c1.586-2.577,4.96-3.38,7.537-1.794C1866.119,1794.901,1866.869,1798.303,1865.293,1800.878L1865.293,1800.878z"/>
						</g>
						<g>
							<path style="fill:#371A45;" d="M1389.589,2441.322c35.605-4.353,71.32-13.248,97.229-39.647
								c3.026-3.141,8.194,0.93,5.808,4.605c-20.869,33.622-59.459,53.15-95.804,65.541
								C1374.72,2478.559,1366.776,2445.25,1389.589,2441.322L1389.589,2441.322z"/>
						</g>
						<g>
							<path style="fill:#371A45;" d="M1753.983,2120.595c-0.62,0-1.245-0.044-1.875-0.134
								c-132.082-18.994-237.971-77.1-283.252-155.432c-3.611-6.245-1.475-14.233,4.771-17.842
								c6.247-3.613,14.231-1.472,17.842,4.771c41.309,71.458,140.132,124.785,264.355,142.649
								c7.141,1.028,12.097,7.646,11.069,14.785C1765.958,2115.903,1760.372,2120.595,1753.983,2120.595z"/>
						</g>
						<g style="opacity:0.25;">
							<g>
								<path style="fill:#371A45;" d="M1848.88,1821.123c-35.89,81.444-88.496,284.662-156.567,465.73
									c-30.718,81.757-85.258,152.754-157.507,201.807c-5.329,3.657-10.448,6.948-15.359,9.874
									c-14.419,8.62-31.449,12.59-47.957,9.508c-9.038-1.724-16.926-5.067-23.143-10.239c13.896,1.829,27.74,1.149,40.852-4.023
									c19.486-7.679,33.957-24.24,47.278-40.435c40.958-49.891,79.042-103.072,104.273-162.522
									c10.919-25.703,19.382-52.397,27.793-78.989c16.404-51.875,32.808-103.698,49.211-155.522
									c28.053-88.601,59.084-181.903,129.401-242.712L1848.88,1821.123z"/>
							</g>
						</g>
						<g style="opacity:0.25;">
							<g>
								<path style="fill:#371A45;" d="M1480.946,2406.432l-11.494,8.985c-19.433,15.62-40.748,28.89-63.264,39.547h-0.052
									c-48.218,6.478-93.563,6.164-132.744-8.411c-21.524-8.045-36.204-28.68-35.89-51.614v-0.784
									c0.261-11.441,4.493-22.203,11.389-31.031v-0.052c8.463-6.635,17.344-12.747,26.068-18.65
									c-14.889,11.075-13.478,36.308-0.888,50.361c13.06,14.575,33.487,19.852,52.816,22.725
									C1378.239,2425.24,1431.264,2421.425,1480.946,2406.432z"/>
							</g>
						</g>
					</g>
					<g>
						<path style="fill:#982E20;" d="M2032.369,1252.919c-1.157,0.542-2.313,1.084-3.457,1.583c0.87,0.007,1.726-0.014,2.596-0.007
							C2032.081,1253.396,2032.369,1252.919,2032.369,1252.919z"/>
					</g>
					<g style="opacity:0.35;">
						<path style="fill:#371A45;" d="M1963.438,1482.85l35.925,116.18c8.588-5.073,18.01-10.589,28.133-16.392l-36.126-116.8
							C1989.604,1467.502,1979.483,1473.39,1963.438,1482.85z"/>
					</g>
					<g>
						<path style="fill:none;" d="M2016.117,1066.113"/>
					</g>
					<g>
						<g>
							<path style="fill:#FFFFFF;" d="M2582.891,1083.686c-11.933,104.665-50.396,206.97-115.393,296.518
								c-13.263,18.254-27.56,35.954-42.979,53.023c-7.476,8.327-15.299,16.509-23.331,24.604
								c-24.333,24.267-50.146,46.168-77.198,65.724c-23.275,16.912-47.503,32.044-72.375,45.445
								c-30.03,16.199-61.111,29.807-92.866,40.899c-11.594,4.007-23.259,7.699-34.993,11.079
								c-214.901,61.4-455.55,9.775-625.166-155.802c-249.912-243.858-250.936-642.531-2.401-890.454
								c47.902-47.716,101.569-86.483,158.815-115.997c6.658-3.512,13.445-6.848,20.291-10.037
								c18.254-8.655,36.815-16.408,55.633-23.243c43.529-15.795,88.445-26.746,133.815-32.878
								c45.35-6.18,91.273-7.532,136.785-4.059c14.472,1.095,28.904,2.661,43.316,4.748c21.593,3.137,43.026,7.305,64.309,12.671
								c106.02,26.411,206.398,80.193,289.633,161.451C2542.555,707.648,2603.929,899.125,2582.891,1083.686z"/>
							<path style="fill:#371A45;" d="M1945.723,1647.497c-165.823,0-327.659-63.491-448.23-181.194
								c-120.686-117.761-187.661-275.103-188.587-443.037c-0.933-169.277,65.183-328.967,186.172-449.658
								c47.227-47.044,100.791-86.167,159.207-116.279c6.362-3.357,13.02-6.653,20.347-10.068
								c18.189-8.623,36.953-16.462,55.759-23.293c43.208-15.679,88.34-26.768,134.143-32.959
								c45.359-6.179,91.489-7.546,137.114-4.07c14.683,1.111,29.292,2.712,43.421,4.761c22.061,3.206,43.752,7.478,64.473,12.703
								c109.402,27.253,209.802,83.22,290.344,161.85c139.302,135.911,206.575,324.575,184.57,517.612l0,0
								c-12.202,107.017-52.205,209.81-115.684,297.266c-13.442,18.498-27.939,36.382-43.083,53.152
								c-6.931,7.72-14.58,15.786-23.381,24.658c-24.041,23.975-50.078,46.143-77.393,65.894
								c-22.842,16.594-47.253,31.924-72.554,45.554c-29.607,15.969-60.928,29.763-93.091,40.999
								c-11.582,4.001-23.381,7.737-35.078,11.106C2065.352,1639.303,2005.269,1647.497,1945.723,1647.497z M1952.33,388.212
								c-29.219,0-58.452,1.975-87.373,5.915c-45.583,6.162-90.496,17.197-133.491,32.798c-18.713,6.799-37.385,14.6-55.496,23.186
								c-7.285,3.396-13.899,6.668-20.229,10.007c-58.14,29.973-111.443,68.904-158.44,115.72
								c-120.386,120.088-186.174,278.982-185.247,447.41c0.923,167.085,67.559,323.63,187.637,440.801
								c163.066,159.182,402.024,218.738,623.635,155.415c11.641-3.352,23.386-7.07,34.91-11.052
								c32.004-11.179,63.171-24.905,92.632-40.798c25.176-13.564,49.468-28.816,72.2-45.332
								c27.185-19.653,53.093-41.714,77.012-65.566c8.757-8.828,16.372-16.858,23.269-24.541
								c15.076-16.689,29.5-34.487,42.876-52.896c63.162-87.017,102.964-189.294,115.103-295.771l1.565,0.178l-1.565-0.178
								c21.895-192.063-45.042-379.775-183.638-515.002c-80.144-78.24-180.049-133.931-288.914-161.05
								c-20.62-5.2-42.202-9.451-64.158-12.642c-14.058-2.036-28.596-3.63-43.208-4.736
								C1985.096,388.832,1968.714,388.212,1952.33,388.212z"/>
						</g>
						<g style="opacity:0.25;">
							<path style="fill:#371A45;" d="M1498.589,1465.161c169.605,165.606,410.288,217.231,625.176,155.798
								c11.739-3.365,23.397-7.052,34.971-11.064c31.769-11.081,62.834-24.709,92.871-40.884
								c24.866-13.423,49.113-28.543,72.372-45.44c27.074-19.556,52.872-41.453,77.228-65.731
								c7.996-8.119,15.827-16.276,23.33-24.594c15.415-17.084,29.679-34.808,42.957-53.052
								c64.996-89.549,103.485-191.835,115.401-296.528c6.565-57.496,5.123-115.706-4.326-172.805
								c-13.69,99.641-51.571,196.656-113.574,282.091c-13.237,18.284-27.543,35.968-42.958,53.052
								c-7.461,8.318-15.293,16.476-23.33,24.594c-24.356,24.277-50.154,46.174-77.187,65.731
								c-23.301,16.896-47.506,32.016-72.372,45.439c-30.036,16.174-61.143,29.803-92.87,40.885
								c-11.616,4.01-23.273,7.699-35.013,11.063c-214.888,61.432-455.53,9.807-625.176-155.798
								c-98.991-96.579-158.883-217.459-179.729-343.597C1290.282,1123.346,1351.069,1321.237,1498.589,1465.161z"/>
						</g>
						<g>
							<path style="fill:#371A45;" d="M1945.733,1658.044c-168.543,0-333.049-64.548-455.61-184.189
								c-122.722-119.749-190.828-279.751-191.768-450.53c-0.95-172.122,66.27-334.487,189.27-457.185
								c48.003-47.817,102.446-87.578,161.824-118.191c6.428-3.391,13.242-6.763,20.725-10.251
								c18.425-8.735,37.498-16.704,56.614-23.648c43.918-15.938,89.785-27.207,136.333-33.499
								c46.086-6.279,92.969-7.673,139.331-4.133c14.915,1.128,29.766,2.756,44.131,4.839c22.422,3.257,44.47,7.6,65.537,12.913
								c111.189,27.7,213.257,84.597,295.137,164.531c141.65,138.206,210.059,330.056,187.683,526.357c0,0.002,0,0.002,0,0.002
								c-12.407,108.818-53.083,213.342-117.627,302.266c-13.667,18.806-28.398,36.982-43.794,54.028
								c-7.026,7.827-14.795,16.021-23.721,25.017c-24.473,24.407-50.938,46.938-78.701,67.012
								c-23.203,16.858-48.018,32.439-73.73,46.292c-30.093,16.233-61.926,30.254-94.617,41.672
								c-11.787,4.072-23.765,7.864-35.637,11.284C2067.308,1649.719,2006.258,1658.044,1945.733,1658.044z M1952.327,398.764
								c-28.743,0-57.498,1.941-85.945,5.818c-44.851,6.062-89.028,16.917-131.318,32.263c-18.399,6.682-36.76,14.355-54.573,22.8
								c-7.19,3.352-13.652,6.548-19.827,9.807c-57.266,29.522-109.69,67.813-155.918,113.862
								c-118.367,118.074-183.054,274.294-182.141,439.875c0.906,164.241,66.414,318.125,184.455,433.308
								c160.364,156.548,395.393,215.103,613.364,152.82c11.445-3.294,23.015-6.958,34.365-10.879
								c31.445-10.984,62.097-24.482,91.067-40.11c24.768-13.345,48.655-28.342,71.008-44.582
								c26.753-19.343,52.236-41.04,75.762-64.502c8.594-8.662,16.089-16.567,22.869-24.119
								c14.846-16.438,29.033-33.941,42.192-52.051c62.09-85.542,101.221-186.089,113.154-290.764
								c21.521-188.799-44.277-373.323-180.525-506.255c-78.806-76.934-177.043-131.694-284.094-158.364
								c-20.298-5.117-41.526-9.299-63.123-12.436c-13.818-2.002-28.115-3.569-42.488-4.656
								C1984.564,399.374,1968.446,398.764,1952.327,398.764z M2582.891,1083.686h0.049H2582.891z"/>
						</g>
						<g>
							<path style="fill:#371A45;" d="M1945.736,1661.589c-169.456,0-334.861-64.902-458.091-185.195
								c-123.406-120.417-191.89-281.313-192.837-453.049c-0.955-173.079,66.633-336.343,190.313-459.717
								c48.262-48.074,103.001-88.052,162.705-118.831c6.45-3.403,13.313-6.799,20.85-10.313
								c18.506-8.774,37.681-16.787,56.902-23.77c44.155-16.023,90.271-27.353,137.068-33.679
								c46.336-6.311,93.469-7.707,140.076-4.155c14.993,1.135,29.924,2.773,44.37,4.866c22.544,3.274,44.712,7.644,65.896,12.983
								c111.79,27.849,214.419,85.059,296.748,165.435c142.439,138.975,211.23,331.897,188.728,529.297l0,0
								c-12.476,109.426-53.376,214.531-118.281,303.95c-13.738,18.909-28.552,37.183-44.031,54.321
								c-7.058,7.864-14.866,16.096-23.835,25.137c-24.617,24.551-51.226,47.205-79.141,67.388
								c-23.323,16.946-48.274,32.612-74.126,46.541c-30.254,16.321-62.263,30.417-95.129,41.897
								c-11.858,4.099-23.894,7.908-35.825,11.345C2067.965,1653.219,2006.588,1661.589,1945.736,1661.589z M1952.327,402.309
								c-28.582,0-57.178,1.934-85.466,5.789c-44.604,6.028-88.533,16.821-130.586,32.08c-18.293,6.646-36.553,14.275-54.265,22.671
								c-7.158,3.337-13.567,6.509-19.69,9.739c-56.97,29.373-109.099,67.446-155.071,113.24
								c-117.685,117.398-182.004,272.717-181.096,437.344c0.899,163.284,66.025,316.274,183.384,430.791
								c159.453,155.657,393.157,213.875,609.915,151.948c11.377-3.276,22.888-6.921,34.18-10.823
								c31.257-10.918,61.736-24.341,90.542-39.88c24.631-13.269,48.384-28.184,70.608-44.329
								c26.609-19.241,51.948-40.815,75.342-64.143c8.54-8.608,15.996-16.47,22.734-23.977
								c14.771-16.355,28.877-33.76,41.963-51.765c61.731-85.049,100.635-185.015,112.5-289.082
								c21.396-187.703-44.021-371.155-179.478-503.315c-78.357-76.497-176.035-130.945-282.476-157.461
								c-20.19-5.09-41.299-9.248-62.776-12.368c-13.735-1.99-27.952-3.55-42.246-4.631
								C1984.385,402.917,1968.358,402.309,1952.327,402.309z M2582.891,1083.686h0.049H2582.891z"/>
						</g>
						<g>
							<path style="fill:#371A45;" d="M2543.915,1240.607c-248.668,378.659-790.038,399.443-984.012-2.03
								c-131.968-273.138,37.942-613.011,312.675-722.744c199.954-79.865,430.087-71.733,638.812,199.863
								c0,0,73.499,134.414,73.242,243.805c-0.257,109.391-19.219,215.841-19.219,215.841L2543.915,1240.607z"/>
						</g>
						<g>
							<path style="fill:#220F2D;" d="M1559.92,1238.574c193.959,401.467,735.338,380.673,984.004,2.047l4.345-13.235
								c-353.872,221.316-826.288,150.303-1030.081-251.97C1507.198,1063.648,1519.209,1154.278,1559.92,1238.574z"/>
						</g>
						<g>
							<path style="fill:#371A45;" d="M2021.158,1612.878c-66.904,0-132.881-10.383-195.188-31.406
								c-150.313-50.715-268.157-156.97-340.798-307.276c-66.716-138.071-70.376-299.319-10.305-454.043
								c66.719-171.846,205.046-313.782,370.024-379.675c91.68-36.616,180.791-53.503,264.883-50.181
								c1.067,0.042,2.126,0.193,3.164,0.452c111.826,27.856,214.451,85.063,296.777,165.435
								c142.432,138.97,211.218,331.882,188.718,529.275l0,0c-12.476,109.422-53.374,214.519-118.276,303.936
								c-13.738,18.906-28.55,37.18-44.028,54.319c-7.058,7.861-14.866,16.096-23.835,25.137
								c-24.614,24.548-51.221,47.202-79.136,67.383c-0.659,0.479-1.357,0.903-2.083,1.272
								C2232.723,1587.438,2125.826,1612.878,2021.158,1612.878z M2088.934,421.174c-73.923,0-152.012,16.235-232.437,48.357
								c-157.068,62.734-288.831,198.042-352.466,361.946c-56.897,146.543-53.589,298.938,9.309,429.106
								c68.899,142.566,180.464,243.276,322.629,291.245c151.516,51.123,326.343,35.92,479.849-41.665
								c26.221-19.038,51.223-40.369,74.326-63.408c8.54-8.609,15.996-16.47,22.734-23.977
								c14.771-16.355,28.879-33.76,41.965-51.768c61.733-85.054,100.64-185.024,112.505-289.097
								c21.396-187.71-44.023-371.172-179.487-503.34c-77.979-76.125-175.085-130.417-280.925-157.075
								C2100.965,421.281,2094.962,421.174,2088.934,421.174z M2582.891,1083.686h0.051H2582.891z"/>
						</g>
						<g>
							<path style="fill:#371A45;" d="M2025.233,1542.211c-12.48,0-24.958-0.405-37.476-1.228
								c-192.202-12.605-351.431-121.243-436.858-298.054c-58.874-121.853-62.082-264.204-9.033-400.828
								c58.972-151.885,181.218-277.324,327.004-335.554c251.004-100.252,469.851-31.941,650.449,203.057
								c0.315,0.41,0.596,0.842,0.845,1.296c3.052,5.581,74.727,137.937,74.468,248.625
								c-0.256,108.999-19.182,216.497-19.375,217.568c-0.081,0.466-0.198,0.925-0.347,1.375l-21.499,65.266
								c-0.273,0.835-0.657,1.628-1.138,2.361C2430.733,1431.174,2231.444,1542.211,2025.233,1542.211z M2083.46,482.116
								c-66.253,0-135.349,14.316-207.173,43.005C1735.56,581.33,1617.51,702.534,1560.509,849.34
								c-51.018,131.396-48.035,268.086,8.398,384.888c82.205,170.144,235.347,274.678,420.161,286.799
								c211.692,13.865,420.728-95.227,545.764-284.809l20.854-63.313c1.606-9.292,18.704-110.737,18.945-213.428
								c0.239-101.658-66.174-228.064-71.663-238.325C2380.455,562.004,2239.94,482.116,2083.46,482.116z M2543.914,1240.607h0.051
								H2543.914z"/>
						</g>
						<g>
							<path style="fill:#FFFFFF;" d="M1287.002,1319.1c39.979,117.554,143.969,192.43,232.292,167.21
								c88.322-25.219,127.505-140.967,87.526-258.521c-0.236-0.741-0.523-1.516-0.802-2.248
								c-40.508-116.265-143.791-190.012-231.49-164.962c-68.231,19.478-107.132,92.989-102.885,179.608
								C1272.907,1265.689,1277.912,1292.367,1287.002,1319.1z"/>
						</g>
						<g style="opacity:0.25;">
							<path style="fill:#371A45;" d="M1287.002,1319.1c39.979,117.554,143.969,192.43,232.292,167.21
								c88.322-25.219,127.505-140.967,87.526-258.521c-0.236-0.741-0.523-1.516-0.802-2.248
								c-5.607,14.835-16.679,31.031-38.517,32.874c-38.251,3.211-128.316-54.005-128.316-54.005s-72.757,15.043-167.542,35.777
								C1272.907,1265.689,1277.912,1292.367,1287.002,1319.1z"/>
						</g>
						<g>
							<path style="fill:#371A45;" d="M1484.456,1506.786c-85.786,0.005-175.417-74.18-212.31-182.632l0,0
								c-24.57-72.253-21.79-145.913,7.629-202.092c20.435-39.019,51.704-65.488,90.43-76.548
								c96.091-27.446,208.879,52.058,251.445,177.217c24.57,72.251,21.789,145.908-7.629,202.09
								c-20.432,39.019-51.702,65.488-90.43,76.55C1510.777,1505.029,1497.659,1506.786,1484.456,1506.786z M1410.089,1071.33
								c-10.576,0-21.045,1.404-31.274,4.326c-30.271,8.643-54.917,29.719-71.27,60.947c-25.083,47.898-27.222,114.238-5.72,177.458
								l0,0c32.517,95.62,109.478,161.484,181.887,161.492c10.576,0.002,21.043-1.401,31.272-4.324
								c30.273-8.645,54.917-29.722,71.272-60.95c25.08-47.898,27.219-114.238,5.718-177.456
								C1559.456,1137.202,1482.498,1071.33,1410.089,1071.33z"/>
						</g>
						<g>
							
								<ellipse transform="matrix(0.9115 -0.4112 0.4112 0.9115 -413.9284 692.3757)" style="fill:#FFFFFF;" cx="1402.253" cy="1308.239" rx="135.114" ry="178.738"/>
							<path style="fill:#371A45;" d="M1432.366,1482.033c-2.422,0-4.861-0.073-7.324-0.222
								c-44.011-2.663-88.064-29.067-120.859-72.444l0,0c-58.84-77.82-62.864-186.506-8.972-242.278
								c22.41-23.191,51.538-34.419,84.255-32.422c44.011,2.663,88.062,29.07,120.857,72.444
								c58.84,77.82,62.864,186.504,8.972,242.278C1488.575,1470.832,1462.1,1482.033,1432.366,1482.033z M1306.79,1407.394
								c32.219,42.612,75.393,68.545,118.45,71.15c31.746,1.938,59.98-8.948,81.702-31.431
								c52.822-54.661,48.682-161.441-9.226-238.03c-32.219-42.612-75.391-68.545-118.447-71.15
								c-31.733-1.922-59.983,8.948-81.704,31.431C1244.744,1224.025,1248.882,1330.805,1306.79,1407.394z"/>
						</g>
						<g style="opacity:0.25;">
							<path style="fill:#371A45;" d="M1547.663,1339.218c-2.636-33.745-14.666-66.844-32.954-95.578
								c-0.56,77.48-55.006,127.304-127.12,113.011c-46.603-9.216-89.854-43.13-118.128-87.608
								c-0.068,4.886,0.144,9.93,0.533,15.048c6.753,85.926,74.383,167.927,151.069,183.142
								C1497.749,1482.448,1554.403,1425.099,1547.663,1339.218z"/>
						</g>
						<g>
							<path style="fill:#371A45;" d="M1436.141,1496.205c-67.798,0-140.681-62.844-171.911-153.501l0,0
								c-21.091-61.221-19.458-124.802,4.368-170.081c15.413-29.294,38.789-48.999,67.6-56.982
								c74.595-20.664,164.182,46.521,199.749,149.766c21.091,61.218,19.46,124.8-4.365,170.081
								c-15.413,29.294-38.789,48.999-67.6,56.982C1454.886,1494.99,1445.555,1496.205,1436.141,1496.205z M1293.863,1332.494
								c30.278,87.883,102.839,146.099,161.748,129.771c20.266-5.618,36.946-19.924,48.23-41.372
								c19.873-37.774,20.796-92.08,2.471-145.276c-30.276-87.881-102.827-146.079-161.746-129.77
								c-20.268,5.618-36.946,19.924-48.23,41.372C1276.463,1224.987,1275.543,1279.301,1293.863,1332.494L1293.863,1332.494z"/>
						</g>
						<g style="opacity:0.5;">
							<path style="fill:#FFFFFF;" d="M1768.099,690.286c0,0,268.335-88.083,472.401,2.714c0.215,0.096,0.429,0.191,0.643,0.287
								c42.932,19.146,79.773,49.449,106.883,87.436c35.853,50.235,53.072,90.077,66.855,125.736
								c41.869,108.467,40.877,167.136,40.877,167.136c40.544-81.156,50.742-159.654,16.778-250.346
								c-3.372-8.931-7.185-18.017-11.397-27.219c-0.963-2.124-1.966-4.207-3.009-6.291c0.04-0.039,0-0.078-0.08-0.117
								c-9.863-18.038-23.734-41.255-41.605-66.141c-53.854-75.089-143.879-165.504-269.531-175.548
								C1911.967,529.15,1754.651,682.412,1768.099,690.286z"/>
						</g>
						<g style="opacity:0.5;">
							
								<ellipse transform="matrix(0.9955 -0.0945 0.0945 0.9955 -89.4562 163.1995)" style="fill:#FFFFFF;" cx="1677.672" cy="1025.716" rx="85.346" ry="98.037"/>
						</g>
						<g style="opacity:0.5;">
							
								<ellipse transform="matrix(1 -0.0016 0.0016 1 -1.9576 2.7648)" style="fill:#FFFFFF;" cx="1696.02" cy="1202.887" rx="35.229" ry="40.497"/>
						</g>
					</g>
				</g>
			</g>
		</g>
		<g>
			
				<path style="fill:none;stroke:#371A45;stroke-width:31.3447;stroke-linecap:round;stroke-linejoin:round;stroke-miterlimit:10;" d="
				M2497.994,2537.71"/>
		</g>
		<g>
			
				<path style="fill:none;stroke:#371A45;stroke-width:31.3447;stroke-linecap:round;stroke-linejoin:round;stroke-miterlimit:10;" d="
				M2764.405,2539.804"/>
		</g>
	</g>
</g>
</svg>
