<?xml version="1.0" encoding="UTF-8"?>
<!DOCTYPE svg PUBLIC "-//W3C//DTD SVG 1.1//EN" "http://www.w3.org/Graphics/SVG/1.1/DTD/svg11.dtd">
<svg xmlns="http://www.w3.org/2000/svg" version="1.1" width="4000px" height="4000px" style="shape-rendering:geometricPrecision; text-rendering:geometricPrecision; image-rendering:optimizeQuality; fill-rule:evenodd; clip-rule:evenodd" xmlns:xlink="http://www.w3.org/1999/xlink">
<g><path style="opacity:1" fill="rgba(0, 0, 0, 0)" d="M -0.5,-0.5 C 1332.83,-0.5 2666.17,-0.5 3999.5,-0.5C 3999.5,1332.83 3999.5,2666.17 3999.5,3999.5C 2666.17,3999.5 1332.83,3999.5 -0.5,3999.5C -0.5,2666.17 -0.5,1332.83 -0.5,-0.5 Z"/></g>
<g><path style="opacity:1" fill="#FFCF02" d="M 2634.5,402.5 C 2638.95,402.142 2642.45,403.808 2645,407.5C 2651.85,421.057 2656.18,435.39 2658,450.5C 2661.98,459.151 2668.48,464.985 2677.5,468C 2691.6,469.524 2704.94,473.524 2717.5,480C 2722.06,482.925 2723.23,486.758 2721,491.5C 2718.62,494.273 2715.78,496.439 2712.5,498C 2701.66,502.836 2690.32,505.836 2678.5,507C 2668.89,509.611 2662.06,515.444 2658,524.5C 2656.01,536.426 2653.01,548.093 2649,559.5C 2641.1,576.743 2633.1,576.743 2625,559.5C 2621.57,549.03 2618.91,538.363 2617,527.5C 2614.32,518.822 2608.82,512.655 2600.5,509C 2590.83,506.667 2581.17,504.333 2571.5,502C 2564.34,500.173 2558.17,496.673 2553,491.5C 2552.33,488.833 2552.33,486.167 2553,483.5C 2559.3,477.435 2566.8,473.602 2575.5,472C 2584.22,470.214 2592.89,468.214 2601.5,466C 2609.21,461.958 2614.38,455.791 2617,447.5C 2618.52,433.401 2622.52,420.067 2629,407.5C 2630.73,405.598 2632.56,403.931 2634.5,402.5 Z"/></g>
<g><path style="opacity:1" fill="#FFCF02" d="M 684.5,516.5 C 697.206,515.695 702.04,521.362 699,533.5C 695.212,538.153 690.378,539.653 684.5,538C 675.222,530.798 675.222,523.631 684.5,516.5 Z"/></g>
<g><path style="opacity:1" fill="#232323" d="M 1847.5,576.5 C 2057.3,570.02 2240.64,635.186 2397.5,772C 2492.02,857.868 2561.52,960.702 2606,1080.5C 2616.28,1087.39 2626.12,1094.89 2635.5,1103C 2663.56,1130.27 2684.23,1162.43 2697.5,1199.5C 2720.01,1190.6 2743.34,1187.44 2767.5,1190C 2812.83,1192.69 2854.16,1206.69 2891.5,1232C 2940.32,1271.15 2964.99,1322.32 2965.5,1385.5C 2965.52,1439.59 2949.69,1488.26 2918,1531.5C 2916,1536.17 2914,1540.83 2912,1545.5C 2904.93,1590.32 2896.93,1634.99 2888,1679.5C 2876.01,1730.47 2863.01,1781.13 2849,1831.5C 2833.32,1880.19 2813.15,1927.02 2788.5,1972C 2798.68,1990.52 2807.51,2009.69 2815,2029.5C 2836.46,2039.65 2856.96,2051.48 2876.5,2065C 2900.04,2085.93 2914.21,2112.09 2919,2143.5C 2939.01,2228.87 2959.01,2314.2 2979,2399.5C 2982.21,2454.42 2958.21,2491.76 2907,2511.5C 2911.17,2539.86 2915.83,2568.19 2921,2596.5C 2924.43,2668 2908.43,2734.67 2873,2796.5C 2828.74,2863.23 2766.24,2897.56 2685.5,2899.5C 2659.77,3033.59 2608.27,3156.59 2531,3268.5C 2479.6,3334.6 2411.76,3364.43 2327.5,3358C 2274.67,3353.79 2224,3341.13 2175.5,3320C 2155.8,3310.48 2136.13,3300.98 2116.5,3291.5C 2105.81,3344.77 2077.47,3385.6 2031.5,3414C 1963.17,3443.22 1907.34,3427.72 1864,3367.5C 1829.58,3309.2 1819.58,3246.87 1834,3180.5C 1850.17,3120.5 1866.33,3060.5 1882.5,3000.5C 1876.67,3000.17 1870.83,2999.83 1865,2999.5C 1802.16,3000.86 1739.33,3002.36 1676.5,3004C 1660.67,3017.83 1644.83,3031.67 1629,3045.5C 1580,3115.51 1531,3185.51 1482,3255.5C 1457.45,3288.71 1424.61,3308.54 1383.5,3315C 1301.69,3322.33 1233.19,3295.83 1178,3235.5C 1154.86,3209.87 1132.19,3183.87 1110,3157.5C 1086.52,3128.66 1066.19,3097.66 1049,3064.5C 1006.15,2976.73 1012.81,2893.06 1069,2813.5C 1114.87,2767.98 1169.7,2751.81 1233.5,2765C 1266.37,2773.44 1296.7,2787.27 1324.5,2806.5C 1342.7,2786.47 1360.37,2765.97 1377.5,2745C 1335.96,2747.96 1295.96,2741.63 1257.5,2726C 1198.49,2696.94 1166.32,2649.44 1161,2583.5C 1159.19,2541.09 1165.85,2500.09 1181,2460.5C 1203.66,2411.24 1241.83,2382.41 1295.5,2374C 1312.73,2373.07 1329.57,2375.23 1346,2380.5C 1381.74,2354.12 1416.57,2355.29 1450.5,2384C 1468.72,2401.95 1483.39,2422.45 1494.5,2445.5C 1536.27,2456.8 1576.94,2453.63 1616.5,2436C 1618.22,2435.48 1619.56,2434.48 1620.5,2433C 1596.53,2385.9 1575.7,2337.4 1558,2287.5C 1546.27,2253.78 1538.6,2219.11 1535,2183.5C 1530.69,2142.38 1537.69,2103.38 1556,2066.5C 1561.39,2057.11 1567.55,2048.28 1574.5,2040C 1401.95,1960.11 1274.45,1834.61 1192,1663.5C 1107.81,1474.41 1098.81,1281.75 1165,1085.5C 1236.66,894.504 1362.83,751.671 1543.5,657C 1639.49,609.83 1740.82,582.996 1847.5,576.5 Z"/></g>
<g><path style="opacity:1" fill="#fefefe" d="M 2173.5,670.5 C 2249.51,740.192 2308.51,822.192 2350.5,916.5C 2244.5,828.849 2123.5,771.682 1987.5,745C 1858.62,719.703 1730.62,723.37 1603.5,756C 1469.12,792.847 1356.29,863.347 1265,967.5C 1260,973.833 1255,980.167 1250,986.5C 1250.03,984.402 1250.7,982.402 1252,980.5C 1355.33,805.354 1505.17,690.187 1701.5,635C 1862.89,594.5 2020.22,606.333 2173.5,670.5 Z"/></g>
<g><path style="opacity:1" fill="#bcbcbc" d="M 2173.5,670.5 C 2341.6,745.102 2466.1,865.102 2547,1030.5C 2551.6,1040.79 2556.1,1051.13 2560.5,1061.5C 2560,1061.83 2559.5,1062.17 2559,1062.5C 2532.21,1057.45 2506.71,1061.12 2482.5,1073.5C 2447.24,1014.08 2403.24,961.75 2350.5,916.5C 2308.51,822.192 2249.51,740.192 2173.5,670.5 Z"/></g>
<g><path style="opacity:1" fill="#FFCF02" d="M 2987.5,729.5 C 3003.94,727.035 3013.61,733.868 3016.5,750C 3014.67,767.478 3005.01,774.811 2987.5,772C 2973.58,765.417 2969.41,754.917 2975,740.5C 2978.12,735.536 2982.29,731.87 2987.5,729.5 Z"/></g>
<g><path style="opacity:1" fill="#fdfdfd" d="M 2377.5,985.5 C 2390.1,1022.56 2399.1,1060.23 2404.5,1098.5C 2360.86,1030.36 2304.53,975.192 2235.5,933C 2174.84,897.013 2110.17,870.347 2041.5,853C 1983.09,838.115 1923.76,829.115 1863.5,826C 1655.6,821.149 1478.44,891.649 1332,1037.5C 1226.24,1147.08 1169.57,1278.41 1162,1431.5C 1152.99,1357.52 1154.99,1283.86 1168,1210.5C 1169.69,1200.89 1171.85,1191.39 1174.5,1182C 1252.76,983.386 1393.76,852.386 1597.5,789C 1768.22,743.213 1936.88,749.879 2103.5,809C 2206.37,845.816 2296.2,902.65 2373,979.5C 2374.33,981.66 2375.83,983.66 2377.5,985.5 Z"/></g>
<g><path style="opacity:1" fill="#FFCF02" d="M 980.5,814.5 C 999.201,813.94 1008.03,822.94 1007,841.5C 1002.33,853.751 993.492,859.251 980.5,858C 966.67,853.47 961.17,843.97 964,829.5C 967.243,821.745 972.743,816.745 980.5,814.5 Z"/></g>
<g><path style="opacity:1" fill="#6f6f6f" d="M 1726.5,957.5 C 1785.9,954.132 1843.57,962.299 1899.5,982C 1907.16,988.157 1907.49,994.824 1900.5,1002C 1826.79,1018.9 1755.79,1043.57 1687.5,1076C 1485.38,1175.91 1378.21,1339.08 1366,1565.5C 1363.98,1616.98 1365.81,1668.32 1371.5,1719.5C 1370.4,1729.1 1365.07,1733.26 1355.5,1732C 1352.48,1730.47 1349.98,1728.3 1348,1725.5C 1261.68,1596.82 1239.51,1457.66 1281.5,1308C 1331.15,1157.69 1429.15,1052.35 1575.5,992C 1624.22,973.025 1674.56,961.525 1726.5,957.5 Z"/></g>
<g><path style="opacity:1" fill="#bcbcbc" d="M 2377.5,985.5 C 2408.68,1017.19 2435.02,1052.53 2456.5,1091.5C 2444.2,1104.31 2434.03,1118.64 2426,1134.5C 2419.07,1122.31 2411.91,1110.31 2404.5,1098.5C 2399.1,1060.23 2390.1,1022.56 2377.5,985.5 Z"/></g>
<g><path style="opacity:1" fill="#FFCF02" d="M 589.5,1019.5 C 610.594,1018.09 619.761,1027.76 617,1048.5C 610.583,1061.42 600.417,1065.59 586.5,1061C 575.592,1053.9 572.092,1044.06 576,1031.5C 579.454,1026.21 583.954,1022.21 589.5,1019.5 Z"/></g>
<g><path style="opacity:1" fill="#020202" d="M 2234.5,1571.5 C 2226.13,1602.21 2233.47,1628.37 2256.5,1650C 2285.82,1670.55 2315.15,1670.55 2344.5,1650C 2359.52,1636.46 2368.69,1619.63 2372,1599.5C 2383.99,1555.94 2390.65,1511.6 2392,1466.5C 2384.24,1429.19 2361.4,1408.19 2323.5,1403.5C 2353.07,1305.09 2359.57,1205.09 2343,1103.5C 2339.72,1086.17 2336.72,1068.83 2334,1051.5C 2365.82,1087.01 2391.66,1126.51 2411.5,1170C 2398.59,1218.06 2394.76,1266.9 2400,1316.5C 2404.19,1368.05 2417.52,1417.05 2440,1463.5C 2451.57,1484.06 2465.4,1502.89 2481.5,1520C 2454.46,1634.13 2397.46,1730.13 2310.5,1808C 2229.01,1877.59 2136.68,1928.26 2033.5,1960C 1897.59,2001.97 1759.26,2012.31 1618.5,1991C 1576.96,1983.87 1536.63,1972.53 1497.5,1957C 1492.17,1954.33 1486.83,1951.67 1481.5,1949C 1415.35,1904.36 1357.69,1850.52 1308.5,1787.5C 1354.84,1815.24 1405.17,1833.74 1459.5,1843C 1658.1,1870.79 1846.1,1838.12 2023.5,1745C 2089.18,1709.34 2148.02,1664.51 2200,1610.5C 2211.33,1598.49 2222,1585.83 2232,1572.5C 2232.84,1571 2233.67,1570.67 2234.5,1571.5 Z"/></g>
<g><path style="opacity:1" fill="#FFCF02" d="M 3508.5,1058.5 C 3520.9,1056.29 3530.07,1060.62 3536,1071.5C 3539.58,1084.09 3535.75,1093.59 3524.5,1100C 3511.26,1104.59 3501.43,1100.76 3495,1088.5C 3491.11,1074.61 3495.61,1064.61 3508.5,1058.5 Z"/></g>
<g><path style="opacity:1" fill="#fdfdfd" d="M 2518.5,1410.5 C 2495.66,1415.38 2474,1412.05 2453.5,1400.5C 2447.86,1385.71 2443.69,1370.38 2441,1354.5C 2432.34,1306.32 2431.34,1257.98 2438,1209.5C 2442.27,1183.35 2451.27,1159.01 2465,1136.5C 2488.76,1100.86 2521.26,1088.7 2562.5,1100C 2541.9,1116.02 2526.73,1136.19 2517,1160.5C 2505.17,1189.99 2498.83,1220.66 2498,1252.5C 2495.16,1306.47 2502,1359.14 2518.5,1410.5 Z"/></g>
<g><path style="opacity:1" fill="#fefefe" d="M 2637.5,1159.5 C 2640.42,1190.88 2640.08,1222.21 2636.5,1253.5C 2630.54,1264.55 2626.04,1276.21 2623,1288.5C 2591.03,1304.15 2571.36,1329.48 2564,1364.5C 2562.13,1374.08 2561.29,1383.75 2561.5,1393.5C 2555.7,1396.23 2550.04,1399.23 2544.5,1402.5C 2523.89,1338.7 2519.05,1273.7 2530,1207.5C 2535.46,1175.08 2549.96,1147.58 2573.5,1125C 2579.49,1120.35 2585.99,1116.52 2593,1113.5C 2611.1,1125.76 2625.93,1141.1 2637.5,1159.5 Z"/></g>
<g><path style="opacity:1" fill="#6f6f6f" d="M 2257.5,1169.5 C 2275.44,1167.98 2290.27,1173.98 2302,1187.5C 2312.58,1204.33 2322.92,1221.33 2333,1238.5C 2337.18,1249.39 2337.52,1260.39 2334,1271.5C 2320.11,1304.37 2295.61,1324.54 2260.5,1332C 2237.69,1334.74 2220.52,1326.24 2209,1306.5C 2199.24,1292.42 2189.91,1278.08 2181,1263.5C 2174.98,1247.11 2176.98,1231.78 2187,1217.5C 2204.91,1193.14 2228.41,1177.14 2257.5,1169.5 Z"/></g>
<g><path style="opacity:1" fill="#bcbcbc" d="M 2637.5,1159.5 C 2650.17,1177.08 2660.17,1196.25 2667.5,1217C 2661.73,1222.77 2655.9,1228.6 2650,1234.5C 2645.48,1240.9 2640.98,1247.23 2636.5,1253.5C 2640.08,1222.21 2640.42,1190.88 2637.5,1159.5 Z"/></g>
<g><path style="opacity:1" fill="#fefefe" d="M 2861.5,1249.5 C 2865.99,1278.92 2863.16,1307.58 2853,1335.5C 2846.3,1352.13 2835.13,1364.63 2819.5,1373C 2806.23,1377.47 2792.9,1377.64 2779.5,1373.5C 2773.03,1349.54 2759.7,1330.37 2739.5,1316C 2714.46,1297.99 2686.46,1288.16 2655.5,1286.5C 2668.56,1250.61 2693.9,1228.78 2731.5,1221C 2774.23,1217.9 2814.89,1225.56 2853.5,1244C 2856.41,1245.61 2859.07,1247.44 2861.5,1249.5 Z"/></g>
<g><path style="opacity:1" fill="#bcbcbc" d="M 2861.5,1249.5 C 2894.91,1269.24 2917.07,1297.91 2928,1335.5C 2941.17,1388.31 2935.5,1438.98 2911,1487.5C 2905.74,1497.02 2899.74,1506.02 2893,1514.5C 2888.23,1522.71 2884.56,1531.37 2882,1540.5C 2870.62,1622.11 2853.46,1702.44 2830.5,1781.5C 2781.61,1773.78 2734.28,1760.78 2688.5,1742.5C 2690.31,1742.51 2691.98,1742.01 2693.5,1741C 2740.81,1700.28 2770.65,1649.11 2783,1587.5C 2791,1547.87 2793.5,1507.87 2790.5,1467.5C 2763.91,1474.01 2738.57,1470.84 2714.5,1458C 2707.4,1453.73 2701.06,1448.56 2695.5,1442.5C 2715.9,1451.81 2735.23,1449.98 2753.5,1437C 2757.71,1432.45 2762.21,1428.29 2767,1424.5C 2792.58,1436.06 2818.75,1437.56 2845.5,1429C 2867.48,1419.68 2882.65,1403.85 2891,1381.5C 2893.71,1374.5 2895.87,1367.34 2897.5,1360C 2896.01,1353.58 2892.01,1351.25 2885.5,1353C 2884.67,1353.83 2883.83,1354.67 2883,1355.5C 2878.05,1371.58 2869.88,1385.75 2858.5,1398C 2833.18,1415.86 2806.84,1417.19 2779.5,1402C 2780.55,1392.61 2780.55,1383.11 2779.5,1373.5C 2792.9,1377.64 2806.23,1377.47 2819.5,1373C 2835.13,1364.63 2846.3,1352.13 2853,1335.5C 2863.16,1307.58 2865.99,1278.92 2861.5,1249.5 Z"/></g>
<g><path style="opacity:1" fill="#fefefe" d="M 2732.5,1350.5 C 2734.05,1386.27 2717.05,1405.27 2681.5,1407.5C 2676.01,1402.38 2671.35,1396.54 2667.5,1390C 2660.49,1388.68 2657.99,1391.51 2660,1398.5C 2665.99,1412.98 2674.83,1425.48 2686.5,1436C 2689.92,1437.7 2692.92,1439.87 2695.5,1442.5C 2701.06,1448.56 2707.4,1453.73 2714.5,1458C 2738.57,1470.84 2763.91,1474.01 2790.5,1467.5C 2793.5,1507.87 2791,1547.87 2783,1587.5C 2770.65,1649.11 2740.81,1700.28 2693.5,1741C 2691.98,1742.01 2690.31,1742.51 2688.5,1742.5C 2649.15,1727.34 2613.15,1706.84 2580.5,1681C 2602.9,1619.33 2616.73,1555.83 2622,1490.5C 2622.67,1479.5 2622.67,1468.5 2622,1457.5C 2615.51,1449.86 2609.51,1441.86 2604,1433.5C 2586,1400.09 2587.67,1367.76 2609,1336.5C 2623.23,1316.87 2642.06,1310.37 2665.5,1317C 2691.4,1321.44 2713.73,1332.61 2732.5,1350.5 Z"/></g>
<g><path style="opacity:1" fill="#bbbbbb" d="M 2732.5,1350.5 C 2759.13,1374.38 2759.13,1398.22 2732.5,1422C 2719.82,1428.44 2707.49,1427.77 2695.5,1420C 2690.04,1416.71 2685.38,1412.54 2681.5,1407.5C 2717.05,1405.27 2734.05,1386.27 2732.5,1350.5 Z"/></g>
<g><path style="opacity:1" fill="#FFCF02" d="M 3156.5,1378.5 C 3170.18,1378.67 3174.35,1385.01 3169,1397.5C 3161.46,1403.63 3155.13,1402.63 3150,1394.5C 3149.33,1391.17 3149.33,1387.83 3150,1384.5C 3152.06,1382.27 3154.23,1380.27 3156.5,1378.5 Z"/></g>
<g><path style="opacity:1" fill="#b9b9b9" d="M 2561.5,1393.5 C 2563.57,1421.89 2573.73,1446.89 2592,1468.5C 2592.67,1473.17 2592.67,1477.83 2592,1482.5C 2569.78,1459.74 2553.95,1433.07 2544.5,1402.5C 2550.04,1399.23 2555.7,1396.23 2561.5,1393.5 Z"/></g>
<g><path style="opacity:1" fill="#bcbcbc" d="M 2453.5,1400.5 C 2474,1412.05 2495.66,1415.38 2518.5,1410.5C 2528.73,1440.64 2543.9,1467.97 2564,1492.5C 2571.84,1500.82 2580.34,1508.32 2589.5,1515C 2565.97,1523.04 2543.64,1520.37 2522.5,1507C 2502.44,1492.94 2486.61,1475.11 2475,1453.5C 2465.77,1436.66 2458.61,1418.99 2453.5,1400.5 Z"/></g>
<g><path style="opacity:1" fill="#6f6f6f" d="M 2323.5,1403.5 C 2303.58,1462.67 2274.75,1517 2237,1566.5C 2236.54,1565.91 2236.37,1565.24 2236.5,1564.5C 2241.82,1531.04 2245.32,1497.37 2247,1463.5C 2257.23,1423.98 2282.73,1403.98 2323.5,1403.5 Z"/></g>
<g><path style="opacity:1" fill="#595959" d="M 2323.5,1403.5 C 2361.4,1408.19 2384.24,1429.19 2392,1466.5C 2390.65,1511.6 2383.99,1555.94 2372,1599.5C 2368.69,1619.63 2359.52,1636.46 2344.5,1650C 2315.15,1670.55 2285.82,1670.55 2256.5,1650C 2233.47,1628.37 2226.13,1602.21 2234.5,1571.5C 2235.17,1569.17 2235.83,1566.83 2236.5,1564.5C 2236.37,1565.24 2236.54,1565.91 2237,1566.5C 2274.75,1517 2303.58,1462.67 2323.5,1403.5 Z"/></g>
<g><path style="opacity:1" fill="#FFCF02" d="M 404.5,1454.5 C 416.858,1454.01 421.691,1459.68 419,1471.5C 412.12,1479.3 405.453,1479.3 399,1471.5C 395.783,1464.1 397.617,1458.44 404.5,1454.5 Z"/></g>
<g><path style="opacity:1" fill="#bbbbbb" d="M 2505.5,1538.5 C 2512.58,1542.03 2519.91,1545.03 2527.5,1547.5C 2481.69,1736.75 2374.03,1878.58 2204.5,1973C 2083.2,2035.87 1954.2,2067.54 1817.5,2068C 1754.96,2062.53 1694.29,2048.86 1635.5,2027C 1633.81,2025.6 1633.14,2023.77 1633.5,2021.5C 1806.81,2043.19 1973.81,2020.03 2134.5,1952C 2214.15,1917.3 2285.48,1870.3 2348.5,1811C 2426.44,1735.33 2478.77,1644.5 2505.5,1538.5 Z"/></g>
<g><path style="opacity:1" fill="#bababa" d="M 2343.5,1909.5 C 2450.02,1813.5 2520.69,1695.5 2555.5,1555.5C 2564.83,1554.65 2574.16,1553.99 2583.5,1553.5C 2579.32,1571.21 2573.82,1588.54 2567,1605.5C 2519.07,1726.56 2444.57,1827.9 2343.5,1909.5 Z"/></g>
<g><path style="opacity:1" fill="#FFCF02" d="M 844.5,1695.5 C 848.876,1696.02 852.043,1698.36 854,1702.5C 858.134,1712.83 861.134,1723.5 863,1734.5C 865.358,1740.07 869.191,1744.23 874.5,1747C 886.984,1749.12 898.984,1752.79 910.5,1758C 914.01,1759.91 915.176,1762.74 914,1766.5C 911.795,1769.04 909.295,1771.21 906.5,1773C 894.83,1776.46 883.163,1779.8 871.5,1783C 867.182,1786.31 864.015,1790.48 862,1795.5C 860.598,1805.85 857.931,1815.85 854,1825.5C 852.227,1828.94 849.56,1831.28 846,1832.5C 843.594,1832.3 841.594,1831.3 840,1829.5C 834.656,1819.13 831.323,1808.13 830,1796.5C 827.592,1789.09 822.758,1783.92 815.5,1781C 804.43,1779.39 793.764,1776.39 783.5,1772C 778.879,1769.92 777.045,1766.42 778,1761.5C 780.383,1758.73 783.217,1756.56 786.5,1755C 795.281,1751.85 804.281,1749.52 813.5,1748C 820.368,1746.66 825.201,1742.83 828,1736.5C 830.242,1726.38 832.908,1716.38 836,1706.5C 837.582,1701.77 840.415,1698.1 844.5,1695.5 Z"/></g>
<g><path style="opacity:1" fill="#fefefe" d="M 2718.5,1785.5 C 2685.82,1883.56 2636.66,1971.9 2571,2050.5C 2539.31,2086.37 2503.81,2117.7 2464.5,2144.5C 2476.86,2166.74 2485.36,2190.4 2490,2215.5C 2494.55,2238.84 2488.38,2258.68 2471.5,2275C 2455.13,2285.62 2437.13,2290.45 2417.5,2289.5C 2405.19,2259.21 2390.03,2230.55 2372,2203.5C 2350.37,2179.1 2323.2,2166.77 2290.5,2166.5C 2111.85,2180.75 1935.52,2209.25 1761.5,2252C 1738.47,2259.86 1721.47,2274.69 1710.5,2296.5C 1694.34,2246.21 1680.84,2195.21 1670,2143.5C 1667.46,2137.86 1664.13,2137.19 1660,2141.5C 1666.6,2203.78 1677.1,2265.45 1691.5,2326.5C 1691.24,2329.03 1690.4,2331.36 1689,2333.5C 1675.95,2350.66 1670.62,2369.99 1673,2391.5C 1684.53,2431.61 1696.36,2471.61 1708.5,2511.5C 1699.29,2528.38 1686.62,2542.04 1670.5,2552.5C 1671.93,2517.1 1668.93,2482.1 1661.5,2447.5C 1662.41,2443.86 1662.58,2440.19 1662,2436.5C 1630.78,2377.72 1604.78,2316.72 1584,2253.5C 1572.44,2217.03 1567.77,2179.7 1570,2141.5C 1572.49,2112.01 1582.83,2085.67 1601,2062.5C 1603.73,2059.77 1606.4,2057.1 1609,2054.5C 1688.87,2085.67 1771.7,2103.01 1857.5,2106.5C 1959.31,2130.5 2061.98,2134 2165.5,2117C 2260.38,2100.86 2343.72,2061.19 2415.5,1998C 2470.08,1946.74 2510.25,1885.91 2536,1815.5C 2545.93,1783.23 2551.77,1750.23 2553.5,1716.5C 2555.4,1712.37 2557.57,1708.37 2560,1704.5C 2608.07,1740.29 2660.9,1767.29 2718.5,1785.5 Z"/></g>
<g><path style="opacity:1" fill="#bcbcbc" d="M 2553.5,1716.5 C 2551.77,1750.23 2545.93,1783.23 2536,1815.5C 2510.25,1885.91 2470.08,1946.74 2415.5,1998C 2343.72,2061.19 2260.38,2100.86 2165.5,2117C 2061.98,2134 1959.31,2130.5 1857.5,2106.5C 2088.92,2110.35 2284.76,2029.68 2445,1864.5C 2486.81,1819.18 2522.97,1769.85 2553.5,1716.5 Z"/></g>
<g><path style="opacity:1" fill="#bcbcbc" d="M 2718.5,1785.5 C 2751.13,1796.32 2784.47,1804.32 2818.5,1809.5C 2781.13,1930.46 2718.13,2035.63 2629.5,2125C 2617.13,2136.37 2604.46,2147.37 2591.5,2158C 2589.71,2160.41 2588.04,2162.91 2586.5,2165.5C 2573.57,2173.1 2560.9,2181.1 2548.5,2189.5C 2546.41,2194.12 2547.74,2197.12 2552.5,2198.5C 2565.48,2195.01 2578.48,2191.67 2591.5,2188.5C 2599.81,2218.4 2607.81,2248.4 2615.5,2278.5C 2610.82,2278.33 2606.15,2278.5 2601.5,2279C 2545.72,2297.65 2488.88,2312.15 2431,2322.5C 2425.99,2311.79 2421.49,2300.79 2417.5,2289.5C 2437.13,2290.45 2455.13,2285.62 2471.5,2275C 2488.38,2258.68 2494.55,2238.84 2490,2215.5C 2485.36,2190.4 2476.86,2166.74 2464.5,2144.5C 2503.81,2117.7 2539.31,2086.37 2571,2050.5C 2636.66,1971.9 2685.82,1883.56 2718.5,1785.5 Z"/></g>
<g><path style="opacity:1" fill="#6c6c6c" d="M 2343.5,1909.5 C 2341.8,1912.39 2339.46,1914.23 2336.5,1915C 2338.44,1912.55 2340.77,1910.71 2343.5,1909.5 Z"/></g>
<g><path style="opacity:1" fill="#b8b8b8" d="M 2769.5,2004.5 C 2770.38,2004.37 2771.04,2004.7 2771.5,2005.5C 2775.25,2012.5 2778.59,2019.67 2781.5,2027C 2770.7,2028.66 2760.36,2031.82 2750.5,2036.5C 2749.48,2036 2749.31,2035.33 2750,2034.5C 2756.76,2024.64 2763.26,2014.64 2769.5,2004.5 Z"/></g>
<g><path style="opacity:1" fill="#fdfdfd" d="M 2732.5,2339.5 C 2725.42,2340.17 2718.42,2339 2711.5,2336C 2703.5,2332.67 2695.83,2328.83 2688.5,2324.5C 2679.93,2307.93 2667.6,2294.93 2651.5,2285.5C 2652.59,2285.38 2653.25,2284.71 2653.5,2283.5C 2644.28,2247.68 2634.78,2212.01 2625,2176.5C 2658.17,2148.1 2688.17,2116.77 2715,2082.5C 2735.32,2074.26 2755.82,2066.43 2776.5,2059C 2788.37,2056.51 2800.04,2057.18 2811.5,2061C 2827.5,2069.33 2842.83,2078.66 2857.5,2089C 2843.43,2089.6 2829.76,2092.27 2816.5,2097C 2789.47,2108.67 2762.47,2120.34 2735.5,2132C 2709.49,2148.19 2697.32,2171.69 2699,2202.5C 2710.33,2248.15 2721.49,2293.81 2732.5,2339.5 Z"/></g>
<g><path style="opacity:1" fill="#fefefe" d="M 2903.5,2211.5 C 2883.81,2249.06 2857.81,2281.89 2825.5,2310C 2807.99,2324.75 2787.99,2334.75 2765.5,2340C 2756.94,2341.92 2748.27,2342.75 2739.5,2342.5C 2730.31,2294.03 2721.31,2245.53 2712.5,2197C 2714.9,2170.61 2728.56,2152.94 2753.5,2144C 2779.5,2134.67 2805.5,2125.33 2831.5,2116C 2847.26,2112.4 2862.93,2112.73 2878.5,2117C 2881.33,2121.49 2883.49,2126.32 2885,2131.5C 2891.49,2158.11 2897.65,2184.77 2903.5,2211.5 Z"/></g>
<g><path style="opacity:1" fill="#fdfdfd" d="M 2324.5,2204.5 C 2323.93,2206.26 2323.09,2207.92 2322,2209.5C 2304.66,2228.51 2287.66,2247.84 2271,2267.5C 2269.22,2269.79 2267.06,2271.46 2264.5,2272.5C 2247.61,2264.95 2229.94,2262.45 2211.5,2265C 2116.85,2271.75 2022.85,2283.41 1929.5,2300C 1865.61,2311.89 1801.94,2324.89 1738.5,2339C 1730.28,2341.78 1722.61,2345.61 1715.5,2350.5C 1714.59,2349.21 1714.76,2347.88 1716,2346.5C 1726.06,2330.76 1735.73,2314.76 1745,2298.5C 1754.66,2286.58 1767.16,2279.75 1782.5,2278C 1947.1,2238.46 2113.77,2211.46 2282.5,2197C 2297.25,2195.56 2311.25,2198.06 2324.5,2204.5 Z"/></g>
<g><path style="opacity:1" fill="#bcbcbc" d="M 2324.5,2204.5 C 2336.96,2210.78 2347.12,2219.78 2355,2231.5C 2374.59,2265.1 2390.43,2300.44 2402.5,2337.5C 2388.46,2350.9 2379.63,2367.23 2376,2386.5C 2375.33,2393.5 2375.33,2400.5 2376,2407.5C 2380.26,2424.94 2384.92,2442.27 2390,2459.5C 2398.48,2482.98 2414.15,2499.64 2437,2509.5C 2438.36,2531.11 2432.03,2550.11 2418,2566.5C 2401.11,2587.9 2381.28,2605.9 2358.5,2620.5C 2362.82,2528.9 2349.32,2439.9 2318,2353.5C 2310.12,2331.73 2300.12,2311.07 2288,2291.5C 2280.85,2284.17 2273.01,2277.83 2264.5,2272.5C 2267.06,2271.46 2269.22,2269.79 2271,2267.5C 2287.66,2247.84 2304.66,2228.51 2322,2209.5C 2323.09,2207.92 2323.93,2206.26 2324.5,2204.5 Z"/></g>
<g><path style="opacity:1" fill="#bcbcbc" d="M 2903.5,2211.5 C 2918.04,2271.69 2932.54,2332.03 2947,2392.5C 2955.15,2429.09 2943.32,2456.92 2911.5,2476C 2867.8,2497.01 2822.13,2512.01 2774.5,2521C 2763.12,2521.86 2751.79,2521.52 2740.5,2520C 2725.18,2515.17 2710.18,2509.51 2695.5,2503C 2692.76,2485.73 2690.09,2468.4 2687.5,2451C 2687.54,2449.03 2688.04,2447.2 2689,2445.5C 2703.31,2425.66 2707.98,2403.66 2703,2379.5C 2698.94,2360.92 2694.1,2342.58 2688.5,2324.5C 2695.83,2328.83 2703.5,2332.67 2711.5,2336C 2718.42,2339 2725.42,2340.17 2732.5,2339.5C 2741.26,2371.87 2749.43,2404.54 2757,2437.5C 2751.92,2405.73 2746.08,2374.07 2739.5,2342.5C 2748.27,2342.75 2756.94,2341.92 2765.5,2340C 2787.99,2334.75 2807.99,2324.75 2825.5,2310C 2857.81,2281.89 2883.81,2249.06 2903.5,2211.5 Z"/></g>
<g><path style="opacity:1" fill="#8d8d8d" d="M 2651.5,2285.5 C 2648.69,2285.17 2646.02,2284.34 2643.5,2283C 2646.54,2282.74 2649.21,2283.57 2651.5,2285.5 Z"/></g>
<g><path style="opacity:1" fill="#fdfdfd" d="M 2255.5,2298.5 C 2254.65,2340.97 2248.48,2382.63 2237,2423.5C 2236.51,2422.21 2236.34,2420.87 2236.5,2419.5C 2239.54,2379.75 2222.54,2352.92 2185.5,2339C 2147.47,2331.59 2121.3,2345.76 2107,2381.5C 2099.35,2410.89 2106.19,2436.39 2127.5,2458C 2152.03,2478.15 2178.37,2480.82 2206.5,2466C 2219.49,2457.19 2228.49,2445.36 2233.5,2430.5C 2220.02,2481.44 2193.68,2524.77 2154.5,2560.5C 2151.05,2546.63 2146.88,2532.97 2142,2519.5C 2136.34,2510.17 2128.51,2503.34 2118.5,2499C 2108.94,2496.68 2099.27,2494.68 2089.5,2493C 2045.45,2486.71 2001.45,2480.04 1957.5,2473C 1947.64,2471.47 1941.14,2465.97 1938,2456.5C 1925.67,2415.33 1912.83,2374.33 1899.5,2333.5C 2008.81,2310.89 2119.31,2296.56 2231,2290.5C 2239.87,2291.29 2248.04,2293.96 2255.5,2298.5 Z"/></g>
<g><path style="opacity:1" fill="#bcbcbc" d="M 2255.5,2298.5 C 2261.41,2301.57 2266.24,2305.9 2270,2311.5C 2293.56,2357.4 2310.23,2405.73 2320,2456.5C 2329.87,2504.33 2334.2,2552.67 2333,2601.5C 2332.66,2611.38 2331.16,2621.04 2328.5,2630.5C 2279.46,2641.67 2230.13,2651.34 2180.5,2659.5C 2171.98,2626.43 2163.32,2593.43 2154.5,2560.5C 2193.68,2524.77 2220.02,2481.44 2233.5,2430.5C 2234.61,2426.75 2235.61,2423.08 2236.5,2419.5C 2236.34,2420.87 2236.51,2422.21 2237,2423.5C 2248.48,2382.63 2254.65,2340.97 2255.5,2298.5 Z"/></g>
<g><path style="opacity:1" fill="#bcbcbc" d="M 2425.5,2467.5 C 2461.29,2463.29 2494.96,2452.12 2526.5,2434C 2572.11,2404.92 2595.78,2363.42 2597.5,2309.5C 2626.01,2300.95 2647.85,2309.62 2663,2335.5C 2669.02,2355.74 2673.85,2376.24 2677.5,2397C 2676.45,2420.12 2665.45,2436.46 2644.5,2446C 2584.27,2472.48 2521.27,2485.81 2455.5,2486C 2443.38,2483.12 2433.38,2476.95 2425.5,2467.5 Z"/></g>
<g><path style="opacity:1" fill="#fefefe" d="M 2597.5,2309.5 C 2595.78,2363.42 2572.11,2404.92 2526.5,2434C 2494.96,2452.12 2461.29,2463.29 2425.5,2467.5C 2421.06,2462.29 2417.89,2456.29 2416,2449.5C 2412.49,2436.46 2408.82,2423.46 2405,2410.5C 2400.39,2379.43 2412.89,2358.6 2442.5,2348C 2495.14,2339.09 2546.81,2326.26 2597.5,2309.5 Z"/></g>
<g><path style="opacity:1" fill="#242424" d="M 2236.5,2419.5 C 2235.61,2423.08 2234.61,2426.75 2233.5,2430.5C 2228.49,2445.36 2219.49,2457.19 2206.5,2466C 2178.37,2480.82 2152.03,2478.15 2127.5,2458C 2106.19,2436.39 2099.35,2410.89 2107,2381.5C 2121.3,2345.76 2147.47,2331.59 2185.5,2339C 2222.54,2352.92 2239.54,2379.75 2236.5,2419.5 Z"/></g>
<g><path style="opacity:1" fill="#fefefe" d="M 2131.5,2574.5 C 2131.66,2575.87 2131.49,2577.21 2131,2578.5C 2100.66,2599.08 2067.49,2613.25 2031.5,2621C 1982.56,2630.45 1933.22,2633.12 1883.5,2629C 1846.16,2626.04 1809.16,2620.87 1772.5,2613.5C 1752.87,2550.66 1733.37,2487.66 1714,2424.5C 1711.22,2407.73 1714.55,2392.4 1724,2378.5C 1729,2373.17 1734.83,2369 1741.5,2366C 1784.98,2355.67 1828.64,2346.17 1872.5,2337.5C 1874.78,2337.78 1875.95,2339.11 1876,2341.5C 1889.33,2384.17 1902.67,2426.83 1916,2469.5C 1923.59,2485.41 1936.09,2494.91 1953.5,2498C 2002.11,2505.66 2050.77,2512.99 2099.5,2520C 2109.65,2520.49 2116.81,2525.32 2121,2534.5C 2124.82,2547.77 2128.32,2561.1 2131.5,2574.5 Z"/></g>
<g><path style="opacity:1" fill="#23a6ef" d="M 2195.5,2373.5 C 2209.05,2384.96 2214.21,2399.63 2211,2417.5C 2203.56,2443.91 2186.4,2454.08 2159.5,2448C 2147.09,2443.09 2138.09,2434.59 2132.5,2422.5C 2135.06,2401.44 2145.73,2385.94 2164.5,2376C 2174.63,2372.51 2184.97,2371.68 2195.5,2373.5 Z"/></g>
<g><path style="opacity:1" fill="#8fd0f5" d="M 2195.5,2373.5 C 2184.97,2371.68 2174.63,2372.51 2164.5,2376C 2145.73,2385.94 2135.06,2401.44 2132.5,2422.5C 2123.57,2398.12 2129.91,2378.95 2151.5,2365C 2168.04,2358.64 2182.71,2361.47 2195.5,2373.5 Z"/></g>
<g><path style="opacity:1" fill="#FFCF02" d="M 3284.5,2383.5 C 3289.42,2383.04 3292.92,2385.04 3295,2389.5C 3299.42,2400.84 3302.75,2412.51 3305,2424.5C 3308.37,2430.2 3313.2,2434.04 3319.5,2436C 3331.87,2436.96 3343.2,2440.79 3353.5,2447.5C 3355.34,2449.53 3355.84,2451.86 3355,2454.5C 3350.27,2459.62 3344.44,2462.78 3337.5,2464C 3331.2,2465.54 3324.87,2466.88 3318.5,2468C 3313.48,2470.02 3309.31,2473.18 3306,2477.5C 3302.88,2488.87 3299.55,2500.2 3296,2511.5C 3289.53,2523.56 3283.53,2523.23 3278,2510.5C 3274.16,2500.82 3271.49,2490.82 3270,2480.5C 3267.44,2474.94 3263.27,2471.11 3257.5,2469C 3246.47,2467.24 3235.8,2464.24 3225.5,2460C 3217.13,2455.87 3216.47,2450.87 3223.5,2445C 3234.33,2440.06 3245.66,2436.73 3257.5,2435C 3263.33,2432.5 3267.5,2428.33 3270,2422.5C 3271.91,2412.29 3274.57,2402.29 3278,2392.5C 3279.61,2389.06 3281.78,2386.06 3284.5,2383.5 Z"/></g>
<g><path style="opacity:1" fill="#fefefe" d="M 1641.5,2568.5 C 1607.25,2580.37 1571.92,2585.87 1535.5,2585C 1489.55,2591.16 1443.55,2596.99 1397.5,2602.5C 1399.87,2588.63 1401.2,2574.63 1401.5,2560.5C 1421.56,2546.49 1428.73,2527.49 1423,2503.5C 1419.01,2491.35 1412.84,2480.51 1404.5,2471C 1398.5,2470.6 1396.33,2473.43 1398,2479.5C 1400.2,2486.45 1402.2,2493.45 1404,2500.5C 1407.85,2524.17 1398.01,2537.83 1374.5,2541.5C 1369.55,2540.91 1364.88,2539.41 1360.5,2537C 1323.67,2512.93 1316.5,2481.76 1339,2443.5C 1344.38,2435.25 1349.88,2427.08 1355.5,2419C 1358.45,2418.19 1361.11,2416.86 1363.5,2415C 1382.74,2392.24 1403.74,2390.57 1426.5,2410C 1444.25,2428.32 1458.42,2449.15 1469,2472.5C 1472.53,2475.85 1476.7,2478.02 1481.5,2479C 1534.76,2493.96 1586.26,2489.46 1636,2465.5C 1639.18,2478.23 1641.18,2491.23 1642,2504.5C 1642.74,2525.85 1642.57,2547.18 1641.5,2568.5 Z"/></g>
<g><path style="opacity:1" fill="#fefefe" d="M 1329.5,2549.5 C 1324.86,2573.97 1313.86,2595.14 1296.5,2613C 1276.71,2629.61 1254.05,2635.28 1228.5,2630C 1220.76,2627.98 1213.1,2625.82 1205.5,2623.5C 1196.92,2597.53 1194.08,2570.86 1197,2543.5C 1199.28,2520.08 1204.62,2497.41 1213,2475.5C 1228.59,2440.9 1254.76,2419.07 1291.5,2410C 1300.83,2409.33 1310.17,2409.33 1319.5,2410C 1322.04,2410.14 1324.38,2410.81 1326.5,2412C 1310.5,2433.01 1301.17,2456.67 1298.5,2483C 1299.02,2509.86 1309.35,2532.03 1329.5,2549.5 Z"/></g>
<g><path style="opacity:1" fill="#bcbcbc" d="M 2250.5,3308.5 C 2254.56,3308.28 2257.39,3306.28 2259,3302.5C 2264.25,3290.49 2264.91,3278.15 2261,3265.5C 2257.86,3257.92 2255.03,3250.26 2252.5,3242.5C 2256.05,3240.96 2257.22,3238.29 2256,3234.5C 2217.63,3183.2 2188.47,3126.87 2168.5,3065.5C 2169.92,3065.71 2171.26,3066.21 2172.5,3067C 2211.42,3100.63 2255.76,3124.63 2305.5,3139C 2381.1,3155.47 2442.94,3133.64 2491,3073.5C 2520.38,3032.71 2539.38,2987.38 2548,2937.5C 2561.92,2850.18 2556.25,2764.18 2531,2679.5C 2524.43,2658.23 2517.1,2637.23 2509,2616.5C 2477.17,2664.66 2434.34,2699.16 2380.5,2720C 2254.7,2738.1 2128.87,2755.94 2003,2773.5C 2000.04,2773.56 1997.21,2773.06 1994.5,2772C 1975.17,2757.67 1955.83,2743.33 1936.5,2729C 1934.78,2727.44 1932.78,2726.61 1930.5,2726.5C 2050.75,2712.17 2170.41,2693.34 2289.5,2670C 2314.37,2665.19 2339.03,2659.52 2363.5,2653C 2400.43,2631.74 2430.6,2603.24 2454,2567.5C 2463.11,2551 2467.61,2533.33 2467.5,2514.5C 2521.44,2512.51 2573.78,2502.34 2624.5,2484C 2634.69,2479.66 2645.03,2475.83 2655.5,2472.5C 2667.73,2560.77 2672.23,2649.44 2669,2738.5C 2661.54,2923.47 2606.54,3092.47 2504,3245.5C 2461.27,3302.34 2404.1,3328.17 2332.5,3323C 2304.52,3321.08 2277.18,3316.24 2250.5,3308.5 Z"/></g>
<g><path style="opacity:1" fill="#bbbbbb" d="M 1708.5,2511.5 C 1716.4,2535.21 1723.74,2559.21 1730.5,2583.5C 1709.1,2587.85 1687.77,2592.52 1666.5,2597.5C 1668.64,2582.58 1669.97,2567.58 1670.5,2552.5C 1686.62,2542.04 1699.29,2528.38 1708.5,2511.5 Z"/></g>
<g><path style="opacity:1" fill="#bcbcbc" d="M 2875.5,2523.5 C 2876.93,2523.88 2877.76,2524.88 2878,2526.5C 2882.44,2550.82 2886.78,2575.16 2891,2599.5C 2892.75,2657.75 2881.08,2713.08 2856,2765.5C 2820.57,2830.32 2765.74,2864.99 2691.5,2869.5C 2708.31,2761.35 2710.98,2652.85 2699.5,2544C 2699.83,2541.83 2700.17,2539.67 2700.5,2537.5C 2730.48,2552.99 2761.81,2556.49 2794.5,2548C 2822.38,2542.31 2849.38,2534.15 2875.5,2523.5 Z"/></g>
<g><path style="opacity:1" fill="#bcbcbc" d="M 1329.5,2549.5 C 1341.64,2562.4 1356.64,2569.06 1374.5,2569.5C 1379.03,2602.93 1367.03,2628.43 1338.5,2646C 1327.13,2650.52 1315.46,2651.52 1303.5,2649C 1295.74,2646.28 1288.4,2642.78 1281.5,2638.5C 1277.23,2639.6 1275.73,2642.27 1277,2646.5C 1302.6,2668.93 1330.1,2671.43 1359.5,2654C 1378.07,2641.26 1390.73,2624.09 1397.5,2602.5C 1443.55,2596.99 1489.55,2591.16 1535.5,2585C 1571.92,2585.87 1607.25,2580.37 1641.5,2568.5C 1640.93,2577.52 1640.1,2586.52 1639,2595.5C 1638.94,2598.78 1638.11,2601.78 1636.5,2604.5C 1596.54,2613.99 1556.54,2623.49 1516.5,2633C 1476.58,2645.45 1444.25,2668.45 1419.5,2702C 1378.88,2711.57 1338.21,2711.9 1297.5,2703C 1260.83,2693.44 1232.67,2672.61 1213,2640.5C 1210.4,2634.88 1207.9,2629.21 1205.5,2623.5C 1213.1,2625.82 1220.76,2627.98 1228.5,2630C 1254.05,2635.28 1276.71,2629.61 1296.5,2613C 1313.86,2595.14 1324.86,2573.97 1329.5,2549.5 Z"/></g>
<g><path style="opacity:1" fill="#bcbcbc" d="M 2131.5,2574.5 C 2139.86,2603.28 2147.86,2632.28 2155.5,2661.5C 2155.39,2662.44 2155.06,2663.28 2154.5,2664C 2052.97,2681.09 1950.97,2694.59 1848.5,2704.5C 1819.44,2702.92 1798.94,2688.92 1787,2662.5C 1781.85,2646.21 1777.01,2629.88 1772.5,2613.5C 1809.16,2620.87 1846.16,2626.04 1883.5,2629C 1933.22,2633.12 1982.56,2630.45 2031.5,2621C 2067.49,2613.25 2100.66,2599.08 2131,2578.5C 2131.49,2577.21 2131.66,2575.87 2131.5,2574.5 Z"/></g>
<g><path style="opacity:1" fill="#fefefe" d="M 1930.5,2726.5 C 1932.78,2726.61 1934.78,2727.44 1936.5,2729C 1955.83,2743.33 1975.17,2757.67 1994.5,2772C 1997.21,2773.06 2000.04,2773.56 2003,2773.5C 2128.87,2755.94 2254.7,2738.1 2380.5,2720C 2434.34,2699.16 2477.17,2664.66 2509,2616.5C 2517.1,2637.23 2524.43,2658.23 2531,2679.5C 2556.25,2764.18 2561.92,2850.18 2548,2937.5C 2539.38,2987.38 2520.38,3032.71 2491,3073.5C 2442.94,3133.64 2381.1,3155.47 2305.5,3139C 2255.76,3124.63 2211.42,3100.63 2172.5,3067C 2171.26,3066.21 2169.92,3065.71 2168.5,3065.5C 2161.9,3041.58 2157.57,3017.24 2155.5,2992.5C 2155.5,2990.17 2155.5,2987.83 2155.5,2985.5C 2158.39,2985.81 2161.05,2985.47 2163.5,2984.5C 2208.23,2982.91 2252.23,2976.41 2295.5,2965C 2325.2,2956.88 2354.54,2947.54 2383.5,2937C 2387.5,2933.67 2387.5,2930.33 2383.5,2927C 2381.83,2926.33 2380.17,2926.33 2378.5,2927C 2331.45,2940.68 2283.62,2950.51 2235,2956.5C 2156.35,2965.5 2079.51,2957.67 2004.5,2933C 1986.7,2926.77 1969.37,2919.44 1952.5,2911C 1935.84,2902.34 1919.84,2892.67 1904.5,2882C 1901.7,2879.71 1898.7,2879.21 1895.5,2880.5C 1886.23,2873.9 1877.23,2866.9 1868.5,2859.5C 1780.51,2861.29 1692.51,2863.79 1604.5,2867C 1601.45,2867.18 1598.45,2867.68 1595.5,2868.5C 1588.82,2876.51 1581.82,2884.18 1574.5,2891.5C 1537.11,2826.3 1481.77,2784.8 1408.5,2767C 1407.04,2766.58 1406.54,2765.74 1407,2764.5C 1418.05,2752.72 1428.38,2740.39 1438,2727.5C 1438.82,2725.21 1439.49,2722.88 1440,2720.5C 1453.62,2703.21 1469.45,2688.38 1487.5,2676C 1502.19,2667.32 1517.86,2660.99 1534.5,2657C 1602.83,2641 1671.16,2625.17 1739.5,2609.5C 1745.17,2629.19 1751.01,2648.86 1757,2668.5C 1773,2709.92 1803.17,2731.92 1847.5,2734.5C 1875.25,2732.71 1902.92,2730.05 1930.5,2726.5 Z"/></g>
<g><path style="opacity:1" fill="#fefefe" d="M 1559.5,2909.5 C 1533.5,2937.34 1508,2965.67 1483,2994.5C 1476.4,3014.96 1469.4,3035.29 1462,3055.5C 1457.76,3066.21 1452.76,3076.55 1447,3086.5C 1442.26,3094.24 1436.43,3101.07 1429.5,3107C 1426.69,3108.74 1423.69,3109.91 1420.5,3110.5C 1397.47,3067.64 1370.3,3027.64 1339,2990.5C 1299.67,2943.5 1257.17,2899.33 1211.5,2858C 1186.51,2842.45 1159.35,2833.95 1130,2832.5C 1118.16,2831.9 1106.82,2833.9 1096,2838.5C 1095.33,2837.83 1095.33,2837.17 1096,2836.5C 1130.22,2801.98 1171.39,2789.15 1219.5,2798C 1256.28,2806.5 1289.28,2822.5 1318.5,2846C 1323.05,2846.94 1327.05,2848.94 1330.5,2852C 1359.48,2878.29 1383.98,2908.13 1404,2941.5C 1407.33,2944.17 1410.67,2944.17 1414,2941.5C 1414.67,2939.5 1414.67,2937.5 1414,2935.5C 1397.74,2897.79 1376.58,2863.29 1350.5,2832C 1362.78,2816.72 1375.44,2801.72 1388.5,2787C 1428.08,2790.97 1463.41,2805.3 1494.5,2830C 1521.58,2852.23 1543.25,2878.73 1559.5,2909.5 Z"/></g>
<g><path style="opacity:1" fill="#FFCF02" d="M 3519.5,2813.5 C 3538.31,2813.47 3546.81,2822.81 3545,2841.5C 3539.47,2855.69 3529.3,2860.53 3514.5,2856C 3503.64,2849.42 3499.8,2839.92 3503,2827.5C 3506.58,2820.4 3512.08,2815.74 3519.5,2813.5 Z"/></g>
<g><path style="opacity:1" fill="#bcbcbc" d="M 1895.5,2880.5 C 1893.67,2882.5 1893.17,2884.83 1894,2887.5C 1918.1,2911.26 1945.27,2930.76 1975.5,2946C 1955.77,2953.19 1935.77,2959.69 1915.5,2965.5C 1913.93,2965.52 1912.6,2965.02 1911.5,2964C 1829.49,2965.07 1747.49,2966.74 1665.5,2969C 1661.87,2970.48 1658.53,2972.48 1655.5,2975C 1643.67,2985.5 1631.83,2996 1620,3006.5C 1610.23,2966.03 1595.07,2927.7 1574.5,2891.5C 1581.82,2884.18 1588.82,2876.51 1595.5,2868.5C 1598.45,2867.68 1601.45,2867.18 1604.5,2867C 1692.51,2863.79 1780.51,2861.29 1868.5,2859.5C 1877.23,2866.9 1886.23,2873.9 1895.5,2880.5 Z"/></g>
<g><path style="opacity:1" fill="#fdfdfd" d="M 1123.5,2859.5 C 1151.56,2859.85 1176.9,2868.19 1199.5,2884.5C 1154.48,2923.35 1109.31,2962.02 1064,3000.5C 1054.37,2969.03 1054.04,2937.36 1063,2905.5C 1075.66,2879.98 1095.82,2864.64 1123.5,2859.5 Z"/></g>
<g><path style="opacity:1" fill="#fdfdfd" d="M 1219.5,2903.5 C 1228.1,2910.6 1236.27,2918.26 1244,2926.5C 1257.2,2940.03 1270.03,2953.87 1282.5,2968C 1228.35,3015.31 1174.35,3062.81 1120.5,3110.5C 1101.73,3086.65 1086.23,3060.65 1074,3032.5C 1073.33,3031.17 1073.33,3029.83 1074,3028.5C 1122.99,2987.34 1171.49,2945.68 1219.5,2903.5 Z"/></g>
<g><path style="opacity:1" fill="#bcbcbc" d="M 1559.5,2909.5 C 1579.39,2944.83 1593.39,2982.49 1601.5,3022.5C 1601.28,3023.94 1600.78,3025.27 1600,3026.5C 1549.39,3098.78 1498.39,3170.78 1447,3242.5C 1453.18,3210.41 1450.18,3179.07 1438,3148.5C 1432.96,3135.42 1427.12,3122.75 1420.5,3110.5C 1423.69,3109.91 1426.69,3108.74 1429.5,3107C 1436.43,3101.07 1442.26,3094.24 1447,3086.5C 1452.76,3076.55 1457.76,3066.21 1462,3055.5C 1469.4,3035.29 1476.4,3014.96 1483,2994.5C 1508,2965.67 1533.5,2937.34 1559.5,2909.5 Z"/></g>
<g><path style="opacity:1" fill="#FFCF02" d="M 644.5,2960.5 C 655.812,2959.98 660.645,2965.31 659,2976.5C 657.833,2979 656,2980.83 653.5,2982C 641.616,2984.31 636.449,2979.48 638,2967.5C 639.694,2964.64 641.861,2962.31 644.5,2960.5 Z"/></g>
<g><path style="opacity:1" fill="#bcbcbc" d="M 2139.5,3064.5 C 2090.43,3030.06 2035.76,3015.23 1975.5,3020C 1953.55,3021.95 1931.89,3025.45 1910.5,3030.5C 1913.6,3018.27 1916.93,3006.11 1920.5,2994C 1950.5,2984 1980.5,2974 2010.5,2964C 2012.17,2963.33 2013.83,2963.33 2015.5,2964C 2051.24,2977.51 2088.24,2984.35 2126.5,2984.5C 2128.89,3011.49 2133.22,3038.15 2139.5,3064.5 Z"/></g>
<g><path style="opacity:1" fill="#959595" d="M 2163.5,2984.5 C 2161.05,2985.47 2158.39,2985.81 2155.5,2985.5C 2155.5,2987.83 2155.5,2990.17 2155.5,2992.5C 2154.53,2990.05 2154.19,2987.39 2154.5,2984.5C 2157.5,2984.5 2160.5,2984.5 2163.5,2984.5 Z"/></g>
<g><path style="opacity:1" fill="#fefefe" d="M 1329.5,3024.5 C 1329.97,3044.26 1328.97,3063.93 1326.5,3083.5C 1287.46,3114.54 1248.13,3145.21 1208.5,3175.5C 1186.29,3167.23 1165.29,3156.56 1145.5,3143.5C 1142.51,3140.5 1139.84,3137.17 1137.5,3133.5C 1191.68,3085.16 1246.18,3037.16 1301,2989.5C 1310.99,3000.83 1320.49,3012.5 1329.5,3024.5 Z"/></g>
<g><path style="opacity:1" fill="#fefefe" d="M 2139.5,3064.5 C 2145.89,3088.29 2153.73,3111.63 2163,3134.5C 2168.52,3146.37 2174.68,3157.87 2181.5,3169C 2163.08,3187.46 2151.58,3209.63 2147,3235.5C 2145.57,3245.13 2144.4,3254.8 2143.5,3264.5C 2132.45,3258.93 2121.78,3252.77 2111.5,3246C 2108.53,3245.21 2105.53,3244.54 2102.5,3244C 2078.44,3231.3 2054.44,3218.64 2030.5,3206C 2024.67,3205.17 2022.17,3207.67 2023,3213.5C 2028.38,3219.38 2034.21,3224.71 2040.5,3229.5C 2031.37,3254.11 2018.87,3276.77 2003,3297.5C 1964.68,3343.24 1922.18,3347.58 1875.5,3310.5C 1859.6,3265.26 1858.43,3219.6 1872,3173.5C 1885,3125.84 1897.83,3078.18 1910.5,3030.5C 1931.89,3025.45 1953.55,3021.95 1975.5,3020C 2035.76,3015.23 2090.43,3030.06 2139.5,3064.5 Z"/></g>
<g><path style="opacity:1" fill="#bbbbbb" d="M 1329.5,3024.5 C 1338.83,3035.84 1347.83,3047.51 1356.5,3059.5C 1346.79,3067.87 1336.79,3075.87 1326.5,3083.5C 1328.97,3063.93 1329.97,3044.26 1329.5,3024.5 Z"/></g>
<g><path style="opacity:1" fill="#FFCF02" d="M 3316.5,3073.5 C 3327.78,3072.52 3332.62,3077.52 3331,3088.5C 3329.27,3093.76 3325.6,3096.09 3320,3095.5C 3315.12,3095.39 3311.78,3093.06 3310,3088.5C 3307.91,3081.48 3310.08,3076.48 3316.5,3073.5 Z"/></g>
<g><path style="opacity:1" fill="#bcbcbc" d="M 1248.5,3180.5 C 1273.65,3180.9 1292.82,3170.24 1306,3148.5C 1309.98,3142.21 1313.15,3135.54 1315.5,3128.5C 1334.15,3113.36 1352.98,3098.36 1372,3083.5C 1386.09,3104.51 1398.26,3126.68 1408.5,3150C 1407.22,3152.28 1405.56,3154.28 1403.5,3156C 1362.87,3192.3 1322.53,3228.96 1282.5,3266C 1274.82,3264.17 1267.49,3261.17 1260.5,3257C 1240.48,3245.33 1222.48,3231 1206.5,3214C 1220.37,3202.62 1234.37,3191.45 1248.5,3180.5 Z"/></g>
<g><path style="opacity:1" fill="#fbfbfb" d="M 1315.5,3128.5 C 1313.15,3135.54 1309.98,3142.21 1306,3148.5C 1292.82,3170.24 1273.65,3180.9 1248.5,3180.5C 1270.68,3162.92 1293.02,3145.58 1315.5,3128.5 Z"/></g>
<g><path style="opacity:1" fill="#bbbbbb" d="M 1145.5,3143.5 C 1165.29,3156.56 1186.29,3167.23 1208.5,3175.5C 1202.61,3181.45 1196.28,3186.95 1189.5,3192C 1188.5,3192.67 1187.5,3192.67 1186.5,3192C 1172.25,3176.25 1158.58,3160.09 1145.5,3143.5 Z"/></g>
<g><path style="opacity:1" fill="#FFCF02" d="M 2842.5,3178.5 C 2859.28,3176.03 2868.95,3183.03 2871.5,3199.5C 2868.56,3218.15 2857.89,3224.98 2839.5,3220C 2829.09,3213.11 2825.59,3203.61 2829,3191.5C 2832.07,3185.59 2836.57,3181.26 2842.5,3178.5 Z"/></g>
<g><path style="opacity:1" fill="#bbbbbb" d="M 1417.5,3179.5 C 1420.54,3185.69 1422.04,3192.35 1422,3199.5C 1426.68,3233.51 1414.52,3259.35 1385.5,3277C 1383.04,3278.56 1380.38,3279.56 1377.5,3280C 1357.39,3282.42 1337.39,3281.76 1317.5,3278C 1315.62,3277.78 1313.95,3277.12 1312.5,3276C 1348,3244.34 1383,3212.17 1417.5,3179.5 Z"/></g>
<g><path style="opacity:1" fill="#fdfdfd" d="M 2252.5,3242.5 C 2255.03,3250.26 2257.86,3257.92 2261,3265.5C 2264.91,3278.15 2264.25,3290.49 2259,3302.5C 2257.39,3306.28 2254.56,3308.28 2250.5,3308.5C 2221.35,3300.79 2193.35,3290.12 2166.5,3276.5C 2163.76,3248.56 2169.59,3222.56 2184,3198.5C 2187.01,3194.66 2190.18,3190.99 2193.5,3187.5C 2209.35,3208.19 2227.69,3226.35 2248.5,3242C 2249.79,3242.49 2251.13,3242.66 2252.5,3242.5 Z"/></g>
<g><path style="opacity:1" fill="#bcbcbc" d="M 2040.5,3229.5 C 2055.44,3241.1 2070.1,3253.1 2084.5,3265.5C 2081.3,3307.07 2064.3,3341.9 2033.5,3370C 2006.53,3392.33 1976.2,3398.66 1942.5,3389C 1919.27,3378.77 1901.44,3362.61 1889,3340.5C 1883.66,3330.83 1879.16,3320.83 1875.5,3310.5C 1922.18,3347.58 1964.68,3343.24 2003,3297.5C 2018.87,3276.77 2031.37,3254.11 2040.5,3229.5 Z"/></g>
<g><path style="opacity:1" fill="#FFCF02" d="M 516.5,3266.5 C 536.345,3266.18 545.178,3275.84 543,3295.5C 536.174,3309 525.674,3313.16 511.5,3308C 499.79,3299.41 497.29,3288.58 504,3275.5C 507.299,3271.12 511.466,3268.12 516.5,3266.5 Z"/></g>
<g><path style="opacity:1" fill="#FFCF02" d="M 969.5,3336.5 C 974.029,3336.5 977.529,3338.5 980,3342.5C 984.713,3353.02 987.713,3364.02 989,3375.5C 992.819,3383.32 998.986,3388.15 1007.5,3390C 1018.69,3390.77 1029.02,3394.1 1038.5,3400C 1041.8,3406.75 1039.8,3411.41 1032.5,3414C 1023.4,3417.27 1014.07,3419.61 1004.5,3421C 996.359,3423.81 990.859,3429.31 988,3437.5C 986.85,3447.92 984.184,3457.92 980,3467.5C 976.077,3474.42 971.41,3475.09 966,3469.5C 960.7,3458 957.034,3446 955,3433.5C 952.195,3428.18 948.028,3424.35 942.5,3422C 930.076,3420.55 918.409,3416.88 907.5,3411C 903.798,3408.47 902.965,3405.3 905,3401.5C 907.234,3399.3 909.734,3397.47 912.5,3396C 922.595,3392.45 932.928,3389.78 943.5,3388C 949.82,3385.01 953.987,3380.18 956,3373.5C 957.364,3365.01 959.364,3356.68 962,3348.5C 963.747,3344 966.247,3340 969.5,3336.5 Z"/></g>
<g><path style="opacity:1" fill="#FFCF02" d="M 3111.5,3506.5 C 3122.82,3505.33 3127.99,3510.33 3127,3521.5C 3123.43,3527.36 3118.27,3529.53 3111.5,3528C 3105.67,3524.87 3103.51,3520.03 3105,3513.5C 3106.69,3510.64 3108.86,3508.31 3111.5,3506.5 Z"/></g>
</svg>
